<svg width="167" height="40" viewBox="0 0 167 40" fill="none" xmlns="http://www.w3.org/2000/svg">
<path d="M48.3785 26.321C48.3785 27.1453 48.2092 27.7787 47.8708 28.2212C47.5412 28.6638 46.9902 28.885 46.218 28.885C45.4891 28.885 44.9729 28.6638 44.6691 28.2212C44.3741 27.7787 44.2266 27.1453 44.2266 26.321V12.564C44.2266 11.7397 44.3741 11.1063 44.6691 10.6638C44.9729 10.2213 45.4891 10 46.218 10C46.9902 10 47.5412 10.2213 47.8708 10.6638C48.2092 11.1063 48.3785 11.7397 48.3785 12.564V26.321Z" fill="#808080"/>
<path d="M49.6388 22.3254C49.6388 21.4056 49.7863 20.538 50.0814 19.7223C50.3851 18.898 50.8362 18.1779 51.435 17.5618C52.0424 16.9458 52.7972 16.4555 53.6996 16.0911C54.6107 15.7266 55.6779 15.5445 56.9013 15.5445C58.0727 15.5445 59.1096 15.7136 60.012 16.052C60.9144 16.3905 61.6736 16.8634 62.2896 17.4708C62.9056 18.0694 63.3742 18.7852 63.6953 19.6182C64.0163 20.4425 64.1768 21.3449 64.1768 22.3254C64.1768 23.2365 64.0249 24.0998 63.7213 24.9154C63.4176 25.7223 62.962 26.4339 62.3546 27.0499C61.7474 27.6572 60.9881 28.1431 60.0771 28.5076C59.1659 28.8634 58.1074 29.0412 56.9013 29.0412C55.7126 29.0412 54.6628 28.872 53.7516 28.5336C52.8492 28.1865 52.0901 27.7136 51.474 27.1149C50.8666 26.5076 50.4067 25.7961 50.0944 24.9805C49.7907 24.1562 49.6388 23.2711 49.6388 22.3254ZM53.973 22.3254C53.973 22.8981 54.0249 23.4447 54.1291 23.9653C54.2332 24.4772 54.3981 24.9284 54.6237 25.3189C54.8579 25.7093 55.1617 26.0217 55.5347 26.2559C55.9079 26.4815 56.3634 26.5943 56.9013 26.5943C57.3959 26.5943 57.8254 26.4903 58.1898 26.2819C58.563 26.0738 58.8666 25.783 59.1009 25.41C59.3438 25.0369 59.5261 24.59 59.6475 24.0694C59.769 23.5401 59.8297 22.9588 59.8297 22.3254C59.8297 21.7527 59.7733 21.2104 59.6606 20.6985C59.5564 20.1779 59.3873 19.7223 59.1529 19.3318C58.9187 18.9328 58.615 18.6204 58.2419 18.3948C57.8775 18.1606 57.4306 18.0434 56.9013 18.0434C56.372 18.0434 55.9209 18.1561 55.5477 18.3818C55.1747 18.6074 54.871 18.9154 54.6367 19.3059C54.4024 19.6963 54.2332 20.1518 54.1291 20.6725C54.0249 21.193 53.973 21.744 53.973 22.3254Z" fill="#808080"/>
<path d="M74.8602 26.3731C74.6259 26.8069 74.3395 27.1756 74.0011 27.4794C73.6715 27.7831 73.3027 28.0347 72.8949 28.2343C72.4958 28.4251 72.0663 28.5683 71.6064 28.6638C71.1551 28.7505 70.691 28.7939 70.2138 28.7939C69.4155 28.7939 68.6867 28.6508 68.0272 28.3644C67.3678 28.078 66.7995 27.6659 66.3223 27.128C65.8537 26.5814 65.4893 25.9132 65.229 25.1237C64.9686 24.334 64.8384 23.4316 64.8384 22.4165C64.8384 21.462 64.96 20.5683 65.203 19.7353C65.4459 18.9024 65.7973 18.1779 66.2572 17.5618C66.7257 16.9458 67.2984 16.4599 67.9752 16.1041C68.6519 15.7484 69.4242 15.5705 70.2919 15.5705C71.281 15.5705 72.1574 15.7614 72.9209 16.1431C73.6932 16.525 74.357 17.1497 74.9123 18.0173V17.679C74.9123 17.0543 75.0814 16.5857 75.4198 16.2733C75.7669 15.9523 76.2442 15.7917 76.8516 15.7917C77.216 15.7917 77.5239 15.8525 77.7756 15.974C78.0272 16.0868 78.2267 16.2603 78.3742 16.4946C78.5218 16.7202 78.6259 17.0022 78.6866 17.3406C78.7561 17.6702 78.7907 18.0477 78.7907 18.4729V27.1931C78.7907 28.2516 78.6563 29.1973 78.3873 30.0303C78.127 30.8633 77.7192 31.5662 77.1639 32.1388C76.6086 32.7115 75.8971 33.1453 75.0294 33.4404C74.1617 33.744 73.1292 33.8958 71.9318 33.8958C71.0902 33.8958 70.3439 33.8569 69.6931 33.7787C69.0511 33.7094 68.4958 33.6009 68.0272 33.4534C67.5587 33.2884 67.203 33.1063 66.96 32.9067C66.7257 32.7071 66.6086 32.4468 66.6086 32.1258C66.6086 31.9436 66.6346 31.7701 66.6866 31.6052C66.7387 31.4403 66.8168 31.2929 66.9209 31.1627C67.0337 31.0412 67.1769 30.9415 67.3505 30.8633C67.5326 30.794 67.7539 30.7592 68.0142 30.7592C68.2918 30.7592 68.5695 30.7765 68.8472 30.8113C69.1335 30.8459 69.4286 30.8807 69.7322 30.9154C70.0445 30.9588 70.3699 30.9978 70.7083 31.0325C71.0554 31.0672 71.4285 31.0846 71.8276 31.0846C72.3049 31.0846 72.73 31.0369 73.1032 30.9415C73.4762 30.8459 73.7929 30.6768 74.0532 30.4338C74.3136 30.1909 74.5131 29.8655 74.652 29.4577C74.7908 29.0585 74.8602 28.5466 74.8602 27.9219V26.3731ZM74.8602 22.3254C74.8602 21.6919 74.8124 21.115 74.717 20.5944C74.6303 20.0737 74.4784 19.6313 74.2615 19.2668C74.0446 18.8937 73.7539 18.6074 73.3895 18.4078C73.025 18.1996 72.5695 18.0955 72.0229 18.0955C71.4849 18.0955 71.0381 18.2039 70.6824 18.4208C70.3353 18.6377 70.0576 18.9371 69.8494 19.3188C69.6411 19.7007 69.4936 20.1475 69.4068 20.6595C69.3287 21.1714 69.2897 21.718 69.2897 22.2993C69.2897 23.6269 69.524 24.6248 69.9925 25.2928C70.461 25.961 71.1422 26.295 72.0359 26.295C72.4524 26.2864 72.8299 26.2082 73.1682 26.0607C73.5152 25.9045 73.8147 25.666 74.0662 25.3449C74.3179 25.0238 74.5131 24.616 74.652 24.1214C74.7908 23.6269 74.8602 23.0282 74.8602 22.3254Z" fill="#808080"/>
<path d="M79.9861 22.3254C79.9861 21.4056 80.1336 20.538 80.4286 19.7223C80.7323 18.898 81.1834 18.1779 81.7822 17.5618C82.3896 16.9458 83.1444 16.4555 84.0468 16.0911C84.9579 15.7266 86.0251 15.5445 87.2486 15.5445C88.4199 15.5445 89.4567 15.7136 90.3591 16.052C91.2615 16.3905 92.0207 16.8634 92.6368 17.4708C93.2529 18.0694 93.7214 18.7852 94.0424 19.6182C94.3635 20.4425 94.524 21.3449 94.524 22.3254C94.524 23.2365 94.3722 24.0998 94.0685 24.9154C93.7648 25.7223 93.3093 26.4339 92.7019 27.0499C92.0945 27.6572 91.3353 28.1431 90.4242 28.5076C89.5132 28.8634 88.4546 29.0412 87.2486 29.0412C86.0598 29.0412 85.0099 28.872 84.0988 28.5336C83.1965 28.1865 82.4372 27.7136 81.8212 27.1149C81.2139 26.5076 80.754 25.7961 80.4416 24.9805C80.1379 24.1562 79.9861 23.2711 79.9861 22.3254ZM84.3201 22.3254C84.3201 22.8981 84.3722 23.4447 84.4764 23.9653C84.5804 24.4772 84.7452 24.9284 84.9709 25.3189C85.2051 25.7093 85.5088 26.0217 85.882 26.2559C86.255 26.4815 86.7106 26.5943 87.2486 26.5943C87.7431 26.5943 88.1726 26.4903 88.537 26.2819C88.9101 26.0738 89.2138 25.783 89.4481 25.41C89.6911 25.0369 89.8732 24.59 89.9947 24.0694C90.1162 23.5401 90.177 22.9588 90.177 22.3254C90.177 21.7527 90.1206 21.2104 90.0077 20.6985C89.9037 20.1779 89.7344 19.7223 89.5002 19.3318C89.2659 18.9328 88.9622 18.6204 88.5891 18.3948C88.2247 18.1606 87.7778 18.0434 87.2486 18.0434C86.7193 18.0434 86.268 18.1561 85.895 18.3818C85.5219 18.6074 85.2181 18.9154 84.9839 19.3059C84.7497 19.6963 84.5804 20.1518 84.4764 20.6725C84.3722 21.193 84.3201 21.744 84.3201 22.3254Z" fill="#808080"/>
<path d="M100.105 11.1584C100.105 11.4447 100.04 11.7006 99.9102 11.9263C99.78 12.1432 99.6109 12.3253 99.4026 12.4729C99.1944 12.6204 98.9514 12.7332 98.6737 12.8112C98.4048 12.8806 98.1272 12.9154 97.8408 12.9154C97.5371 12.9154 97.2465 12.8763 96.9688 12.7982C96.6998 12.7202 96.4613 12.6074 96.253 12.4598C96.0448 12.3037 95.8798 12.1171 95.7583 11.9002C95.6369 11.6833 95.5762 11.436 95.5762 11.1584C95.5762 10.9067 95.6326 10.6768 95.7453 10.4686C95.8668 10.2516 96.0273 10.0651 96.2269 9.9089C96.4265 9.75272 96.6652 9.63124 96.9428 9.54448C97.2205 9.4577 97.5241 9.41432 97.8539 9.41432C98.1402 9.41432 98.4178 9.45337 98.6868 9.53146C98.9645 9.60955 99.2074 9.72234 99.4156 9.86986C99.6239 10.0174 99.7888 10.1996 99.9102 10.4165C100.04 10.6334 100.105 10.8807 100.105 11.1584ZM99.9102 26.321C99.9102 27.1453 99.741 27.7787 99.4026 28.2212C99.0729 28.6638 98.5219 28.885 97.7497 28.885C97.0209 28.885 96.5046 28.6638 96.2009 28.2212C95.9059 27.7787 95.7583 27.1453 95.7583 26.321V18.3557C95.7583 17.5314 95.9059 16.898 96.2009 16.4555C96.5046 16.0131 97.0209 15.7917 97.7497 15.7917C98.5219 15.7917 99.0729 16.0131 99.4026 16.4555C99.741 16.898 99.9102 17.5314 99.9102 18.3557V26.321Z" fill="#808080"/>
<path d="M105.895 22.2993C105.895 22.8807 105.938 23.423 106.025 23.9263C106.121 24.4295 106.277 24.872 106.494 25.2538C106.719 25.6269 107.014 25.9219 107.379 26.1388C107.752 26.3558 108.212 26.4642 108.758 26.4642C109.262 26.4642 109.682 26.3601 110.021 26.1519C110.368 25.935 110.645 25.6399 110.854 25.2668C111.062 24.885 111.21 24.4382 111.296 23.9263C111.392 23.4143 111.44 22.859 111.44 22.2603C111.44 21.7831 111.405 21.2972 111.335 20.8026C111.266 20.2993 111.136 19.8438 110.945 19.436C110.754 19.0282 110.49 18.6941 110.151 18.4338C109.812 18.1736 109.37 18.0434 108.824 18.0434C108.277 18.0434 107.813 18.1301 107.431 18.3037C107.058 18.4772 106.754 18.7419 106.52 19.0976C106.294 19.4533 106.134 19.9003 106.038 20.4381C105.943 20.9675 105.895 21.5879 105.895 22.2993ZM105.882 18.3557C106.099 17.8959 106.377 17.4924 106.715 17.1453C107.053 16.7983 107.427 16.5076 107.834 16.2733C108.242 16.0391 108.667 15.8655 109.11 15.7527C109.561 15.6312 110.008 15.5705 110.45 15.5705C111.248 15.5705 111.969 15.7484 112.611 16.1041C113.253 16.4599 113.8 16.9458 114.251 17.5618C114.71 18.1692 115.062 18.8894 115.306 19.7223C115.548 20.5466 115.67 21.4317 115.67 22.3774C115.67 23.3579 115.539 24.2559 115.279 25.0716C115.028 25.8872 114.667 26.59 114.198 27.18C113.739 27.7614 113.183 28.2169 112.532 28.5466C111.89 28.8764 111.175 29.0412 110.386 29.0412C109.414 29.0412 108.546 28.8156 107.782 28.3644C107.019 27.9132 106.385 27.2798 105.882 26.4642V31.1497C105.882 31.9739 105.713 32.6074 105.374 33.0499C105.045 33.4923 104.494 33.7137 103.722 33.7137C102.993 33.7137 102.476 33.4923 102.173 33.0499C101.878 32.6074 101.73 31.9739 101.73 31.1497V18.3557C101.73 17.5314 101.878 16.898 102.173 16.4555C102.476 16.0131 102.993 15.7917 103.722 15.7917C104.494 15.7917 105.045 16.0131 105.374 16.4555C105.713 16.898 105.882 17.5314 105.882 18.3557Z" fill="#808080"/>
<path d="M120.249 19.2799C120.249 19.6182 120.397 19.8828 120.691 20.0737C120.986 20.256 121.394 20.4078 121.915 20.5293C122.409 20.642 122.917 20.7506 123.438 20.8546C123.959 20.9588 124.466 21.0803 124.96 21.2191C125.455 21.3492 125.919 21.5055 126.353 21.6876C126.786 21.8698 127.168 22.0997 127.498 22.3774C127.828 22.6464 128.088 22.9761 128.279 23.3665C128.47 23.7484 128.565 24.2083 128.565 24.7462C128.565 25.423 128.427 26.026 128.149 26.5553C127.871 27.0759 127.477 27.5184 126.965 27.8829C126.462 28.2473 125.859 28.5293 125.156 28.7289C124.453 28.9284 123.676 29.0325 122.826 29.0412C122.019 29.0412 121.242 28.9892 120.496 28.885C119.75 28.7896 119.086 28.6377 118.504 28.4294C117.932 28.2212 117.472 27.9653 117.125 27.6615C116.778 27.3492 116.605 26.9848 116.605 26.5684C116.605 26.2039 116.722 25.9219 116.956 25.7223C117.19 25.5228 117.489 25.423 117.854 25.423C117.993 25.423 118.158 25.449 118.349 25.501C118.54 25.5531 118.747 25.6182 118.973 25.6963C119.198 25.7744 119.437 25.8611 119.689 25.9566C119.949 26.0434 120.218 26.1214 120.496 26.1909C120.843 26.2864 121.199 26.3644 121.563 26.4252C121.936 26.4772 122.318 26.5033 122.709 26.5033C122.951 26.5033 123.19 26.4815 123.424 26.4382C123.659 26.3861 123.867 26.3124 124.05 26.217C124.241 26.1128 124.396 25.9826 124.518 25.8265C124.639 25.6703 124.713 25.4794 124.739 25.2538C124.765 25.2017 124.787 25.1496 124.804 25.0976C124.821 25.0456 124.83 24.9848 124.83 24.9154C124.83 24.6724 124.717 24.4555 124.492 24.2646C124.275 24.0738 123.966 23.9218 123.568 23.8091C122.899 23.653 122.261 23.5098 121.654 23.3796C121.048 23.2495 120.483 23.1106 119.962 22.9631C119.45 22.8157 118.982 22.6464 118.556 22.4555C118.14 22.2647 117.785 22.0303 117.489 21.7527C117.204 21.475 116.977 21.1409 116.813 20.7506C116.656 20.3601 116.578 19.8872 116.578 19.3318C116.578 18.7332 116.713 18.1996 116.982 17.731C117.259 17.2537 117.655 16.8547 118.167 16.5336C118.679 16.2125 119.298 15.9696 120.028 15.8048C120.757 15.6312 121.581 15.5445 122.5 15.5445C124.148 15.5445 125.402 15.7441 126.262 16.1431C127.129 16.5336 127.564 17.0455 127.564 17.679C127.564 18.0347 127.446 18.3081 127.212 18.4989C126.977 18.6811 126.695 18.7722 126.366 18.7722C126.192 18.7722 126.01 18.7419 125.819 18.6811C125.637 18.6117 125.416 18.538 125.156 18.4599C124.895 18.3731 124.583 18.2994 124.218 18.2386C123.863 18.1692 123.42 18.1345 122.891 18.1345C122.491 18.1345 122.127 18.1518 121.797 18.1866C121.476 18.2212 121.199 18.282 120.964 18.3687C120.739 18.4556 120.561 18.5726 120.431 18.7202C120.309 18.8677 120.249 19.0542 120.249 19.2799Z" fill="#808080"/>
<path d="M133.848 24.0563C133.848 24.4642 133.9 24.8199 134.004 25.1237C134.116 25.4273 134.268 25.6833 134.459 25.8915C134.651 26.0911 134.872 26.2429 135.123 26.347C135.384 26.4425 135.661 26.4903 135.956 26.4903C136.303 26.4903 136.637 26.4382 136.958 26.334C137.279 26.2299 137.561 26.0694 137.805 25.8524C138.056 25.6355 138.256 25.3622 138.403 25.0325C138.55 24.7028 138.624 24.3167 138.624 23.8742V18.3557C138.624 17.5314 138.772 16.898 139.066 16.4555C139.371 16.0131 139.887 15.7917 140.616 15.7917C141.388 15.7917 141.938 16.0131 142.268 16.4555C142.607 16.898 142.776 17.5314 142.776 18.3557V26.321C142.776 27.1453 142.607 27.7787 142.268 28.2212C141.938 28.6638 141.388 28.885 140.616 28.885C139.887 28.885 139.371 28.6638 139.066 28.2212C138.772 27.7787 138.624 27.1453 138.624 26.321C138.442 26.7202 138.203 27.0846 137.908 27.4143C137.621 27.7441 137.284 28.0304 136.893 28.2733C136.511 28.5076 136.087 28.6898 135.618 28.8199C135.158 28.9501 134.658 29.0152 134.121 29.0152C133.54 29.0152 132.98 28.9153 132.441 28.7159C131.913 28.5076 131.444 28.2039 131.037 27.8047C130.629 27.397 130.304 26.8937 130.06 26.295C129.817 25.6963 129.696 24.9978 129.696 24.1995V18.3557C129.696 17.5314 129.844 16.898 130.138 16.4555C130.442 16.0131 130.958 15.7917 131.687 15.7917C132.459 15.7917 133.01 16.0131 133.34 16.4555C133.679 16.898 133.848 17.5314 133.848 18.3557V24.0563Z" fill="#808080"/>
<path d="M144.661 18.3557C144.661 17.5314 144.808 16.898 145.104 16.4555C145.407 16.0131 145.923 15.7917 146.652 15.7917C147.425 15.7917 147.976 16.0131 148.306 16.4555C148.643 16.898 148.813 17.5314 148.813 18.3557C148.986 17.9392 149.221 17.5618 149.516 17.2234C149.819 16.8764 150.163 16.5814 150.544 16.3384C150.935 16.0955 151.355 15.9089 151.806 15.7787C152.257 15.6399 152.726 15.5705 153.212 15.5705C153.663 15.5705 154.105 15.6312 154.54 15.7527C154.982 15.8655 155.39 16.052 155.764 16.3124C156.145 16.5639 156.479 16.885 156.765 17.2755C157.052 17.6659 157.273 18.1345 157.43 18.6811C157.698 18.0998 158.015 17.6096 158.379 17.2104C158.743 16.8113 159.139 16.4902 159.563 16.2473C159.988 16.0043 160.432 15.8308 160.891 15.7266C161.36 15.6226 161.828 15.5705 162.296 15.5705C162.852 15.5705 163.381 15.6703 163.884 15.8698C164.396 16.0694 164.843 16.3731 165.225 16.781C165.616 17.18 165.924 17.6877 166.149 18.3037C166.383 18.911 166.5 19.6226 166.5 20.4381V26.321C166.5 27.1453 166.331 27.7787 165.992 28.2212C165.664 28.6638 165.112 28.885 164.34 28.885C163.611 28.885 163.095 28.6638 162.792 28.2212C162.496 27.7787 162.348 27.1453 162.348 26.321V20.6204C162.348 20.2299 162.296 19.8828 162.193 19.5792C162.089 19.2668 161.941 19.0065 161.75 18.7983C161.568 18.5814 161.351 18.4208 161.099 18.3167C160.848 18.2039 160.578 18.1475 160.293 18.1475C159.936 18.1475 159.599 18.2039 159.278 18.3167C158.957 18.4295 158.675 18.603 158.431 18.8373C158.197 19.0716 158.006 19.3709 157.858 19.7353C157.719 20.0997 157.651 20.538 157.651 21.0499V26.321C157.651 27.1453 157.481 27.7787 157.143 28.2212C156.813 28.6638 156.262 28.885 155.489 28.885C154.761 28.885 154.244 28.6638 153.941 28.2212C153.646 27.7787 153.498 27.1453 153.498 26.321V20.8676C153.498 19.974 153.311 19.2972 152.939 18.8373C152.574 18.3775 152.075 18.1475 151.442 18.1475C151.069 18.1475 150.721 18.2082 150.4 18.3297C150.079 18.4512 149.802 18.629 149.567 18.8634C149.333 19.0976 149.146 19.3883 149.008 19.7353C148.878 20.0824 148.813 20.4816 148.813 20.9327V26.321C148.813 27.1453 148.643 27.7787 148.306 28.2212C147.976 28.6638 147.425 28.885 146.652 28.885C145.923 28.885 145.407 28.6638 145.104 28.2212C144.808 27.7787 144.661 27.1453 144.661 26.321V18.3557Z" fill="#808080"/>
<path d="M17.1594 26.6638C13.4791 26.6638 10.4957 23.6803 10.4957 20C10.4957 16.3197 13.4791 13.3362 17.1594 13.3362C20.8397 13.3362 23.8232 16.3197 23.8232 20C23.8232 23.6803 20.8397 26.6638 17.1594 26.6638Z" fill="#808080"/>
<path d="M4.24973 22.2763C2.31863 22.6169 0.994962 24.4823 1.73625 26.2977C2.77118 28.8321 4.42227 31.0903 6.5628 32.8548C9.62359 35.3779 13.4841 36.7261 17.4502 36.6569C21.4162 36.5877 25.2275 35.1055 28.1984 32.4771C30.2759 30.639 31.8472 28.3246 32.7932 25.7556C33.4707 23.9154 32.0826 22.0973 30.1408 21.8244C28.1991 21.5515 26.4556 22.9649 25.4965 24.6753C24.9766 25.6023 24.3016 26.4434 23.4931 27.1588C21.7885 28.6669 19.6018 29.5172 17.3263 29.5569C15.0508 29.5966 12.8357 28.8232 11.0796 27.3755C10.2465 26.6888 9.54273 25.8718 8.99077 24.9634C7.97256 23.2876 6.18084 21.9358 4.24973 22.2763Z" fill="#808080"/>
<path d="M33.69 22.0819C33.7751 21.3998 33.8188 20.705 33.8188 20C33.8188 10.7993 26.3602 3.34058 17.1594 3.34058C7.95868 3.34058 0.5 10.7993 0.5 20C0.5 20.9048 0.572135 21.7928 0.710975 22.6585C1.47618 21.611 2.67046 20.8632 3.96045 20.6357C5.35616 20.3896 6.62465 20.7281 7.69717 21.3608C7.63381 20.9164 7.60102 20.462 7.60102 20C7.60102 14.7211 11.8805 10.4416 17.1594 10.4416C22.4383 10.4416 26.7178 14.7211 26.7178 20C26.7178 20.3481 26.6992 20.6918 26.663 21.0302C27.7128 20.3602 28.9689 19.9773 30.3727 20.1747C31.6694 20.357 32.8887 21.0622 33.69 22.0819Z" fill="#808080"/>
</svg>
