<svg width="167" height="40" viewBox="0 0 167 40" fill="none" xmlns="http://www.w3.org/2000/svg">
<path d="M40.0118 6.44396H44.1563V28.233H50.9758V31.8646H40.0118V6.44396Z" fill="#616161"/>
<path d="M58.8067 32.2277C56.7722 32.2277 55.2149 31.6709 54.1348 30.5572C53.0547 29.4435 52.5147 27.8699 52.5147 25.8362V12.4723C52.5147 10.4386 53.0547 8.86497 54.1348 7.75131C55.2149 6.63764 56.7722 6.08081 58.8067 6.08081C60.8413 6.08081 62.3986 6.63764 63.4787 7.75131C64.5587 8.86497 65.0988 10.4386 65.0988 12.4723V25.8362C65.0988 27.8699 64.5587 29.4435 63.4787 30.5572C62.3986 31.6709 60.8413 32.2277 58.8067 32.2277ZM58.8067 28.5962C60.2385 28.5962 60.9544 27.7609 60.9544 26.0904V12.2181C60.9544 10.5476 60.2385 9.71232 58.8067 9.71232C57.375 9.71232 56.6591 10.5476 56.6591 12.2181V26.0904C56.6591 27.7609 57.375 28.5962 58.8067 28.5962Z" fill="#616161"/>
<path d="M73.7792 32.2277C71.7698 32.2277 70.2376 31.683 69.1826 30.5935C68.1276 29.4799 67.6002 27.8941 67.6002 25.8362V12.4723C67.6002 10.4144 68.1276 8.84076 69.1826 7.75131C70.2376 6.63764 71.7698 6.08081 73.7792 6.08081C75.7887 6.08081 77.3208 6.63764 78.3758 7.75131C79.4308 8.84076 79.9583 10.4144 79.9583 12.4723V14.6512H76.0398V12.2181C76.0398 10.5476 75.324 9.71232 73.8922 9.71232C72.4606 9.71232 71.7447 10.5476 71.7447 12.2181V26.1268C71.7447 27.7731 72.4606 28.5962 73.8922 28.5962C75.324 28.5962 76.0398 27.7731 76.0398 26.1268V21.1516H73.9676V17.5201H79.9583V25.8362C79.9583 27.8941 79.4308 29.4799 78.3758 30.5935C77.3208 31.683 75.7887 32.2277 73.7792 32.2277Z" fill="#616161"/>
<path d="M88.6098 32.2277C86.5752 32.2277 85.0179 31.6709 83.9379 30.5572C82.8578 29.4435 82.3177 27.8699 82.3177 25.8362V12.4723C82.3177 10.4386 82.8578 8.86497 83.9379 7.75131C85.0179 6.63764 86.5752 6.08081 88.6098 6.08081C90.6444 6.08081 92.2017 6.63764 93.2817 7.75131C94.3619 8.86497 94.9019 10.4386 94.9019 12.4723V25.8362C94.9019 27.8699 94.3619 29.4435 93.2817 30.5572C92.2017 31.6709 90.6444 32.2277 88.6098 32.2277ZM88.6098 28.5962C90.0415 28.5962 90.7574 27.7609 90.7574 26.0904V12.2181C90.7574 10.5476 90.0415 9.71232 88.6098 9.71232C87.1781 9.71232 86.4622 10.5476 86.4622 12.2181V26.0904C86.4622 27.7609 87.1781 28.5962 88.6098 28.5962Z" fill="#616161"/>
<path d="M97.7126 6.44396H101.857V31.8646H97.7126V6.44396Z" fill="#616161"/>
<path d="M104.961 6.44396H111.064C113.124 6.44396 114.669 6.97658 115.699 8.04183C116.729 9.10707 117.244 10.6686 117.244 12.7265V15.2322C117.244 17.2901 116.729 18.8516 115.699 19.9169C114.669 20.9821 113.124 21.5147 111.064 21.5147H109.106V31.8646H104.961V6.44396ZM111.064 17.8832C111.743 17.8832 112.245 17.7016 112.572 17.3385C112.924 16.9753 113.099 16.358 113.099 15.4864V12.4723C113.099 11.6007 112.924 10.9834 112.572 10.6202C112.245 10.2571 111.743 10.0755 111.064 10.0755H109.106V17.8832H111.064Z" fill="#616161"/>
<path d="M125.029 32.2277C123.021 32.2277 121.501 31.683 120.47 30.5935C119.441 29.4799 118.926 27.8941 118.926 25.8362V24.3836H122.844V26.1268C122.844 27.7731 123.56 28.5962 124.992 28.5962C125.695 28.5962 126.222 28.4025 126.574 28.0152C126.951 27.6036 127.139 26.9499 127.139 26.0541C127.139 24.9889 126.888 24.0568 126.386 23.2579C125.884 22.4347 124.954 21.4542 123.597 20.3163C121.89 18.8637 120.697 17.5564 120.018 16.3943C119.341 15.208 119.001 13.8765 119.001 12.3997C119.001 10.3902 119.528 8.84076 120.583 7.75131C121.639 6.63764 123.171 6.08081 125.181 6.08081C127.164 6.08081 128.659 6.63764 129.664 7.75131C130.694 8.84076 131.208 10.4144 131.208 12.4723V13.5254H127.29V12.2181C127.29 11.3465 127.115 10.717 126.763 10.3297C126.411 9.91811 125.896 9.71232 125.218 9.71232C123.836 9.71232 123.146 10.5234 123.146 12.1454C123.146 13.0654 123.397 13.9249 123.899 14.7238C124.426 15.5227 125.368 16.4911 126.725 17.629C128.458 19.0816 129.651 20.4011 130.305 21.5874C130.957 22.7737 131.284 24.1657 131.284 25.7636C131.284 27.8457 130.744 29.4435 129.664 30.5572C128.609 31.6709 127.064 32.2277 125.029 32.2277Z" fill="#616161"/>
<path d="M139.689 32.2277C137.679 32.2277 136.147 31.683 135.092 30.5935C134.037 29.4799 133.51 27.8941 133.51 25.8362V6.44396H137.654V26.1268C137.654 26.9983 137.83 27.6278 138.182 28.0152C138.558 28.4025 139.086 28.5962 139.764 28.5962C140.442 28.5962 140.957 28.4025 141.309 28.0152C141.685 27.6278 141.874 26.9983 141.874 26.1268V6.44396H145.867V25.8362C145.867 27.8941 145.34 29.4799 144.285 30.5935C143.23 31.683 141.698 32.2277 139.689 32.2277Z" fill="#616161"/>
<path d="M148.819 6.44396H154.735L157.372 24.6378H157.447L160.085 6.44396H166V31.8646H162.081V12.6175H162.007L158.992 31.8646H155.525L152.511 12.6175H152.437V31.8646H148.819V6.44396Z" fill="#616161"/>
<path d="M0 31.8646C5.09877 31.8646 9.2321 27.8806 9.2321 22.9662C9.2321 18.0517 5.09877 14.0678 0 14.0678V20.2966C1.52962 20.2966 2.76962 21.4918 2.76962 22.9662C2.76962 24.4405 1.52962 25.6357 0 25.6357V31.8646Z" fill="#616161"/>
<path d="M30.7737 17.0339C29.1961 16.5522 27.5161 16.2923 25.773 16.2923C16.6377 16.2923 9.23213 23.4303 9.23213 32.2353C9.23213 33.1191 9.30675 33.9861 9.45019 34.8307H19.7275C19.3607 34.0379 19.1567 33.1596 19.1567 32.2353C19.1567 28.7133 22.1189 25.8581 25.773 25.8581C27.7701 25.8581 29.5606 26.711 30.7737 28.0595V17.0339Z" fill="#616161"/>
<path d="M1.62318 5.16931C2.38858 11.8431 8.25881 17.0339 15.3869 17.0339C22.5148 17.0339 28.3851 11.8431 29.1504 5.16931H19.247C18.6356 6.64661 17.1376 7.69052 15.3869 7.69052C13.636 7.69052 12.1381 6.64661 11.5266 5.16931H1.62318Z" fill="#616161"/>
</svg>
