<svg width="152" height="42" viewBox="0 0 152 42" fill="none" xmlns="http://www.w3.org/2000/svg">
<path d="M50.0586 27.0146V9.86116H47.2458V27.0146H50.0586Z" fill="#808080"/>
<path d="M51.7801 21.2968C51.7801 24.8012 54.1318 27.2912 57.7054 27.2912C61.2791 27.2912 63.6307 24.8012 63.6307 21.2968C63.6307 17.7923 61.2791 15.3023 57.7054 15.3023C54.1318 15.3023 51.7801 17.7923 51.7801 21.2968ZM54.616 21.2968C54.616 19.2448 55.8379 17.8154 57.7054 17.8154C59.573 17.8154 60.7949 19.2448 60.7949 21.2968C60.7949 23.3257 59.573 24.7782 57.7054 24.7782C55.8379 24.7782 54.616 23.3257 54.616 21.2968Z" fill="#808080"/>
<path d="M64.5768 21.0662C64.5768 24.3862 66.721 26.784 69.9257 26.784C71.5857 26.784 73.0152 26.1154 73.7299 25.0087V26.9454C73.7299 28.8129 72.5541 30.0579 70.5944 30.0579C68.8421 30.0579 67.6432 29.2048 67.4818 27.7062H64.646C65.0149 30.6804 67.2974 32.6171 70.433 32.6171C74.1219 32.6171 76.4735 30.1962 76.4735 26.4382V15.6251H73.9835L73.8221 17.1698C73.1305 15.9709 71.701 15.2562 70.018 15.2562C66.7671 15.2562 64.5768 17.7231 64.5768 21.0662ZM67.4357 20.997C67.4357 19.1065 68.6346 17.7231 70.4099 17.7231C72.3466 17.7231 73.6377 19.1295 73.6377 20.997C73.6377 22.8876 72.3466 24.3401 70.4099 24.3401C68.6577 24.3401 67.4357 22.9107 67.4357 20.997Z" fill="#808080"/>
<path d="M77.8655 21.2968C77.8655 24.8012 80.2172 27.2912 83.7908 27.2912C87.3644 27.2912 89.7161 24.8012 89.7161 21.2968C89.7161 17.7923 87.3644 15.3023 83.7908 15.3023C80.2172 15.3023 77.8655 17.7923 77.8655 21.2968ZM80.7013 21.2968C80.7013 19.2448 81.9233 17.8154 83.7908 17.8154C85.6583 17.8154 86.8802 19.2448 86.8802 21.2968C86.8802 23.3257 85.6583 24.7782 83.7908 24.7782C81.9233 24.7782 80.7013 23.3257 80.7013 21.2968Z" fill="#808080"/>
<path d="M92.7601 13.2964C93.6824 13.2964 94.4432 12.5587 94.4432 11.6134C94.4432 10.6912 93.6824 9.95338 92.7601 9.95338C91.8149 9.95338 91.1001 10.6912 91.1001 11.6134C91.1001 12.5587 91.8149 13.2964 92.7601 13.2964ZM91.3537 27.0146H94.1665V15.6251H91.3537V27.0146Z" fill="#808080"/>
<path d="M96.6308 32.2943H99.3746V25.4468C100.089 26.6226 101.634 27.3143 103.34 27.3143C106.706 27.3143 108.712 24.732 108.666 21.1815C108.597 17.6079 106.545 15.2792 103.317 15.2792C101.588 15.2792 100.02 16.0401 99.3285 17.3542L99.1671 15.6251H96.6308V32.2943ZM99.4899 21.3198C99.4899 19.2679 100.735 17.8384 102.695 17.8384C104.654 17.8384 105.83 19.2909 105.83 21.3198C105.83 23.3487 104.654 24.7782 102.695 24.7782C100.735 24.7782 99.4899 23.3718 99.4899 21.3198Z" fill="#808080"/>
<path d="M109.38 23.6023C109.472 25.8618 111.224 27.3143 113.945 27.3143C116.619 27.3143 118.441 25.8848 118.441 23.6715C118.441 22.0345 117.426 20.9279 115.559 20.4668L113.553 19.9826C112.7 19.752 112.123 19.4523 112.123 18.7145C112.123 17.9306 112.746 17.3773 113.76 17.3773C114.821 17.3773 115.513 17.9767 115.513 18.9681H118.072C117.979 16.7087 116.296 15.2792 113.829 15.2792C111.386 15.2792 109.564 16.7087 109.564 18.8759C109.564 20.3515 110.417 21.5734 112.608 22.1498L114.59 22.657C115.328 22.8645 115.789 23.2104 115.789 23.8559C115.789 24.7551 114.936 25.1701 113.899 25.1701C112.654 25.1701 111.939 24.5937 111.939 23.6023H109.38Z" fill="#808080"/>
<path d="M124.276 27.3143C125.82 27.3143 127.296 26.5996 127.965 25.539L128.149 27.0146H130.777V15.6251H127.965V21.5965C127.965 23.6484 127.181 24.8012 125.336 24.8012C123.907 24.8012 122.915 24.1095 122.915 21.7579V15.6251H120.103V22.7493C120.103 25.4698 121.578 27.3143 124.276 27.3143Z" fill="#808080"/>
<path d="M136.072 27.0146V20.4668C136.072 18.6223 137.156 17.7462 138.493 17.7462C139.83 17.7462 140.706 18.5992 140.706 20.2131V27.0146H143.45V20.4898C143.45 18.6223 144.511 17.7462 145.848 17.7462C147.208 17.7462 148.084 18.5992 148.084 20.2131V27.0146H150.805V19.5676C150.805 16.9392 149.352 15.2792 146.586 15.2792C144.856 15.2792 143.496 16.1092 142.943 17.4465C142.32 16.1092 141.075 15.2792 139.185 15.2792C137.847 15.2792 136.649 15.9017 135.98 16.9162L135.842 15.6251H133.259V27.0146H136.072Z" fill="#808080"/>
<path d="M129.329 37.1931C129.748 37.1931 130.112 36.8403 130.112 36.4213C130.112 35.9912 129.748 35.6384 129.329 35.6384C128.899 35.6384 128.535 35.9912 128.535 36.4213C128.535 36.8403 128.899 37.1931 129.329 37.1931Z" fill="#808080"/>
<path d="M130.921 34.3483C130.921 36.0353 131.957 37.1711 133.468 37.1711C134.769 37.1711 135.761 36.3882 135.971 35.2194H134.979C134.791 35.8699 134.218 36.2559 133.534 36.2559C132.564 36.2559 131.946 35.506 131.946 34.3372C131.946 33.1464 132.597 32.4186 133.556 32.4186C134.218 32.4186 134.791 32.7714 134.967 33.4661H135.96C135.783 32.2863 134.857 31.4924 133.567 31.4924C132.001 31.4924 130.921 32.6502 130.921 34.3483Z" fill="#808080"/>
<path d="M136.362 34.3372C136.362 35.9581 137.465 37.1711 139.118 37.1711C140.772 37.1711 141.875 35.9581 141.875 34.3372C141.875 32.7163 140.772 31.5034 139.118 31.5034C137.465 31.5034 136.362 32.7163 136.362 34.3372ZM137.409 34.3372C137.409 33.2346 138.082 32.4296 139.118 32.4296C140.155 32.4296 140.828 33.2346 140.828 34.3372C140.828 35.4399 140.155 36.2448 139.118 36.2448C138.082 36.2448 137.409 35.4399 137.409 34.3372Z" fill="#808080"/>
<path d="M143.797 37.0498V33.8079C143.797 32.9589 144.326 32.4076 145.098 32.4076C145.837 32.4076 146.3 32.8817 146.3 33.7308V37.0498H147.314V33.819C147.314 32.9589 147.833 32.4076 148.615 32.4076C149.343 32.4076 149.806 32.8817 149.806 33.7308V37.0498H150.81V33.5102C150.81 32.2642 150.082 31.5034 148.847 31.5034C148.009 31.5034 147.358 31.9114 147.094 32.573C146.818 31.9114 146.212 31.5034 145.329 31.5034C144.657 31.5034 144.061 31.8121 143.764 32.3414L143.687 31.6578H142.76V37.0498H143.797Z" fill="#808080"/>
<path fill-rule="evenodd" clip-rule="evenodd" d="M0.5 21.4364L0.501935 21.2355L0.505924 21.0345L0.511979 20.8335L0.520089 20.6326L0.530273 20.4316L0.542512 20.2306L0.556827 20.0297L0.573197 19.8288L0.591641 19.628L0.612151 19.4272L0.634725 19.2268L0.659355 19.0263L0.686059 18.826L0.714828 18.6259L0.745653 18.426L0.778542 18.2264L0.813497 18.027L0.850496 17.8279L0.88956 17.629L0.930679 17.4304L0.973853 17.2321L1.01906 17.0343L1.06634 16.8368L1.11564 16.6396L1.16699 16.4429L1.22037 16.2466L1.27579 16.0507L1.33324 15.8553L1.39271 15.6605L1.4542 15.4661L1.51772 15.2722L1.58324 15.0789L1.65078 14.8861L1.7203 14.6939L1.79184 14.5024L1.86535 14.3114L1.94087 14.1211L2.01835 13.9315L2.09782 13.7426L2.17924 13.5544L2.26263 13.3668L2.34798 13.1801L2.43527 12.9941L2.52451 12.8089L2.61568 12.6244L2.70877 12.4409L2.80378 12.2581L2.9007 12.0762L2.99952 11.8953L3.10023 11.7151L3.20284 11.5359L3.30731 11.3577L3.41366 11.1803L3.52186 11.004L3.63192 10.8287L3.74381 10.6544L3.85753 10.4812L3.97308 10.3088L4.09043 10.1377L4.20959 9.96762L4.33053 9.79861L4.45325 9.63081L4.57774 9.464L4.70398 9.2985L4.83198 9.13411L4.96171 8.97085L5.09315 8.80886L5.22632 8.64809L5.36117 8.48857L5.49772 8.3303L5.63594 8.17331L5.77582 8.01762L5.91735 7.86324L6.06053 7.71019L6.20532 7.55848L6.35172 7.40814L6.49972 7.25917L6.6493 7.1116L6.80045 6.96543L6.95316 6.82069L7.10741 6.67741L7.26319 6.53556L7.42048 6.39521L7.57927 6.25633L7.73955 6.11895L7.90129 5.9831L8.06448 5.84879L8.22912 5.71602L8.39518 5.58481L8.56266 5.45518L8.73146 5.32715L8.90178 5.20071L9.07339 5.07591L9.24631 4.95275L9.42053 4.83122L9.59615 4.71136L9.77298 4.59317L9.95111 4.47668L10.1305 4.36188L10.3113 4.24881L10.4931 4.13746L10.6763 4.02784L10.8605 3.91999L11.0459 3.81391L11.2326 3.7096L11.4204 3.60708L11.6092 3.50636L11.7992 3.40746L11.9902 3.31037L12.1824 3.21513L12.3756 3.12174L12.5698 3.0302L12.765 2.94053L12.9613 2.85275L13.1584 2.76685L13.3566 2.68286L13.5557 2.60078L13.7557 2.52062L13.9566 2.44238L14.1584 2.36609L14.3609 2.29174L14.5644 2.21937L14.7687 2.14895L14.9738 2.0805L15.1796 2.01405L15.3862 1.94959L15.5936 1.88713L15.8017 1.82668L16.0104 1.76825L16.2199 1.71183L16.43 1.65745L16.6408 1.60512L16.8521 1.55484L17.0641 1.50659L17.2766 1.46042L17.4896 1.4163L17.7032 1.37426L17.9173 1.3343L18.1319 1.29642L18.3471 1.26064L18.5626 1.22694L18.7785 1.19535L18.9948 1.16587L19.2116 1.13849L19.4287 1.11323L19.6461 1.09007L19.8638 1.06906L20.0819 1.05017L20.3002 1.0334L20.5187 1.01877L21.6939 0.95166L21.761 6.61399L21.7994 6.61355L21.9617 6.61332L22.124 6.61469L22.2863 6.61764L22.4488 6.6222L22.6112 6.62836L22.7736 6.6361L22.9361 6.64545L23.0986 6.65641L23.261 6.66895L23.4235 6.6831L23.5858 6.69886L23.7481 6.71622L23.9102 6.73518L24.0723 6.75574L24.2342 6.7779L24.396 6.80166L24.5576 6.82703L24.719 6.85399L24.8802 6.88255L25.0413 6.91271L25.2021 6.94447L25.3626 6.97783L25.523 7.01278L25.683 7.04931L25.8427 7.08744L26.0021 7.12715L26.1612 7.16846L26.3199 7.21135L26.4783 7.25581L26.6364 7.30185L26.794 7.34947L26.9511 7.39866L27.1079 7.44942L27.2643 7.50175L27.4202 7.55563L27.5755 7.61107L27.7305 7.66806L27.8849 7.72661L28.0388 7.78669L28.1921 7.84833L28.3449 7.91151L28.4971 7.9762L28.6487 8.04243L28.7998 8.11018L28.9502 8.17945L29.0999 8.25022L29.2491 8.32251L29.3975 8.3963L29.5453 8.47158L29.6923 8.54834L29.8387 8.62659L29.9844 8.70632L30.1292 8.78752L30.2733 8.87018L30.4167 8.95429L30.5592 9.03988L30.701 9.12689L30.8419 9.2153L30.982 9.30522L31.1212 9.39644L31.2595 9.48916L31.3971 9.58329L31.5336 9.67872L31.6693 9.77565L31.804 9.87389L31.9378 9.97353L32.0707 10.0746L32.2025 10.1769L32.3334 10.2807L32.4632 10.3856L32.5921 10.492L32.72 10.5997L32.8468 10.7087L32.9726 10.819L33.0973 10.9305L33.2208 11.0434L33.3433 11.1576L33.4646 11.273L33.5849 11.3895L33.704 11.5074L33.822 11.6265L33.9388 11.7469L34.0545 11.8684L34.1688 11.9911L34.2821 12.115L34.3941 12.2401L34.5049 12.3663L34.6144 12.4937L34.7227 12.6222L34.8297 12.7518L34.9355 12.8827L35.04 13.0145L35.1431 13.1474L35.2449 13.2814L35.3455 13.4165L35.4446 13.5527L35.5425 13.6899L35.6389 13.8281L35.734 13.9673L35.8278 14.1075L35.9201 14.2487L36.011 14.391L36.1004 14.5341L36.1885 14.6782L36.2751 14.8232L36.3603 14.9692L36.444 15.116L36.5263 15.2638L36.6071 15.4125L36.6864 15.5619L36.7642 15.7123L36.8405 15.8634L36.9153 16.0154L36.9886 16.1683L37.0603 16.3218L37.1305 16.4762L37.1992 16.6314L37.2662 16.7873L37.3317 16.944L37.3956 17.1012L37.458 17.2593L37.5187 17.418L37.5779 17.5775L37.6354 17.7375L37.6913 17.8983L37.7457 18.0595L37.7984 18.2215L37.8494 18.384L37.8988 18.5471L37.9466 18.7108L37.9927 18.875L38.0371 19.0398L38.0799 19.2051L38.1209 19.3708L38.1604 19.5371L38.1981 19.7038L38.2341 19.871L38.2684 20.0385L38.301 20.2066L38.3319 20.375L38.3612 20.5438L38.3886 20.7129L38.4144 20.8825L38.4385 21.0524L38.4607 21.2225L38.4813 21.393L38.5001 21.5637L38.5171 21.7347L38.5325 21.9059L38.5461 22.0774L38.5579 22.2492L38.568 22.4211L38.5763 22.5931L38.5829 22.7654L38.5876 22.9377L38.5907 23.1102L38.5919 23.2828L38.5914 23.4556L38.5891 23.6284L38.585 23.8013L38.5792 23.9741L38.5716 24.147L38.5623 24.32L38.551 24.4929L38.5381 24.6658L38.5234 24.8386L38.5068 25.0114L38.4886 25.1841L38.4684 25.3567L38.4466 25.5292L38.423 25.7015L38.3976 25.8737L38.3704 26.0457L38.3414 26.2175L38.3106 26.3891L38.2782 26.5606L38.2439 26.7318L38.2078 26.9027L38.1699 27.0733L38.1303 27.2437L38.089 27.4137L38.0458 27.5834L38.0009 27.7527L37.9543 27.9217L37.9059 28.0904L37.8557 28.2586L37.8038 28.4265L37.7501 28.5938L37.6948 28.7608L37.6376 28.9272L37.5787 29.0932L37.5181 29.2587L37.4558 29.4236L37.3917 29.588L37.326 29.7519L37.2585 29.9152L37.1893 30.0778L37.1185 30.24L37.0459 30.4014L36.9716 30.5623L36.8956 30.7225L36.818 30.882L36.7386 31.0409L36.6578 31.199L36.5751 31.3564L36.4909 31.513L36.4048 31.669L36.3173 31.8241L36.2281 31.9784L36.1373 32.132L36.0449 32.2847L35.9508 32.4366L35.8551 32.5876L35.7579 32.7378L35.6591 32.887L35.5587 33.0354L35.4568 33.1828L35.3532 33.3294L35.2481 33.4749L35.1415 33.6196L35.0333 33.7632L34.9237 33.9059L34.8125 34.0474L34.6998 34.1881L34.5857 34.3276L34.47 34.466L34.3528 34.6035L34.2342 34.7398L34.1141 34.875L33.9926 35.0091L33.8697 35.1422L33.7454 35.274L33.6196 35.4047L33.4925 35.5341L33.3639 35.6624L33.234 35.7895L33.1028 35.9154L32.9702 36.0401L32.8362 36.1635L32.7009 36.2857L32.5643 36.4065L32.4264 36.5261L32.2872 36.6445L32.1468 36.7615L32.005 36.8771L31.8621 36.9914L31.7178 37.1044L31.5724 37.216L31.4257 37.3261L31.2779 37.435L31.1289 37.5425L30.9787 37.6484L30.8273 37.7531L30.6748 37.8562L30.5212 37.9579L30.3665 38.0581L30.2107 38.1569L30.0538 38.2542L29.8958 38.35L29.7368 38.4442L29.5767 38.5371L29.4157 38.6283L29.2535 38.7179L29.0905 38.8061L28.9264 38.8926L28.7614 38.9776L28.5954 39.0611L28.4285 39.1429L28.2607 39.2231L28.092 39.3018L27.9224 39.3788L27.752 39.4542L27.5807 39.5279L27.4085 39.5999L27.2356 39.6704L27.0619 39.7392L26.8874 39.8062L26.7121 39.8717L26.536 39.9353L26.3592 39.9974L26.1818 40.0576L26.0036 40.1163L25.8247 40.1731L25.6452 40.2282L25.465 40.2817L25.2843 40.3333L25.1029 40.3832L24.9209 40.4314L24.7383 40.4777L24.5552 40.5224L24.3716 40.5653L24.1874 40.6063L24.0027 40.6455L23.8176 40.683L23.6319 40.7187L23.4459 40.7526L23.2594 40.7846L23.0725 40.8149L22.8852 40.8433L22.6975 40.8699L22.5095 40.8946L22.3212 40.9176L22.1324 40.9387L21.9434 40.9579L21.7542 40.9753L21.5647 40.9909L21.375 41.0046L21.185 41.0164L20.9948 41.0265L20.8044 41.0346L20.6139 41.0408L20.4232 41.0452L20.2324 41.0477L20.0415 41.0484L19.8505 41.0472L19.6594 41.0441L19.4683 41.0392L19.2771 41.0323L19.086 41.0236L18.8948 41.013L18.7037 41.0005L18.5126 40.9862L18.3216 40.9699L18.1306 40.9518L17.9398 40.9318L17.7491 40.91L17.5586 40.8862L17.3681 40.8606L17.1779 40.833L16.9879 40.8036L16.7981 40.7724L16.6086 40.7393L16.4192 40.7042L16.2303 40.6673L16.0415 40.6286L15.8531 40.5879L15.665 40.5454L15.4773 40.5011L15.29 40.4549L15.103 40.4068L14.9165 40.3569L14.7304 40.3051L14.5448 40.2515L14.3595 40.1961L14.1749 40.1387L13.9908 40.0796L13.8071 40.0186L13.624 39.9558L13.4414 39.8911L13.2595 39.8248L13.0782 39.7565L12.8974 39.6864L12.7174 39.6146L12.5379 39.5409L12.3592 39.4654L12.1812 39.3882L12.0039 39.3092L11.8272 39.2284L11.6514 39.1458L11.4764 39.0615L11.3022 38.9754L11.1286 38.8876L10.956 38.7981L10.7843 38.7068L10.6133 38.6138L10.4433 38.5191L10.2742 38.4227L10.106 38.3245L9.93868 38.2247L9.77238 38.1233L9.60698 38.02L9.44258 37.9153L9.27929 37.8087L9.11689 37.7006L8.9556 37.5908L8.79542 37.4794L8.63623 37.3664L8.47816 37.2518L8.3212 37.1356L8.16537 37.0177L8.01068 36.8983L7.85715 36.7774L7.7048 36.6548L7.55364 36.5308L7.40369 36.4052L7.25496 36.2781L7.10747 36.1495L6.96125 36.0193L6.8163 35.8877L6.67265 35.7546L6.53028 35.62L6.38925 35.4841L6.24955 35.3466L6.1112 35.2077L5.97422 35.0675L5.83862 34.9257L5.70442 34.7827L5.57163 34.6383L5.44027 34.4924L5.31035 34.3452L5.18188 34.1968L5.05488 34.0469L4.92937 33.8959L4.80536 33.7434L4.68285 33.5897L4.56188 33.4347L4.44244 33.2786L4.32456 33.1211L4.20824 32.9624L4.0935 32.8025L3.98035 32.6414L3.86881 32.4792L3.75888 32.3158L3.65059 32.1512L3.54395 31.9856L3.43894 31.8188L3.33561 31.6509L3.23397 31.482L3.13401 31.3119L3.03576 31.1409L2.93922 30.9688L2.8444 30.7957L2.75132 30.6215L2.65998 30.4463L2.57042 30.2703L2.4826 30.0933L2.39659 29.9154L2.31235 29.7364L2.22991 29.5567L2.14929 29.376L2.07048 29.1945L1.9935 29.0121L1.91837 28.8289L1.84508 28.6449L1.77364 28.46L1.70409 28.2745L1.63639 28.0881L1.57058 27.9011L1.50666 27.7133L1.44464 27.5248L1.38453 27.3356L1.32633 27.1458L1.27007 26.9553L1.21573 26.7642L1.16332 26.5724L1.11286 26.3801L1.06435 26.1873L1.0178 25.9938L0.973222 25.7998L0.930609 25.6053L0.889971 25.4103L0.851318 25.2148L0.814649 25.0189L0.779976 24.8226L0.747307 24.6258L0.716633 24.4286L0.687974 24.231L0.661329 24.0331L0.63671 23.8348L0.614105 23.6362L0.593526 23.4373L0.574981 23.2382L0.558471 23.0388L0.543996 22.8391L0.531566 22.6392L0.521181 22.4391L0.512841 22.2388L0.506546 22.0384L0.502306 21.8379L0.50013 21.6372L0.5 21.4364ZM19.925 6.7326L19.8793 2.87309L19.8359 2.87728L19.6366 2.89849L19.4378 2.92162L19.2391 2.94672L19.0412 2.97369L18.8436 3.00262L18.6461 3.03348L18.4492 3.06624L18.2525 3.10096L18.0569 3.13748L17.8609 3.17604L17.6663 3.21634L17.4715 3.25867L17.2776 3.30279L17.0839 3.34889L16.8912 3.39674L16.6989 3.44652L16.5071 3.49816L16.316 3.55165L16.1257 3.60695L15.9357 3.66415L15.7468 3.72312L15.5583 3.78396L15.3709 3.8465L15.1837 3.911L14.9976 3.97723L14.8123 4.04522L14.6276 4.11505L14.4438 4.1866L14.2611 4.25986L14.0789 4.33501L13.8975 4.41187L13.7171 4.49048L13.5377 4.57074L13.3591 4.65275L13.1816 4.73641L13.0047 4.82192L12.8291 4.90899L12.6543 4.99775L12.4806 5.08819L12.3079 5.1803L12.1364 5.27399L11.9656 5.36941L11.7959 5.46649L11.6277 5.56494L11.4599 5.66533L11.2938 5.76704L11.1288 5.87034L10.9647 5.97533L10.8018 6.08186L10.6401 6.18994L10.4799 6.29929L10.3203 6.41058L10.1623 6.52307L10.0055 6.6371L9.84986 6.7527L9.69559 6.86967L9.54272 6.98805L9.39075 7.10809L9.24049 7.22927L9.09133 7.35205L8.94357 7.47615L8.79712 7.60171L8.65217 7.72846L8.50831 7.85682L8.36608 7.98633L8.22507 8.11732L8.0857 8.24942L7.94759 8.38295L7.81102 8.51769L7.67585 8.65376L7.54198 8.79123L7.40987 8.92964L7.27925 9.06925L7.14979 9.21049L7.02212 9.35263L6.89601 9.49578L6.7712 9.64043L6.64821 9.78598L6.52657 9.93283L6.40657 10.0807L6.28815 10.2297L6.17127 10.3798L6.05611 10.5309L5.94245 10.683L5.83036 10.8364L5.72008 10.9905L5.61126 11.1459L5.50419 11.302L5.39876 11.4592L5.29492 11.6174L5.19283 11.7765L5.09242 11.9364L4.99369 12.0973L4.89673 12.2589L4.80136 12.4216L4.7077 12.5852L4.61589 12.7494L4.52572 12.9145L4.43728 13.0805L4.35063 13.2472L4.26569 13.4147L4.18257 13.5828L4.10118 13.7517L4.02159 13.9214L3.94373 14.0918L3.86772 14.2627L3.79343 14.4344L3.72095 14.6067L3.65033 14.7795L3.58148 14.953L3.51442 15.1272L3.44922 15.3018L3.38581 15.477L3.32429 15.6526L3.26453 15.829L3.20663 16.0057L3.15059 16.1829L3.0964 16.3604L3.04401 16.5387L2.99352 16.7171L2.94487 16.896L2.89807 17.0753L2.85313 17.255L2.81006 17.4349L2.76887 17.6153L2.72953 17.7959L2.69207 17.9768L2.65648 18.158L2.62276 18.3394L2.59093 18.5211L2.56096 18.703L2.53289 18.885L2.50668 19.0673L2.48236 19.2497L2.45992 19.4323L2.43936 19.6149L2.42068 19.7977L2.40389 19.9806L2.38898 20.1634L2.37595 20.3465L2.3648 20.5295L2.35553 20.7124L2.34814 20.8955L2.34263 21.0784L2.339 21.2614L2.33723 21.4442L2.33735 21.6271L2.33934 21.8097L2.3432 21.9923L2.34892 22.1748L2.35651 22.357L2.36597 22.5392L2.37728 22.721L2.39045 22.9027L2.40548 23.0842L2.42236 23.2654L2.44107 23.4464L2.46164 23.6271L2.48405 23.8075L2.50829 23.9876L2.53436 24.1673L2.56227 24.3467L2.59198 24.5256L2.62352 24.7043L2.65687 24.8825L2.69203 25.0602L2.72899 25.2377L2.76774 25.4145L2.80829 25.5909L2.85062 25.7668L2.89473 25.9423L2.94062 26.1172L2.98825 26.2914L3.03767 26.4652L3.08884 26.6384L3.14174 26.8111L3.1964 26.9831L3.25276 27.1544L3.31086 27.3251L3.37069 27.4951L3.43222 27.6645L3.49543 27.8331L3.56038 28.0011L3.62697 28.1683L3.69524 28.3348L3.7652 28.5005L3.8368 28.6654L3.91007 28.8296L3.98497 28.993L4.0615 29.1555L4.13965 29.3172L4.21943 29.478L4.30079 29.638L4.38376 29.7971L4.46831 29.9552L4.55443 30.1125L4.64212 30.2688L4.73135 30.4242L4.82213 30.5787L4.91445 30.732L5.00825 30.8845L5.10362 31.036L5.20044 31.1863L5.29878 31.3358L5.39859 31.4841L5.49985 31.6314L5.60255 31.7776L5.70673 31.9228L5.81231 32.0668L5.91934 32.2098L6.02772 32.3515L6.13755 32.4922L6.2487 32.6316L6.36125 32.7699L6.47519 32.9072L6.5904 33.0431L6.70698 33.1778L6.82485 33.3114L6.94407 33.4437L7.06454 33.5747L7.18626 33.7045L7.30928 33.833L7.43353 33.9603L7.55905 34.0863L7.68576 34.2109L7.81371 34.3343L7.9428 34.4563L8.07308 34.5771L8.20457 34.6965L8.33718 34.8145L8.47086 34.9311L8.60576 35.0463L8.74179 35.1602L8.87872 35.2727L9.01695 35.3839L9.15609 35.4934L9.29633 35.6017L9.43757 35.7085L9.57991 35.8139L9.72316 35.9177L9.8674 36.0202L10.0126 36.1211L10.1588 36.2207L10.3059 36.3186L10.454 36.4151L10.6029 36.5102L10.7527 36.6036L10.9035 36.6956L11.055 36.786L11.2074 36.875L11.3606 36.9623L11.5147 37.0481L11.6695 37.1323L11.8251 37.215L11.9814 37.2961L12.1385 37.3757L12.2964 37.4535L12.4549 37.5299L12.6141 37.6047L12.774 37.6779L12.9345 37.7494L13.0958 37.8193L13.2576 37.8876L13.4201 37.9544L13.5831 38.0194L13.7467 38.0828L13.9109 38.1446L14.0755 38.2048L14.2407 38.2632L14.4065 38.32L14.5727 38.3753L14.7394 38.4288L14.9064 38.4806L15.0741 38.5308L15.242 38.5794L15.4104 38.6262L15.5792 38.6714L15.7483 38.7149L15.9178 38.7567L16.0875 38.7968L16.2577 38.8353L16.4281 38.872L16.5987 38.9071L16.7698 38.9404L16.941 38.9721L17.1124 39.0021L17.284 39.0303L17.4558 39.0569L17.6278 39.0818L17.8 39.1049L17.9723 39.1265L18.1447 39.1462L18.3172 39.1643L18.4898 39.1807L18.6625 39.1954L18.8352 39.2084L19.008 39.2196L19.1808 39.2292L19.3535 39.237L19.5262 39.2433L19.6989 39.2478L19.8716 39.2505L20.0442 39.2516L20.2167 39.251L20.3891 39.2487L20.5613 39.2448L20.7334 39.2391L20.9054 39.2317L21.0773 39.2227L21.2488 39.212L21.4202 39.1997L21.5914 39.1856L21.7623 39.1699L21.9329 39.1524L22.1033 39.1334L22.2733 39.1128L22.4432 39.0904L22.6126 39.0663L22.7817 39.0407L22.9504 39.0134L23.1188 38.9844L23.2868 38.9539L23.4543 38.9217L23.6214 38.8879L23.7881 38.8524L23.9543 38.8154L24.12 38.7767L24.2853 38.7364L24.45 38.6946L24.6142 38.6511L24.7778 38.6061L24.941 38.5595L25.1035 38.5113L25.2655 38.4616L25.4268 38.4104L25.5875 38.3574L25.7476 38.3031L25.9069 38.2472L26.0658 38.1896L26.2239 38.1307L26.3813 38.0701L26.5379 38.0082L26.6938 37.9447L26.849 37.8797L27.0035 37.8132L27.1571 37.7452L27.3099 37.6759L27.4621 37.605L27.6133 37.5326L27.7637 37.459L27.9134 37.3837L28.062 37.3071L28.2099 37.2291L28.3569 37.1496L28.5029 37.0688L28.648 36.9866L28.7922 36.9031L28.9356 36.8181L29.0778 36.7319L29.2193 36.6442L29.3595 36.5553L29.4989 36.465L29.6373 36.3733L29.7747 36.2803L29.9109 36.1863L30.0461 36.0908L30.1803 35.994L30.3134 35.8961L30.4456 35.7967L30.5764 35.6964L30.7064 35.5946L30.835 35.4917L30.9625 35.3877L31.0891 35.2823L31.2144 35.1757L31.3384 35.0682L31.4614 34.9593L31.5831 34.8495L31.7037 34.7384L31.8231 34.6262L31.9411 34.5131L32.0581 34.3986L32.1737 34.2831L32.2881 34.1666L32.4013 34.049L32.5131 33.9305L32.6235 33.8111L32.733 33.6902L32.8408 33.5687L32.9476 33.446L33.0529 33.3225L33.1569 33.1979L33.2596 33.0725L33.3608 32.9461L33.4608 32.8187L33.5594 32.6906L33.6567 32.5613L33.7524 32.4314L33.847 32.3005L33.9402 32.1687L34.0316 32.0364L34.1219 31.9029L34.2106 31.7689L34.2981 31.6339L34.3842 31.4981L34.4686 31.3617L34.5516 31.2246L34.6333 31.0864L34.7133 30.9479L34.792 30.8085L34.8692 30.6684L34.9448 30.5278L35.0191 30.3863L35.0919 30.2441L35.1629 30.1019L35.2327 29.9585L35.301 29.8145L35.3676 29.6702L35.4328 29.5252L35.4965 29.3797L35.5585 29.2337L35.6191 29.087L35.6782 28.9398L35.7356 28.7925L35.7916 28.6442L35.8459 28.4958L35.8988 28.3468L35.9501 28.1974L35.9999 28.0475L36.0479 27.8977L36.0946 27.7467L36.1395 27.596L36.1829 27.4447L36.2248 27.2932L36.2651 27.1412L36.3037 26.9891L36.3409 26.8365L36.3764 26.6837L36.4104 26.5307L36.4427 26.3773L36.4734 26.224L36.5026 26.0701L36.5301 25.9165L36.5561 25.7623L36.5805 25.6081L36.6032 25.4538L36.6245 25.2992L36.644 25.1448L36.6621 24.9898L36.6784 24.8353L36.6932 24.6803L36.7064 24.5256L36.718 24.3705L36.728 24.2159L36.7364 24.0608L36.7433 23.9057L36.7485 23.7509L36.7522 23.5964L36.7542 23.4413L36.7547 23.2866L36.7536 23.132L36.7509 22.9775L36.7466 22.823L36.7407 22.6692L36.7332 22.5147L36.7242 22.3609L36.7136 22.2072L36.7015 22.0539L36.6877 21.9003L36.6725 21.7474L36.6557 21.5945L36.6372 21.442L36.6173 21.2896L36.5958 21.1378L36.5726 20.9858L36.5481 20.8345L36.522 20.6838L36.4944 20.5329L36.4651 20.3826L36.4344 20.2328L36.4021 20.0829L36.3686 19.9342L36.3332 19.7852L36.2966 19.6373L36.2582 19.4891L36.2185 19.342L36.1773 19.1952L36.1346 19.0486L36.0905 18.903L36.0449 18.7578L35.9977 18.6128L35.9492 18.4688L35.8991 18.325L35.8478 18.182L35.7949 18.0394L35.7406 17.8978L35.6848 17.7563L35.6277 17.6157L35.5692 17.4759L35.5094 17.3368L35.4478 17.1979L35.3854 17.0602L35.3211 16.9227L35.2558 16.7865L35.189 16.6507L35.1207 16.5155L35.0514 16.3814L34.9805 16.2479L34.9082 16.115L34.8351 15.9833L34.7602 15.852L34.6842 15.7218L34.6067 15.5922L34.5283 15.4639L34.4482 15.3359L34.3672 15.2091L34.2847 15.0829L34.2011 14.9578L34.1164 14.8338L34.0302 14.7103L33.9429 14.5879L33.8545 14.4664L33.7648 14.346L33.674 14.2263L33.5819 14.1078L33.4888 13.9901L33.3945 13.8735L33.299 13.758L33.2024 13.6433L33.1047 13.5297L33.0059 13.4171L32.9062 13.3057L32.8053 13.1952L32.703 13.0856L32.6003 12.9776L32.4958 12.8701L32.3909 12.7642L32.2847 12.659L32.1776 12.5552L32.0692 12.4521L31.9603 12.3507L31.8501 12.25L31.7389 12.1506L31.6271 12.0524L31.5142 11.9554L31.4001 11.8593L31.2853 11.7646L31.1697 11.671L31.0531 11.5787L30.9356 11.4875L30.8176 11.3978L30.6982 11.3088L30.5784 11.2214L30.4576 11.1352L30.3359 11.0501L30.2137 10.9664L30.0902 10.8837L29.9667 10.8027L29.8418 10.7226L29.7165 10.6439L29.5902 10.5665L29.4634 10.4903L29.3359 10.4155L29.2079 10.3421L29.0787 10.2696L28.9495 10.1989L28.8191 10.1292L28.6883 10.0609L28.557 9.99408L28.4249 9.92842L28.2923 9.86407L28.1591 9.80122L28.0253 9.73957L27.8912 9.67942L27.7564 9.62048L27.6167 9.56114L27.4854 9.50691L27.3488 9.45197L27.2124 9.39874L27.0748 9.34652L26.9373 9.296L26.7992 9.24668L26.6607 9.19886L26.5217 9.15225L26.3826 9.10724L26.2428 9.06354L26.1028 9.02123L25.9626 8.98044L25.8219 8.9409L25.6807 8.90273L25.5396 8.86611L25.3983 8.83088L25.256 8.79695L25.1143 8.76458L24.9719 8.73351L24.8294 8.70394L24.6865 8.67571L24.5437 8.64896L24.4006 8.6236L24.2575 8.59972L24.1138 8.57716L23.9704 8.5561L23.8268 8.53643L23.6829 8.51818L23.5391 8.50136L23.3953 8.48598L23.2513 8.47201L23.1073 8.45946L22.9631 8.44832L22.8189 8.4386L22.675 8.43032L22.5311 8.42345L22.3866 8.41799L22.243 8.41396L22.099 8.41133L21.9552 8.41013L21.8111 8.41033L21.7823 8.41066L21.8277 12.2421L21.9094 12.2417L22.0145 12.2423L22.1197 12.2439L22.2249 12.2466L22.3303 12.2503L22.4356 12.2551L22.541 12.261L22.6464 12.2678L22.7519 12.2757L22.8574 12.2846L22.9628 12.2946L23.0682 12.3057L23.1736 12.3178L23.279 12.3309L23.3842 12.3451L23.4895 12.3604L23.5946 12.3766L23.6997 12.394L23.8047 12.4124L23.9096 12.4319L24.0143 12.4524L24.119 12.474L24.2235 12.4965L24.3279 12.5202L24.4321 12.5449L24.5361 12.5707L24.6399 12.5975L24.7435 12.6253L24.847 12.6542L24.9502 12.6842L25.0533 12.7151L25.156 12.7471L25.2584 12.7802L25.3607 12.8143L25.4627 12.8495L25.5644 12.8857L25.6658 12.9228L25.7669 12.961L25.8677 13.0003L25.9682 13.0406L26.0683 13.0819L26.168 13.1243L26.2675 13.1676L26.3665 13.212L26.4652 13.2574L26.5634 13.3038L26.6613 13.3512L26.7588 13.3996L26.8558 13.449L26.9524 13.4994L27.0486 13.5508L27.1443 13.6032L27.2395 13.6565L27.3343 13.7109L27.4286 13.7662L27.5224 13.8225L27.6156 13.8798L27.7084 13.938L27.8006 13.9972L27.8923 14.0574L27.9834 14.1184L28.074 14.1805L28.1641 14.2435L28.2535 14.3074L28.3423 14.3722L28.4305 14.4381L28.5182 14.5048L28.6051 14.5724L28.6915 14.641L28.7772 14.7104L28.8623 14.7807L28.9467 14.852L29.0306 14.9241L29.1136 14.9971L29.196 15.0709L29.2777 15.1457L29.3586 15.2213L29.4389 15.2978L29.5184 15.3751L29.5972 15.4533L29.6753 15.5322L29.7526 15.6121L29.8292 15.6927L29.9049 15.7742L29.9798 15.8565L30.054 15.9396L30.1274 16.0234L30.2 16.1081L30.2717 16.1935L30.3427 16.2797L30.4128 16.3668L30.4821 16.4545L30.5504 16.543L30.618 16.6322L30.6846 16.7222L30.7504 16.8128L30.8154 16.9043L30.8793 16.9964L30.9425 17.0892L31.0046 17.1827L31.0659 17.2769L31.1262 17.3718L31.1856 17.4673L31.2442 17.5634L31.3017 17.6603L31.3583 17.7578L31.4139 17.8559L31.4685 17.9546L31.5222 18.0539L31.5749 18.1539L31.6266 18.2544L31.6772 18.3556L31.727 18.4573L31.7757 18.5595L31.8233 18.6623L31.8699 18.7657L31.9155 18.8696L31.9601 18.9741L32.0036 19.079L32.0461 19.1845L32.0875 19.2904L32.1278 19.3968L32.1671 19.5037L32.2053 19.6111L32.2425 19.7189L32.2786 19.8272L32.3135 19.936L32.3474 20.045L32.3801 20.1546L32.4118 20.2646L32.4424 20.3749L32.4718 20.4857L32.5001 20.5968L32.5273 20.7082L32.5534 20.82L32.5783 20.9322L32.6021 21.0446L32.6247 21.1574L32.6462 21.2705L32.6665 21.384L32.6858 21.4976L32.7038 21.6115L32.7207 21.7258L32.7364 21.8402L32.7509 21.9548L32.7644 22.0698L32.7765 22.185L32.7875 22.3003L32.7974 22.4159L32.8061 22.5315L32.8136 22.6474L32.8198 22.7634L32.8249 22.8796L32.8288 22.996L32.8315 23.1123L32.833 23.2289L32.8333 23.3456L32.8324 23.4623L32.8303 23.5791L32.827 23.6959L32.8225 23.8129L32.8168 23.9298L32.8099 24.0468L32.8018 24.1639L32.7924 24.2809L32.7818 24.3978L32.7701 24.5148L32.757 24.6317L32.7429 24.7487L32.7275 24.8655L32.7108 24.9823L32.693 25.0989L32.6739 25.2155L32.6537 25.332L32.6321 25.4484L32.6095 25.5647L32.5855 25.6807L32.5604 25.7967L32.5341 25.9125L32.5065 26.0281L32.4778 26.1435L32.4478 26.2587L32.4166 26.3737L32.3842 26.4885L32.3507 26.603L32.3159 26.7172L32.2799 26.8313L32.2426 26.9451L32.2042 27.0585L32.1646 27.1716L32.1239 27.2845L32.0819 27.397L32.0387 27.5091L31.9944 27.621L31.9489 27.7325L31.9022 27.8437L31.8543 27.9543L31.8052 28.0647L31.755 28.1747L31.7036 28.2841L31.6511 28.3932L31.5973 28.5018L31.5424 28.61L31.4864 28.7178L31.4292 28.8249L31.3709 28.9317L31.3115 29.0379L31.2509 29.1437L31.1892 29.2488L31.1263 29.3536L31.0624 29.4576L30.9973 29.5613L30.931 29.6642L30.8638 29.7667L30.7953 29.8684L30.7258 29.9697L30.6553 30.0703L30.5836 30.1703L30.5108 30.2696L30.437 30.3683L30.3622 30.4664L30.2862 30.5637L30.2092 30.6604L30.1311 30.7564L30.052 30.8516L29.9719 30.9462L29.8907 31.0401L29.8085 31.1332L29.7253 31.2255L29.6411 31.3171L29.5559 31.408L29.4698 31.4981L29.3826 31.5873L29.2945 31.6758L29.2053 31.7634L29.1153 31.8503L29.0241 31.9363L28.9322 32.0214L28.8393 32.1058L28.7454 32.1892L28.6506 32.2718L28.5549 32.3536L28.4584 32.4344L28.3608 32.5144L28.2625 32.5934L28.1632 32.6715L28.063 32.7487L27.9621 32.825L27.8602 32.9003L27.7575 32.9746L27.654 33.0481L27.5497 33.1205L27.4445 33.192L27.3385 33.2624L27.2317 33.3319L27.1241 33.4004L27.0159 33.4678L26.9067 33.5342L26.797 33.5996L26.6863 33.664L26.575 33.7273L26.463 33.7895L26.3502 33.8507L26.2367 33.9109L26.1225 33.9699L26.0077 34.0279L25.8922 34.0847L25.776 34.1405L25.6591 34.1952L25.5416 34.2487L25.4235 34.3011L25.3049 34.3525L25.1855 34.4026L25.0656 34.4516L24.9451 34.4995L24.824 34.5462L24.7024 34.5918L24.5802 34.6362L24.4575 34.6795L24.3342 34.7215L24.2105 34.7623L24.0862 34.8019L23.9615 34.8404L23.8363 34.8777L23.7106 34.9137L23.5845 34.9486L23.4579 34.9822L23.3309 35.0146L23.2035 35.0457L23.0757 35.0757L22.9474 35.1044L22.8189 35.1318L22.6898 35.158L22.5605 35.183L22.4309 35.2067L22.3009 35.2292L22.1706 35.2503L22.0401 35.2702L21.9092 35.2888L21.7779 35.3062L21.6465 35.3223L21.5149 35.337L21.383 35.3506L21.2509 35.3628L21.1186 35.3737L20.986 35.3833L20.8533 35.3917L20.7204 35.3987L20.5874 35.4044L20.4542 35.4088L20.3208 35.4119L20.1874 35.4137L20.0538 35.4142L19.9202 35.4134L19.7865 35.4112L19.6527 35.4078L19.5189 35.403L19.3851 35.3969L19.2512 35.3895L19.1173 35.3807L18.9834 35.3707L18.8496 35.3593L18.7158 35.3466L18.5819 35.3325L18.4482 35.3172L18.3146 35.3005L18.181 35.2825L18.0475 35.2632L17.9142 35.2425L17.781 35.2206L17.6479 35.1972L17.515 35.1726L17.3822 35.1467L17.2497 35.1193L17.1173 35.0907L16.9852 35.0609L16.8533 35.0296L16.7215 34.997L16.5901 34.9631L16.4589 34.9279L16.328 34.8915L16.1975 34.8537L16.0672 34.8146L15.9372 34.7742L15.8075 34.7324L15.6783 34.6894L15.5493 34.6451L15.4208 34.5995L15.2927 34.5525L15.1649 34.5043L15.0376 34.4548L14.9107 34.4041L14.7842 34.352L14.6582 34.2986L14.5327 34.2441L14.4077 34.1882L14.2831 34.131L14.1591 34.0727L14.0356 34.013L13.9126 33.9521L13.7901 33.8899L13.6683 33.8266L13.547 33.7619L13.4263 33.6961L13.3062 33.629L13.1867 33.5606L13.0678 33.4912L12.9496 33.4204L12.8321 33.3484L12.7152 33.2754L12.599 33.201L12.4835 33.1255L12.3687 33.0487L12.2547 32.9708L12.1413 32.8918L12.0287 32.8116L11.9169 32.7302L11.8058 32.6477L11.6954 32.564L11.586 32.4792L11.4773 32.3933L11.3694 32.3062L11.2624 32.2181L11.1561 32.1288L11.0508 32.0385L10.9463 31.947L10.8427 31.8544L10.7399 31.7608L10.6382 31.6662L10.5372 31.5704L10.4372 31.4736L10.3381 31.3758L10.2401 31.2769L10.143 31.177L10.0467 31.0762L9.95151 30.9742L9.85738 30.8714L9.76416 30.7674L9.67193 30.6626L9.58081 30.5567L9.4906 30.4499L9.40158 30.3422L9.31347 30.2334L9.22656 30.1239L9.14065 30.0133L9.05585 29.9018L8.97215 29.7894L8.88944 29.6763L8.80795 29.5621L8.72765 29.4471L8.64836 29.3312L8.57028 29.2146L8.49335 29.0971L8.41758 28.9787L8.34297 28.8595L8.26955 28.7395L8.19731 28.6187L8.12628 28.4972L8.05646 28.3748L7.98784 28.2518L7.92046 28.1279L7.85431 28.0034L7.78939 27.8781L7.72573 27.7521L7.66333 27.6254L7.60219 27.498L7.54232 27.37L7.48374 27.2412L7.42644 27.1119L7.37045 26.9819L7.31576 26.8512L7.26237 26.7199L7.21031 26.5881L7.15957 26.4556L7.11016 26.3226L7.06209 26.1891L7.01536 26.0548L6.96999 25.9202L6.92598 25.785L6.88332 25.6493L6.84204 25.5131L6.80214 25.3764L6.76362 25.2393L6.72648 25.1016L6.69074 24.9635L6.6564 24.8251L6.62345 24.6861L6.59192 24.5468L6.5618 24.4071L6.5331 24.267L6.50582 24.1266L6.47997 23.9857L6.45555 23.8446L6.43258 23.7032L6.41103 23.5614L6.39094 23.4194L6.37229 23.277L6.3551 23.1344L6.33936 22.9915L6.32508 22.8485L6.31226 22.7052L6.30091 22.5616L6.29102 22.418L6.2826 22.274L6.27567 22.13L6.2702 21.9858L6.26622 21.8415L6.26372 21.697L6.2627 21.5524L6.26317 21.4077L6.26511 21.263L6.26856 21.1182L6.27348 20.9734L6.27991 20.8284L6.28783 20.6836L6.29723 20.5386L6.30814 20.3938L6.32053 20.2488L6.33442 20.1041L6.34982 19.9592L6.3667 19.8146L6.38508 19.6699L6.40496 19.5254L6.42633 19.3809L6.44921 19.2367L6.47357 19.0925L6.49943 18.9486L6.52678 18.8047L6.55563 18.6611L6.58597 18.5177L6.6178 18.3745L6.65112 18.2316L6.68593 18.0888L6.72222 17.9464L6.76 17.8042L6.79925 17.6623L6.83999 17.5207L6.88221 17.3795L6.9259 17.2386L6.97107 17.0979L7.0177 16.9578L7.06579 16.8179L7.11536 16.6785L7.16639 16.5395L7.21886 16.4008L7.27279 16.2627L7.32818 16.125L7.385 15.9877L7.44328 15.851L7.50298 15.7147L7.56413 15.579L7.62669 15.4437L7.69068 15.309L7.75609 15.1749L7.82292 15.0414L7.89116 14.9083L7.96079 14.776L8.03183 14.6442L8.10426 14.5131L8.17808 14.3826L8.25327 14.2527L8.32984 14.1235L8.40779 13.995L8.48709 13.8672L8.56777 13.7401L8.64977 13.6137L8.73317 13.4881L8.81777 13.3632L8.90388 13.2391L8.99119 13.1157L9.0798 12.9931L9.16982 12.8714L9.26104 12.7504L9.35367 12.6303L9.44749 12.5111L9.54262 12.3927L9.63895 12.2752L9.73659 12.1585L9.83553 12.0427L9.93567 11.9278L10.037 11.814L10.1397 11.701L10.2434 11.5889L10.3485 11.4779L10.4547 11.3677L10.5621 11.2586L10.6706 11.1505L10.7804 11.0433L10.8914 10.9373L11.0034 10.8321L11.1166 10.7282L11.231 10.6251L11.3465 10.5233L11.463 10.4224L11.5806 10.3227L11.6994 10.224L11.8192 10.1265L11.9401 10.0301L12.0621 9.93484L12.1851 9.84071L12.3091 9.74779L12.4342 9.65596L12.5602 9.56535L12.6872 9.47593L12.8153 9.38772L12.9443 9.30071L13.0742 9.215L13.2053 9.1304L13.3371 9.0471L13.4699 8.96504L13.6036 8.88423L13.7382 8.8047L13.8737 8.72645L14.0101 8.64949L14.1473 8.57381L14.2854 8.49946L14.4243 8.42643L14.564 8.35471L14.7046 8.28433L14.8459 8.2153L14.9881 8.14761L15.131 8.08129L15.2747 8.01634L15.4191 7.95275L15.5643 7.89056L15.7101 7.82977L15.8567 7.77036L16.0038 7.71237L16.1518 7.6558L16.3003 7.60065L16.4496 7.54693L16.5995 7.49464L16.7499 7.4438L16.901 7.39441L17.0525 7.34648L17.2048 7.30001L17.3576 7.25501L17.511 7.2115L17.6647 7.16946L17.8191 7.12891L17.974 7.08985L18.1293 7.0523L18.2851 7.01626L18.4414 6.98172L18.5981 6.9487L18.7552 6.91721L18.9127 6.88724L19.0706 6.85881L19.2289 6.8319L19.3876 6.80654L19.5466 6.78272L19.7058 6.76046L19.8654 6.73974L19.925 6.7326ZM19.9923 12.4154L19.9464 8.54187L19.8156 8.56015L19.675 8.58123L19.5342 8.60372L19.3944 8.62748L19.2544 8.6527L19.115 8.67922L18.976 8.7071L18.8375 8.73628L18.6992 8.76684L18.5613 8.79876L18.4238 8.83199L18.2868 8.86653L18.15 8.90246L18.0186 8.93833L17.8785 8.97813L17.7433 9.01793L17.6087 9.05902L17.4748 9.10133L17.3411 9.14503L17.208 9.19004L17.0755 9.23625L16.9437 9.28367L16.8124 9.33249L16.6816 9.38241L16.5514 9.43373L16.4222 9.48616L16.293 9.53999L16.1648 9.59492L16.0372 9.65105L15.9105 9.70839L15.7841 9.76703L15.6584 9.82688L15.5338 9.88772L15.4094 9.94997L15.2863 10.0132L15.1634 10.0779L15.0417 10.1433L14.9202 10.2104L14.7999 10.2782L14.6804 10.3472L14.5615 10.4175L14.4435 10.4888L14.3262 10.5613L14.21 10.6347L14.0943 10.7094L13.9797 10.7851L13.866 10.8618L13.753 10.9397L13.6407 11.0187L13.5297 11.0983L13.4194 11.1794L13.3099 11.2614L13.2015 11.3444L13.094 11.4283L12.9872 11.5134L12.8817 11.5994L12.777 11.6863L12.6732 11.7744L12.5706 11.8631L12.4688 11.953L12.3679 12.0438L12.2682 12.1354L12.1696 12.228L12.0716 12.3216L11.9751 12.4158L11.8795 12.5111L11.7847 12.6073L11.6912 12.7042L11.5987 12.8022L11.5073 12.9008L11.4169 13.0002L11.3276 13.1006L11.2393 13.2018L11.1525 13.3036L11.0665 13.4063L10.9816 13.5099L10.8979 13.614L10.8154 13.7189L10.7338 13.8247L10.6535 13.9311L10.5743 14.0382L10.4963 14.1461L10.4194 14.2547L10.3439 14.3637L10.2694 14.4736L10.196 14.5842L10.1238 14.6953L10.053 14.807L9.98328 14.9194L9.91472 15.0325L9.84736 15.146L9.7813 15.2602L9.71634 15.375L9.65279 15.49L9.59034 15.6059L9.52899 15.7224L9.46914 15.8391L9.4104 15.9566L9.35296 16.0745L9.29673 16.1926L9.2418 16.3115L9.18807 16.4307L9.13564 16.5504L9.08442 16.6705L9.0346 16.791L8.98598 16.9119L8.93856 17.0333L8.89245 17.155L8.84774 17.277L8.80414 17.3995L8.76204 17.522L8.72104 17.6451L8.68144 17.7685L8.64305 17.8922L8.60606 18.0161L8.57028 18.1403L8.53589 18.2647L8.50272 18.3895L8.47088 18.5144L8.44036 18.6396L8.41115 18.765L8.38323 18.8905L8.35662 19.0164L8.33135 19.1423L8.30736 19.2683L8.28469 19.3946L8.26334 19.5209L8.24329 19.6474L8.22457 19.7738L8.20714 19.9005L8.19104 20.0272L8.17624 20.154L8.16276 20.2808L8.15059 20.4077L8.13974 20.5346L8.13019 20.6614L8.12195 20.7884L8.11502 20.9153L8.10939 21.0421L8.10508 21.1689L8.10207 21.2957L8.10036 21.4224L8.09995 21.5491L8.10084 21.6756L8.10304 21.802L8.10653 21.9283L8.1113 22.0544L8.11737 22.1805L8.12473 22.3064L8.13337 22.432L8.1433 22.5576L8.15451 22.6829L8.167 22.808L8.18076 22.9329L8.19579 23.0576L8.2121 23.1821L8.22966 23.3062L8.2485 23.4302L8.26858 23.5537L8.28992 23.6771L8.31251 23.8002L8.33634 23.9228L8.36142 24.0453L8.38772 24.1673L8.41528 24.2891L8.44403 24.4103L8.47404 24.5313L8.50526 24.6519L8.5377 24.772L8.57128 24.8917L8.60616 25.0111L8.64215 25.13L8.67944 25.2485L8.71783 25.3666L8.75743 25.4841L8.79823 25.601L8.84013 25.7176L8.88323 25.8337L8.92754 25.9493L8.97295 26.0643L9.01946 26.1787L9.06717 26.2927L9.11599 26.4061L9.16601 26.5189L9.21704 26.6311L9.26926 26.7427L9.32259 26.8538L9.37692 26.9642L9.43246 27.074L9.48899 27.1833L9.54663 27.2918L9.60537 27.3997L9.66512 27.5069L9.72596 27.6135L9.78781 27.7194L9.85077 27.8245L9.91472 27.9291L9.97968 28.0328L10.0456 28.1359L10.1127 28.2383L10.1806 28.3398L10.2496 28.4407L10.3195 28.5407L10.3905 28.6401L10.4623 28.7386L10.5352 28.8363L10.609 28.9333L10.6838 29.0295L10.7594 29.1248L10.8359 29.2194L10.9134 29.3131L10.9918 29.406L11.0711 29.4979L11.1513 29.5893L11.2323 29.6795L11.3142 29.769L11.3969 29.8575L11.4805 29.9452L11.5649 30.032L11.6502 30.1179L11.7362 30.2029L11.8231 30.2871L11.9108 30.3703L11.9991 30.4524L12.0885 30.5338L12.1784 30.6141L12.2691 30.6935L12.3606 30.772L12.4528 30.8495L12.5458 30.9261L12.6394 31.0016L12.7337 31.0762L12.8288 31.1497L12.9245 31.2224L13.0209 31.294L13.1178 31.3646L13.2155 31.4341L13.3138 31.5027L13.4128 31.5702L13.5124 31.6368L13.6125 31.7023L13.7133 31.7667L13.8146 31.8302L13.9165 31.8925L14.0189 31.9539L14.122 32.0141L14.2254 32.0733L14.3296 32.1314L14.434 32.1884L14.5392 32.2445L14.6447 32.2994L14.7507 32.3531L14.8572 32.406L14.9643 32.4576L15.0717 32.5082L15.1794 32.5576L15.2878 32.606L15.3963 32.6533L15.5054 32.6994L15.6149 32.7445L15.7247 32.7884L15.8348 32.8312L15.9454 32.8729L16.0562 32.9135L16.1674 32.953L16.2789 32.9913L16.3907 33.0286L16.5028 33.0646L16.6152 33.0995L16.7279 33.1333L16.8407 33.166L16.9538 33.1976L17.0672 33.2279L17.1808 33.2573L17.2945 33.2854L17.4085 33.3124L17.5227 33.3382L17.6371 33.363L17.7515 33.3865L17.8661 33.4089L17.981 33.4301L18.0958 33.4503L18.2108 33.4693L18.3259 33.4871L18.4411 33.5038L18.5564 33.5194L18.6717 33.5338L18.787 33.547L18.9024 33.5591L19.0179 33.5701L19.1334 33.5799L19.2488 33.5885L19.3643 33.5961L19.4797 33.6025L19.5951 33.6078L19.7106 33.6119L19.8258 33.6149L19.941 33.6167L20.0562 33.6174L20.1713 33.617L20.2862 33.6154L20.4011 33.6128L20.5158 33.609L20.6305 33.6041L20.7449 33.5979L20.8591 33.5908L20.9732 33.5825L21.0872 33.5731L21.2009 33.5626L21.3144 33.5509L21.4278 33.5382L21.5409 33.5244L21.6537 33.5094L21.7663 33.4935L21.8787 33.4763L21.9908 33.4581L22.1024 33.4389L22.214 33.4184L22.3252 33.397L22.436 33.3745L22.5467 33.3508L22.6568 33.3262L22.7666 33.3005L22.8761 33.2737L22.9853 33.2459L23.094 33.217L23.2024 33.187L23.3103 33.1561L23.4179 33.1241L23.525 33.0911L23.6316 33.057L23.738 33.0219L23.8437 32.9859L23.9491 32.9488L24.0539 32.9107L24.1583 32.8716L24.2621 32.8315L24.3655 32.7904L24.4684 32.7483L24.5708 32.7053L24.6725 32.6613L24.7739 32.6164L24.8745 32.5705L24.9748 32.5235L25.0744 32.4757L25.1732 32.4271L25.2719 32.3773L25.3696 32.3268L25.4669 32.2751L25.5634 32.2228L25.6594 32.1695L25.7548 32.1153L25.8495 32.0601L25.9436 32.0041L26.037 31.9473L26.1296 31.8895L26.2219 31.8309L26.3131 31.7715L26.4038 31.7112L26.4939 31.6499L26.5831 31.588L26.6716 31.5253L26.7596 31.4616L26.8466 31.3973L26.933 31.3321L27.0187 31.266L27.1033 31.1994L27.1876 31.1317L27.271 31.0633L27.3533 30.9944L27.4353 30.9243L27.5162 30.8538L27.5963 30.7826L27.6759 30.7104L27.7543 30.6378L27.8321 30.5643L27.909 30.4901L27.985 30.4154L28.0603 30.3398L28.1348 30.2636L28.2084 30.1867L28.2809 30.1092L28.3528 30.031L28.4239 29.9522L28.4939 29.873L28.5632 29.7928L28.6315 29.7122L28.6988 29.631L28.7655 29.549L28.8311 29.4668L28.8958 29.3837L28.9597 29.3002L29.0226 29.216L29.0846 29.1314L29.1455 29.0464L29.2058 28.9604L29.2649 28.8743L29.3232 28.7876L29.3806 28.7003L29.4367 28.6128L29.4923 28.5246L29.5467 28.4359L29.6002 28.3469L29.6527 28.2574L29.7044 28.1672L29.7548 28.0771L29.8045 27.9861L29.8531 27.895L29.9006 27.8035L29.9475 27.7112L29.993 27.6192L30.0378 27.5262L30.0813 27.4335L30.1242 27.3397L30.1657 27.2462L30.2065 27.1519L30.2462 27.0577L30.2848 26.963L30.3225 26.868L30.3592 26.7727L30.3946 26.6773L30.4294 26.5814L30.4629 26.4854L30.4955 26.3891L30.5271 26.2926L30.5576 26.1958L30.5872 26.0988L30.6157 26.0018L30.6431 25.9044L30.6695 25.8069L30.695 25.7092L30.7193 25.6114L30.7427 25.5135L30.765 25.4152L30.7863 25.317L30.8066 25.2186L30.8258 25.1203L30.844 25.0217L30.8612 24.9228L30.8773 24.8243L30.8924 24.7254L30.9065 24.6265L30.9195 24.5278L30.9315 24.4288L30.9426 24.3296L30.9525 24.231L30.9615 24.1317L30.9694 24.0328L30.9762 23.934L30.9822 23.835L30.987 23.7361L30.9908 23.6374L30.9936 23.5384L30.9953 23.4399L30.9961 23.3411L30.9958 23.2426L30.9946 23.144L30.9923 23.0459L30.989 22.9475L30.9847 22.8494L30.9794 22.7517L30.973 22.6536L30.9657 22.5559L30.9575 22.4587L30.9482 22.3611L30.9379 22.2642L30.9265 22.1671L30.9143 22.0704L30.9011 21.9739L30.8868 21.8775L30.8716 21.7814L30.8555 21.6857L30.8383 21.5902L30.8202 21.4949L30.801 21.3996L30.781 21.305L30.76 21.2106L30.7381 21.1164L30.7151 21.0224L30.6914 20.9292L30.6665 20.8356L30.6408 20.7429L30.6142 20.6503L30.5866 20.5583L30.5581 20.4664L30.5287 20.3748L30.4984 20.2839L30.4672 20.1933L30.4349 20.1028L30.4021 20.0131L30.3681 19.9235L30.3333 19.8346L30.2976 19.7459L30.261 19.6576L30.2236 19.5701L30.1852 19.4827L30.1461 19.396L30.1061 19.3098L30.0652 19.2238L30.0234 19.1382L29.981 19.0535L29.9375 18.969L29.8934 18.8853L29.8484 18.8021L29.8025 18.719L29.756 18.6369L29.7085 18.5551L29.6603 18.474L29.6111 18.3932L29.5615 18.3134L29.5108 18.2337L29.4596 18.1549L29.4075 18.0766L29.3546 17.9989L29.3009 17.9216L29.2466 17.8451L29.1916 17.7693L29.1357 17.6939L29.0793 17.6193L29.0219 17.5452L28.9642 17.4719L28.9054 17.399L28.8461 17.327L28.7861 17.2555L28.7254 17.1846L28.6642 17.1147L28.602 17.0451L28.5395 16.9764L28.4761 16.9083L28.4124 16.8411L28.3476 16.7742L28.2825 16.7084L28.2166 16.6429L28.1502 16.5785L28.0834 16.5147L28.0158 16.4516L27.9475 16.3891L27.8788 16.3276L27.8095 16.2667L27.7394 16.2064L27.6694 16.1472L27.5983 16.0884L27.5268 16.0305L27.4548 15.9735L27.3823 15.917L27.3093 15.8614L27.236 15.8068L27.1618 15.7527L27.0872 15.6992L27.0125 15.647L26.9368 15.5952L26.8612 15.5446L26.7849 15.4945L26.7081 15.4451L26.6309 15.3966L26.5535 15.3491L26.4753 15.3022L26.397 15.2563L26.318 15.211L26.2391 15.1668L26.1595 15.1233L26.0795 15.0805L25.9992 15.0386L25.9187 14.9977L25.8377 14.9574L25.7563 14.918L25.6749 14.8795L25.5932 14.8419L25.5106 14.8049L25.4284 14.769L25.3456 14.7339L25.2624 14.6995L25.1791 14.6662L25.0957 14.6337L25.0119 14.602L24.9275 14.571L24.8434 14.5412L24.7588 14.512L24.674 14.4837L24.5893 14.4563L24.5042 14.4299L24.4191 14.4042L24.3333 14.3794L24.2478 14.3555L24.1621 14.3324L24.0762 14.3103L23.9902 14.2889L23.9038 14.2685L23.8176 14.2489L23.7314 14.2303L23.6448 14.2125L23.5579 14.1954L23.4716 14.1795L23.3847 14.1642L23.298 14.1499L23.2109 14.1364L23.1243 14.1238L23.037 14.112L22.9503 14.1013L22.8633 14.0913L22.7763 14.0821L22.6893 14.0739L22.6022 14.0665L22.5155 14.06L22.4283 14.0544L22.3415 14.0496L22.2549 14.0457L22.1677 14.0426L22.0812 14.0403L21.9946 14.039L21.9081 14.0385L21.8489 14.0387L21.8937 17.8233L21.9205 17.8234L21.9702 17.8241L22.02 17.8253L22.07 17.8269L22.1199 17.8292L22.1699 17.8319L22.2199 17.8351L22.27 17.8389L22.3202 17.8432L22.3704 17.848L22.4206 17.8533L22.4708 17.8592L22.5211 17.8656L22.5714 17.8725L22.6217 17.8799L22.672 17.8879L22.7223 17.8965L22.7725 17.9055L22.8229 17.9151L22.8731 17.9251L22.9233 17.9358L22.9735 17.947L23.0238 17.9587L23.0738 17.9709L23.1239 17.9837L23.1739 17.997L23.2238 18.0108L23.2738 18.0252L23.3236 18.0401L23.3733 18.0555L23.4229 18.0716L23.4725 18.0881L23.522 18.1052L23.5714 18.1227L23.6206 18.1408L23.6697 18.1595L23.7187 18.1786L23.7676 18.1984L23.8164 18.2186L23.865 18.2394L23.9135 18.2607L23.9618 18.2826L24.01 18.3049L24.058 18.3279L24.1059 18.3512L24.1536 18.3752L24.201 18.3998L24.2483 18.4247L24.2954 18.4503L24.3423 18.4764L24.389 18.5029L24.4356 18.53L24.4818 18.5575L24.5279 18.5857L24.5737 18.6144L24.6193 18.6436L24.6646 18.6731L24.7097 18.7033L24.7546 18.7341L24.7992 18.7652L24.8435 18.7969L24.8877 18.8291L24.9315 18.8618L24.975 18.895L25.0182 18.9286L25.0612 18.9628L25.1038 18.9975L25.1461 19.0326L25.1882 19.0683L25.2299 19.1044L25.2713 19.141L25.3124 19.178L25.3531 19.2156L25.3935 19.2536L25.4335 19.2921L25.4733 19.3311L25.5126 19.3705L25.5516 19.4104L25.5902 19.4507L25.6284 19.4915L25.6663 19.5328L25.7038 19.5745L25.741 19.6166L25.7777 19.6592L25.814 19.7022L25.85 19.7456L25.8855 19.7895L25.9205 19.8338L25.9552 19.8785L25.9895 19.9237L26.0234 19.9693L26.0568 20.0153L26.0897 20.0616L26.1222 20.1084L26.1543 20.1556L26.1859 20.2032L26.2171 20.2511L26.2478 20.2996L26.278 20.3483L26.3078 20.3974L26.337 20.4469L26.3658 20.4967L26.3942 20.5469L26.422 20.5976L26.4493 20.6485L26.4762 20.6998L26.5024 20.7514L26.5283 20.8034L26.5536 20.8557L26.5783 20.9084L26.6026 20.9613L26.6263 21.0147L26.6496 21.0683L26.6723 21.1222L26.6944 21.1765L26.716 21.231L26.737 21.2858L26.7576 21.341L26.7775 21.3964L26.7969 21.4521L26.8157 21.5081L26.8339 21.5643L26.8516 21.6208L26.8687 21.6776L26.8853 21.7346L26.9012 21.792L26.9166 21.8494L26.9315 21.9071L26.9456 21.9652L26.9592 22.0234L26.9723 22.0818L26.9847 22.1405L26.9965 22.1993L27.0077 22.2583L27.0183 22.3176L27.0283 22.3771L27.0377 22.4366L27.0465 22.4965L27.0546 22.5564L27.0621 22.6165L27.069 22.6769L27.0753 22.7373L27.0809 22.7979L27.086 22.8586L27.0904 22.9196L27.0941 22.9805L27.0972 23.0417L27.0996 23.1029L27.1015 23.1643L27.1026 23.2257L27.1032 23.2873L27.103 23.3488L27.1023 23.4106L27.1009 23.4724L27.0988 23.5343L27.0961 23.5962L27.0927 23.6582L27.0887 23.7202L27.084 23.7823L27.0785 23.8444L27.0725 23.9066L27.0659 23.9687L27.0585 24.0309L27.0505 24.0931L27.0418 24.1554L27.0325 24.2175L27.0225 24.2797L27.0118 24.3418L27.0005 24.404L26.9884 24.4661L26.9758 24.5282L26.9624 24.5902L26.9483 24.6522L26.9337 24.7141L26.9183 24.776L26.9022 24.8378L26.8856 24.8994L26.8681 24.9611L26.8501 25.0225L26.8313 25.084L26.812 25.1453L26.7919 25.2065L26.7712 25.2676L26.7498 25.3286L26.7277 25.3893L26.7049 25.4501L26.6816 25.5105L26.6575 25.571L26.6328 25.6311L26.6074 25.6912L26.5813 25.751L26.5546 25.8107L26.5272 25.8702L26.4991 25.9294L26.4704 25.9886L26.4411 26.0474L26.411 26.1061L26.3804 26.1645L26.349 26.2226L26.317 26.2806L26.2844 26.3383L26.2511 26.3958L26.2172 26.453L26.1827 26.5098L26.1474 26.5666L26.1116 26.6229L26.0751 26.6789L26.0379 26.7348L26.0002 26.7902L25.9618 26.8454L25.9228 26.9003L25.8832 26.9548L25.843 27.009L25.8021 27.0629L25.7606 27.1164L25.7185 27.1696L25.6758 27.2225L25.6324 27.2749L25.5885 27.327L25.544 27.3787L25.4988 27.4301L25.4531 27.481L25.4068 27.5316L25.3599 27.5817L25.3125 27.6314L25.2644 27.6809L25.2157 27.7298L25.1665 27.7782L25.1168 27.8263L25.0664 27.8739L25.0155 27.921L24.964 27.9678L24.912 28.0141L24.8595 28.0599L24.8064 28.1052L24.7527 28.15L24.6985 28.1944L24.6438 28.2383L24.5885 28.2816L24.5328 28.3245L24.4766 28.3669L24.4197 28.4088L24.3625 28.4501L24.3046 28.4909L24.2464 28.5313L24.1876 28.571L24.1283 28.6103L24.0686 28.6489L24.0083 28.6871L23.9476 28.7247L23.8864 28.7617L23.8248 28.7981L23.7627 28.8339L23.7002 28.8692L23.6371 28.9039L23.5738 28.9381L23.5099 28.9716L23.4457 29.0046L23.3809 29.0368L23.3159 29.0686L23.2503 29.0997L23.1843 29.1302L23.1181 29.16L23.0513 29.1892L22.9843 29.2179L22.9168 29.2458L22.8489 29.2731L22.7807 29.2998L22.7121 29.3258L22.6431 29.3512L22.5739 29.376L22.5043 29.4L22.4343 29.4234L22.3641 29.4461L22.2935 29.4681L22.2226 29.4894L22.1513 29.5102L22.0799 29.5301L22.0081 29.5495L21.936 29.568L21.8637 29.586L21.791 29.6031L21.7181 29.6196L21.6449 29.6354L21.5716 29.6505L21.4979 29.6649L21.424 29.6785L21.3499 29.6914L21.2755 29.7036L21.2011 29.7151L21.1263 29.7258L21.0514 29.7358L20.9762 29.7451L20.9009 29.7537L20.8254 29.7614L20.7498 29.7685L20.674 29.7747L20.598 29.7803L20.5218 29.785L20.4456 29.7892L20.3692 29.7925L20.2928 29.795L20.2161 29.7967L20.1394 29.7977L20.0626 29.798L19.9857 29.7975L19.9087 29.7962L19.8316 29.7941L19.7546 29.7913L19.6774 29.7876L19.6001 29.7832L19.5228 29.7781L19.4455 29.7722L19.3682 29.7655L19.2908 29.758L19.2136 29.7498L19.1362 29.7406L19.0589 29.7308L18.9815 29.7202L18.9042 29.7089L18.8269 29.6966L18.7497 29.6837L18.6726 29.67L18.5955 29.6554L18.5184 29.6402L18.4414 29.6241L18.3645 29.6072L18.2877 29.5895L18.211 29.571L18.1344 29.5519L18.0579 29.5318L17.9816 29.511L17.9053 29.4894L17.8293 29.4671L17.7533 29.4439L17.6776 29.42L17.602 29.3953L17.5265 29.3698L17.4513 29.3436L17.3762 29.3165L17.3013 29.2886L17.2268 29.2601L17.1523 29.2307L17.0781 29.2005L17.0041 29.1697L16.9305 29.138L16.857 29.1055L16.7837 29.0723L16.7108 29.0383L16.638 29.0036L16.5657 28.9681L16.4936 28.9318L16.4218 28.8948L16.3503 28.857L16.2792 28.8185L16.2083 28.7792L16.1378 28.7392L16.0676 28.6984L15.9978 28.6569L15.9283 28.6147L15.8593 28.5717L15.7905 28.528L15.7221 28.4836L15.6542 28.4384L15.5866 28.3925L15.5195 28.3459L15.4528 28.2986L15.3864 28.2505L15.3206 28.2017L15.2551 28.1523L15.1901 28.1022L15.1256 28.0513L15.0615 27.9997L14.9979 27.9475L14.9347 27.8946L14.8721 27.8409L14.8099 27.7866L14.7483 27.7317L14.6871 27.6761L14.6265 27.6197L14.5663 27.5628L14.5068 27.5051L14.4477 27.4469L14.3892 27.388L14.3313 27.3284L14.2738 27.2682L14.217 27.2074L14.1608 27.1459L14.1051 27.0838L14.05 27.0212L13.9956 26.9578L13.9416 26.894L13.8883 26.8294L13.8357 26.7642L13.7837 26.6986L13.7322 26.6323L13.6814 26.5655L13.6313 26.498L13.5819 26.43L13.5331 26.3615L13.4848 26.2923L13.4373 26.2226L13.3905 26.1525L13.3444 26.0817L13.299 26.0104L13.2542 25.9387L13.2102 25.8664L13.1668 25.7935L13.1242 25.7202L13.0823 25.6464L13.0411 25.5721L13.0006 25.4973L12.9609 25.422L12.9219 25.3462L12.8836 25.27L12.8461 25.1935L12.8094 25.1163L12.7734 25.0388L12.7382 24.9608L12.7038 24.8824L12.6702 24.8035L12.6373 24.7243L12.6052 24.6446L12.5739 24.5646L12.5435 24.4841L12.5139 24.4034L12.485 24.3222L12.457 24.2407L12.4297 24.1588L12.4033 24.0765L12.3778 23.9939L12.353 23.911L12.329 23.8277L12.306 23.7441L12.2838 23.6602L12.2624 23.576L12.2419 23.4915L12.2223 23.4067L12.2034 23.3216L12.1855 23.2363L12.1685 23.1507L12.1522 23.0649L12.1369 22.9788L12.1224 22.8925L12.1089 22.806L12.0962 22.7192L12.0844 22.6323L12.0735 22.5451L12.0635 22.4578L12.0544 22.3701L12.0462 22.2824L12.0388 22.1945L12.0324 22.1065L12.0269 22.0183L12.0223 21.93L12.0186 21.8416L12.0158 21.753L12.014 21.6642L12.0131 21.5755L12.013 21.4866L12.0139 21.3976L12.0158 21.3086L12.0185 21.2195L12.0222 21.1303L12.0268 21.041L12.0323 20.9518L12.0387 20.8625L12.0462 20.7732L12.0545 20.6839L12.0637 20.5946L12.0739 20.5052L12.0851 20.4159L12.0971 20.3267L12.1101 20.2375L12.1241 20.1483L12.139 20.0592L12.1547 19.9701L12.1715 19.881L12.1892 19.7921L12.2079 19.7033L12.2274 19.6146L12.2478 19.526L12.2693 19.4376L12.2917 19.3492L12.315 19.2609L12.3393 19.1729L12.3644 19.085L12.3905 18.9972L12.4176 18.9097L12.4455 18.8223L12.4744 18.7351L12.5043 18.6482L12.535 18.5614L12.5667 18.4748L12.5993 18.3885L12.6329 18.3025L12.6674 18.2167L12.7027 18.1311L12.739 18.0459L12.7762 17.9609L12.8144 17.8762L12.8534 17.7918L12.8934 17.7077L12.9342 17.624L12.976 17.5405L13.0186 17.4574L13.0622 17.3747L13.1066 17.2923L13.152 17.2103L13.1982 17.1286L13.2454 17.0473L13.2934 16.9665L13.3423 16.886L13.392 16.8059L13.4427 16.7263L13.4943 16.647L13.5466 16.5682L13.5998 16.49L13.6539 16.4121L13.7089 16.3347L13.7647 16.2578L13.8213 16.1813L13.8788 16.1053L13.9371 16.0299L13.9963 15.955L14.0563 15.8806L14.1172 15.8066L14.1787 15.7333L14.2412 15.6605L14.3044 15.5882L14.3685 15.5165L14.4333 15.4453L14.499 15.3749L14.5654 15.3049L14.6327 15.2355L14.7007 15.1668L14.7694 15.0986L14.839 15.031L14.9093 14.9642L14.9803 14.8979L15.0521 14.8323L15.1246 14.7673L15.1979 14.7029L15.2719 14.6394L15.3466 14.5763L15.4221 14.5141L15.4982 14.4525L15.5751 14.3916L15.6526 14.3314L15.7309 14.272L15.8097 14.2133L15.8893 14.1552L15.9696 14.098L16.0505 14.0414L16.1321 13.9856L16.2144 13.9306L16.2972 13.8763L16.3807 13.8229L16.4649 13.7702L16.5496 13.7183L16.635 13.6671L16.7209 13.6168L16.8076 13.5673L16.8947 13.5186L16.9824 13.4707L17.0707 13.4237L17.1595 13.3774L17.2489 13.332L17.3388 13.2875L17.4294 13.2438L17.5204 13.201L17.6119 13.159L17.7039 13.1179L17.7964 13.0777L17.8896 13.0383L17.9831 12.9998L18.077 12.9623L18.1715 12.9257L18.2665 12.8899L18.3618 12.855L18.4576 12.8211L18.554 12.788L18.6506 12.7559L18.7477 12.7248L18.8452 12.6945L18.9431 12.6652L19.0413 12.6369L19.14 12.6095L19.239 12.583L19.3384 12.5575L19.4381 12.5329L19.5381 12.5094L19.6386 12.4868L19.7392 12.4651L19.8403 12.4445L19.9415 12.4248L19.9923 12.4154ZM21.2372 19.6933L20.0819 19.9694L20.014 14.246L19.9596 14.2583L19.8776 14.2776L19.7957 14.2978L19.7144 14.3186L19.6332 14.3403L19.5525 14.3627L19.4718 14.3861L19.3919 14.4099L19.3118 14.4348L19.2327 14.4602L19.1534 14.4865L19.0746 14.5136L18.9962 14.5414L18.9181 14.5698L18.8408 14.599L18.7635 14.6291L18.6866 14.6597L18.6102 14.6911L18.5339 14.7234L18.4586 14.7561L18.3834 14.7898L18.3088 14.8239L18.2343 14.859L18.1605 14.8946L18.0869 14.931L18.0142 14.968L17.9417 15.0057L17.8697 15.0441L17.7982 15.0831L17.7272 15.1228L17.6566 15.1632L17.5868 15.2041L17.517 15.2459L17.448 15.2881L17.3796 15.331L17.3117 15.3745L17.2441 15.4187L17.1772 15.4635L17.1109 15.5089L17.045 15.5548L16.9799 15.6013L16.915 15.6485L16.8509 15.6963L16.7873 15.7447L16.7243 15.7936L16.6619 15.8429L16.6002 15.8929L16.5388 15.9435L16.4781 15.9948L16.4181 16.0463L16.3587 16.0985L16.2998 16.1511L16.2416 16.2044L16.1839 16.2582L16.127 16.3124L16.0707 16.3671L16.0148 16.4224L15.9598 16.478L15.9054 16.5343L15.8516 16.5908L15.7983 16.6481L15.7459 16.7056L15.6941 16.7636L15.6428 16.8222L15.5924 16.8809L15.5425 16.9403L15.4935 16.9999L15.4449 17.0602L15.3971 17.1207L15.3499 17.1817L15.3035 17.2432L15.2578 17.3048L15.2127 17.3669L15.1684 17.4293L15.1247 17.4923L15.0817 17.5554L15.0395 17.6191L14.998 17.6828L14.9572 17.747L14.917 17.8116L14.8777 17.8764L14.8389 17.9418L14.801 18.007L14.7637 18.0729L14.7271 18.1389L14.6914 18.2052L14.6564 18.2718L14.6221 18.3386L14.5884 18.4059L14.5556 18.473L14.5234 18.5408L14.4921 18.6086L14.4615 18.6766L14.4315 18.7449L14.4023 18.8135L14.374 18.882L14.3463 18.951L14.3194 19.0201L14.2932 19.0893L14.2678 19.1586L14.2432 19.2283L14.2192 19.298L14.1961 19.3679L14.1736 19.4379L14.1519 19.5081L14.131 19.5784L14.1109 19.6487L14.0915 19.7192L14.0728 19.7899L14.0549 19.8606L14.0378 19.9314L14.0213 20.0022L14.0057 20.0732L13.9909 20.1443L13.9767 20.2152L13.9633 20.2863L13.9507 20.3576L13.9388 20.4287L13.9277 20.4998L13.9173 20.5712L13.9077 20.6423L13.8988 20.7136L13.8907 20.7847L13.8833 20.856L13.8767 20.9274L13.8708 20.9984L13.8657 21.0696L13.8612 21.1408L13.8575 21.2118L13.8546 21.2827L13.8524 21.3536L13.851 21.4246L13.8502 21.4953L13.8503 21.566L13.851 21.6366L13.8525 21.7071L13.8547 21.7775L13.8576 21.8478L13.8612 21.918L13.8657 21.9879L13.8708 22.0578L13.8766 22.1276L13.8831 22.1971L13.8903 22.2667L13.8982 22.3358L13.9069 22.405L13.9162 22.4738L13.9263 22.5427L13.937 22.6111L13.9485 22.6795L13.9606 22.7478L13.9734 22.8156L13.9869 22.8834L14.0011 22.9507L14.016 23.0181L14.0316 23.0851L14.0478 23.1519L14.0646 23.2183L14.0823 23.2848L14.1004 23.3506L14.1193 23.4165L14.1388 23.4818L14.159 23.5471L14.1798 23.6119L14.2013 23.6764L14.2234 23.7409L14.2462 23.8048L14.2695 23.8684L14.2935 23.9318L14.3181 23.9949L14.3434 24.0575L14.3693 24.1199L14.3956 24.1818L14.4228 24.2436L14.4505 24.3049L14.4787 24.3659L14.5076 24.4264L14.537 24.4866L14.5671 24.5466L14.5976 24.6059L14.6288 24.665L14.6606 24.7237L14.693 24.782L14.7258 24.8399L14.7592 24.8974L14.7932 24.9544L14.8278 25.0111L14.8628 25.0674L14.8983 25.1231L14.9345 25.1785L14.9711 25.2335L15.0083 25.2881L15.0459 25.3419L15.0841 25.3956L15.1228 25.4488L15.1619 25.5014L15.2017 25.5537L15.2418 25.6055L15.2824 25.6567L15.3235 25.7075L15.3651 25.7579L15.407 25.8076L15.4496 25.8571L15.4925 25.906L15.5358 25.9543L15.5798 26.0022L15.6239 26.0494L15.6686 26.0964L15.7137 26.1428L15.7591 26.1886L15.8051 26.2339L15.8514 26.2787L15.8982 26.323L15.9453 26.3667L15.9928 26.4099L16.0407 26.4526L16.0889 26.4947L16.1375 26.5363L16.1865 26.5774L16.2358 26.6179L16.2855 26.6579L16.3356 26.6973L16.3858 26.7361L16.4366 26.7744L16.4876 26.8122L16.5389 26.8494L16.5905 26.8859L16.6425 26.922L16.6947 26.9575L16.7472 26.9924L16.7999 27.0267L16.853 27.0605L16.9065 27.0937L16.96 27.1262L17.0139 27.1583L17.0681 27.1898L17.1223 27.2206L17.1768 27.2508L17.2319 27.2806L17.2869 27.3097L17.3421 27.3381L17.3976 27.366L17.4534 27.3934L17.5091 27.42L17.5654 27.4462L17.6216 27.4718L17.678 27.4966L17.7347 27.521L17.7915 27.5447L17.8484 27.5679L17.9055 27.5904L17.9627 27.6123L18.0203 27.6336L18.0776 27.6544L18.1355 27.6745L18.1931 27.694L18.2509 27.7129L18.309 27.7313L18.3671 27.749L18.4253 27.7661L18.4835 27.7826L18.5419 27.7984L18.6004 27.8138L18.6588 27.8284L18.7174 27.8426L18.7759 27.856L18.8345 27.8688L18.8933 27.8811L18.952 27.8928L19.0108 27.9039L19.0695 27.9143L19.1284 27.9242L19.1872 27.9335L19.246 27.9422L19.3047 27.9502L19.3635 27.9576L19.4223 27.9645L19.4811 27.9709L19.5398 27.9765L19.5986 27.9816L19.6572 27.9861L19.7158 27.99L19.7744 27.9933L19.8329 27.996L19.8912 27.9982L19.9497 27.9997L20.0079 28.0007L20.066 28.0011L20.1242 28.0009L20.1821 28.0002L20.2401 27.9988L20.298 27.9969L20.3555 27.9945L20.4131 27.9914L20.4707 27.9878L20.5278 27.9836L20.5851 27.9789L20.642 27.9736L20.6989 27.9678L20.7557 27.9612L20.8121 27.9543L20.8687 27.9468L20.9248 27.9387L20.9807 27.9301L21.0368 27.9209L21.0924 27.9112L21.1478 27.901L21.2032 27.8902L21.2583 27.8788L21.313 27.867L21.3676 27.8547L21.4221 27.8417L21.4763 27.8283L21.5302 27.8145L21.584 27.8L21.6374 27.7851L21.6908 27.7696L21.7438 27.7536L21.7963 27.7372L21.849 27.7202L21.9011 27.7027L21.9531 27.6849L22.0047 27.6664L22.056 27.6475L22.1072 27.628L22.1581 27.6082L22.2085 27.5878L22.2587 27.5671L22.3086 27.5457L22.3583 27.524L22.4075 27.5018L22.4566 27.4792L22.5052 27.4561L22.5534 27.4326L22.6015 27.4086L22.649 27.3842L22.6965 27.3594L22.7435 27.334L22.7901 27.3084L22.8363 27.2823L22.8823 27.2557L22.9279 27.2288L22.973 27.2014L23.0178 27.1736L23.0623 27.1455L23.1065 27.117L23.1503 27.088L23.1936 27.0588L23.2366 27.029L23.2792 26.9989L23.3213 26.9685L23.3631 26.9377L23.4045 26.9065L23.4455 26.8749L23.4861 26.843L23.5264 26.8108L23.5661 26.7783L23.6055 26.7454L23.6444 26.7121L23.6828 26.6785L23.721 26.6447L23.7587 26.6104L23.796 26.5759L23.8327 26.5411L23.8692 26.5059L23.9052 26.4704L23.9408 26.4348L23.9759 26.3988L24.0104 26.3624L24.0446 26.3259L24.0785 26.2889L24.1117 26.2519L24.1447 26.2144L24.177 26.1767L24.2089 26.1389L24.2406 26.1006L24.2715 26.0624L24.3021 26.0237L24.3323 25.9849L24.3619 25.9458L24.3912 25.9064L24.4198 25.867L24.4481 25.8271L24.476 25.7871L24.5032 25.7471L24.5301 25.7066L24.5566 25.6661L24.5823 25.6254L24.6078 25.5845L24.6327 25.5434L24.6572 25.5021L24.6813 25.4607L24.7047 25.4191L24.7278 25.3774L24.7503 25.3354L24.7724 25.2935L24.7939 25.2513L24.8151 25.209L24.8357 25.1666L24.8559 25.1239L24.8755 25.0813L24.8947 25.0385L24.9133 24.9957L24.9316 24.9526L24.9492 24.9096L24.9665 24.8662L24.9832 24.8232L24.9995 24.7795L25.0152 24.7365L25.0305 24.6928L25.0453 24.649L25.0596 24.6055L25.0734 24.5618L25.0867 24.5182L25.0997 24.4741L25.1119 24.4306L25.1239 24.3864L25.1352 24.3429L25.1462 24.2988L25.1566 24.2547L25.1665 24.2109L25.1759 24.1672L25.185 24.1229L25.1935 24.0791L25.2015 24.0349L25.209 23.9912L25.2161 23.9473L25.2228 23.9032L25.2289 23.8592L25.2345 23.8153L25.2397 23.7716L25.2444 23.728L25.2486 23.684L25.2524 23.6404L25.2557 23.5967L25.2585 23.5531L25.261 23.5096L25.2629 23.4662L25.2643 23.423L25.2653 23.3795L25.2659 23.3361L25.266 23.2931L25.2656 23.2501L25.2648 23.2072L25.2635 23.1644L25.2618 23.1214L25.2596 23.0792L25.2569 23.0361L25.2539 22.9941L25.2504 22.9518L25.2465 22.9093L25.2421 22.8673L25.2374 22.8257L25.2321 22.7835L25.2265 22.7422L25.2204 22.7006L25.2139 22.6596L25.2069 22.6182L25.1996 22.5771L25.1919 22.5364L25.1838 22.4958L25.1751 22.4552L25.1661 22.415L25.1568 22.3748L25.147 22.3349L25.1369 22.2953L25.1261 22.2554L25.1153 22.2163L25.1039 22.1768L25.0921 22.138L25.08 22.0992L25.0675 22.0607L25.0546 22.0223L25.0412 21.984L25.0277 21.9463L25.0137 21.9087L24.9992 21.871L24.9845 21.834L24.9693 21.7967L24.954 21.7603L24.9381 21.7235L24.922 21.6873L24.9055 21.6514L24.8887 21.6155L24.8715 21.58L24.854 21.5448L24.8361 21.5097L24.818 21.475L24.7994 21.4405L24.7807 21.4063L24.7615 21.3723L24.742 21.3387L24.7224 21.3053L24.7023 21.2722L24.6819 21.2392L24.6612 21.2068L24.6403 21.1746L24.619 21.1426L24.5975 21.1108L24.5757 21.0795L24.5535 21.0484L24.5312 21.0176L24.5085 20.9871L24.4856 20.9569L24.4625 20.9271L24.439 20.8974L24.4153 20.8682L24.3914 20.8393L24.3672 20.8106L24.3427 20.7822L24.3182 20.7542L24.2932 20.7266L24.2681 20.6992L24.2427 20.672L24.2171 20.6454L24.1913 20.619L24.1652 20.5929L24.139 20.5672L24.1126 20.5418L24.086 20.5168L24.059 20.4919L24.0321 20.4676L24.0048 20.4434L23.9775 20.4197L23.9498 20.3963L23.922 20.3733L23.8941 20.3506L23.866 20.3282L23.8377 20.3062L23.8092 20.2844L23.7807 20.2632L23.7519 20.2421L23.7229 20.2215L23.694 20.2012L23.6648 20.1812L23.6355 20.1616L23.6061 20.1424L23.5764 20.1234L23.5468 20.1049L23.5168 20.0866L23.487 20.0688L23.457 20.0514L23.4268 20.0342L23.3965 20.0174L23.3662 20.0009L23.3358 19.9848L23.3052 19.9691L23.2748 19.9537L23.2439 19.9386L23.2132 19.9239L23.1823 19.9097L23.1515 19.8957L23.1205 19.882L23.0893 19.8687L23.0584 19.8559L23.0272 19.8433L22.9959 19.8311L22.9647 19.8193L22.9334 19.8078L22.9022 19.7966L22.8708 19.7858L22.8394 19.7753L22.8081 19.7653L22.7767 19.7554L22.7452 19.746L22.7139 19.737L22.6822 19.7283L22.651 19.7199L22.6195 19.7119L22.588 19.7042L22.5565 19.6969L22.5252 19.6899L22.4937 19.6833L22.4623 19.6769L22.431 19.6709L22.3997 19.6653L22.3683 19.66L22.3372 19.6551L22.3057 19.6505L22.2747 19.6462L22.2435 19.6422L22.2124 19.6386L22.1815 19.6352L22.1504 19.6323L22.1196 19.6296L22.0887 19.6273L22.0579 19.6253L22.0271 19.6236L21.9965 19.6223L21.9661 19.6213L21.9355 19.6205L21.9052 19.6201L21.8748 19.62L21.8446 19.6203L21.8144 19.6208L21.7845 19.6216L21.7545 19.6228L21.7248 19.6242L21.6949 19.626L21.6655 19.628L21.636 19.6303L21.6066 19.633L21.5775 19.6359L21.5482 19.6392L21.5193 19.6427L21.4905 19.6465L21.4618 19.6506L21.4331 19.655L21.4047 19.6596L21.3764 19.6645L21.3484 19.6697L21.3202 19.6752L21.2925 19.681L21.2647 19.687L21.2372 19.6933Z" fill="#808080"/>
</svg>
