<svg width="167" height="40" viewBox="0 0 167 40" fill="none" xmlns="http://www.w3.org/2000/svg">
<path d="M48.5293 28.5H60.4813V24.9H52.7773V11.34H48.5293V28.5Z" fill="#616161"/>
<path d="M67.5624 26.1C65.8584 26.1 64.9704 24.612 64.9704 22.38C64.9704 20.148 65.8584 18.636 67.5624 18.636C69.2664 18.636 70.1784 20.148 70.1784 22.38C70.1784 24.612 69.2664 26.1 67.5624 26.1ZM67.5864 28.884C71.5464 28.884 74.1384 26.076 74.1384 22.38C74.1384 18.684 71.5464 15.876 67.5864 15.876C63.6504 15.876 61.0104 18.684 61.0104 22.38C61.0104 26.076 63.6504 28.884 67.5864 28.884Z" fill="#616161"/>
<path d="M80.9929 32.7481C82.8169 32.7481 84.4249 32.34 85.5049 31.3801C86.4889 30.4921 87.1369 29.1481 87.1369 27.3001V16.2121H83.3929V17.5321H83.3449C82.6249 16.5001 81.5209 15.8521 79.8889 15.8521C76.8409 15.8521 74.7289 18.3961 74.7289 21.9961C74.7289 25.7641 77.2969 27.8281 80.0569 27.8281C81.5449 27.8281 82.4809 27.2281 83.2009 26.4121H83.2969V27.6361C83.2969 29.1241 82.6009 29.9881 80.9449 29.9881C79.6489 29.9881 79.0009 29.4361 78.7849 28.7881H74.9929C75.3769 31.3561 77.6089 32.7481 80.9929 32.7481ZM80.9689 24.9241C79.5049 24.9241 78.5449 23.7241 78.5449 21.8761C78.5449 20.0041 79.5049 18.8041 80.9689 18.8041C82.6009 18.8041 83.4649 20.1961 83.4649 21.8521C83.4649 23.5801 82.6729 24.9241 80.9689 24.9241Z" fill="#616161"/>
<path d="M94.8353 26.1C93.1313 26.1 92.2433 24.612 92.2433 22.38C92.2433 20.148 93.1313 18.636 94.8353 18.636C96.5393 18.636 97.4513 20.148 97.4513 22.38C97.4513 24.612 96.5393 26.1 94.8353 26.1ZM94.8593 28.884C98.8193 28.884 101.412 26.076 101.412 22.38C101.412 18.684 98.8193 15.876 94.8593 15.876C90.9233 15.876 88.2833 18.684 88.2833 22.38C88.2833 26.076 90.9233 28.884 94.8593 28.884Z" fill="#616161"/>
<path d="M102.554 28.5H106.466V16.212H102.554V28.5ZM102.554 14.508H106.466V11.34H102.554V14.508Z" fill="#616161"/>
<path d="M108.163 32.5561H112.075V27.2281H112.123C112.891 28.2601 114.019 28.8841 115.603 28.8841C118.819 28.8841 120.955 26.34 120.955 22.3561C120.955 18.66 118.963 15.8521 115.699 15.8521C114.019 15.8521 112.819 16.5961 111.979 17.7001H111.907V16.2121H108.163V32.5561ZM114.595 25.8601C112.915 25.8601 111.955 24.4921 111.955 22.5001C111.955 20.5081 112.819 18.9961 114.523 18.9961C116.203 18.9961 116.995 20.3881 116.995 22.5001C116.995 24.5881 116.083 25.8601 114.595 25.8601Z" fill="#616161"/>
<path d="M127.325 28.8841C130.541 28.8841 132.917 27.4921 132.917 24.8041C132.917 21.6601 130.373 21.1081 128.213 20.7481C126.653 20.4601 125.261 20.3401 125.261 19.4761C125.261 18.7081 126.005 18.3481 126.965 18.3481C128.045 18.3481 128.789 18.6841 128.933 19.7881H132.533C132.341 17.3641 130.469 15.8521 126.989 15.8521C124.085 15.8521 121.685 17.1961 121.685 19.7881C121.685 22.6681 123.965 23.2441 126.101 23.6041C127.733 23.8921 129.221 24.0121 129.221 25.1161C129.221 25.9081 128.477 26.3401 127.301 26.3401C126.005 26.3401 125.189 25.7401 125.045 24.5161H121.349C121.469 27.2281 123.725 28.8841 127.325 28.8841Z" fill="#616161"/>
<path d="M138.23 28.86C139.934 28.86 141.014 28.188 141.902 26.988H141.974V28.5H145.718V16.212H141.806V23.076C141.806 24.54 140.99 25.548 139.646 25.548C138.398 25.548 137.798 24.804 137.798 23.46V16.212H133.91V24.276C133.91 27.012 135.398 28.86 138.23 28.86Z" fill="#616161"/>
<path d="M147.42 28.5001H151.332V21.6121C151.332 20.1481 152.052 19.1161 153.276 19.1161C154.452 19.1161 155.004 19.8841 155.004 21.2041V28.5001H158.916V21.6121C158.916 20.1481 159.612 19.1161 160.86 19.1161C162.036 19.1161 162.588 19.8841 162.588 21.2041V28.5001H166.5V20.5081C166.5 17.7481 165.108 15.8521 162.324 15.8521C160.74 15.8521 159.42 16.524 158.46 18.0121H158.412C157.788 16.6921 156.564 15.8521 154.956 15.8521C153.18 15.8521 152.004 16.6921 151.236 17.9641H151.164V16.2121H147.42V28.5001Z" fill="#616161"/>
<path fill-rule="evenodd" clip-rule="evenodd" d="M8.55273 3.59787C7.12207 4.59823 5.82837 5.78098 4.70532 7.1124C9.29462 6.68633 15.1252 7.38204 21.8944 10.7667C29.123 14.3809 34.9438 14.5031 38.9948 13.7217C38.6272 12.6088 38.1644 11.5392 37.6163 10.5224C32.979 11.0115 27.034 10.3641 20.1056 6.89998C15.706 4.70018 11.8278 3.79401 8.55273 3.59787ZM34.9074 6.66665C31.2453 2.575 25.9234 0 20 0C18.2605 0 16.5727 0.222107 14.9637 0.63948C17.1429 1.23409 19.4579 2.10399 21.8944 3.32227C26.967 5.85853 31.3464 6.67516 34.9074 6.66665ZM39.8609 17.6281C34.9669 18.5945 28.2088 18.396 20.1056 14.3444C12.53 10.5566 6.50043 10.6043 2.4339 11.508C2.224 11.5546 2.01904 11.6036 1.81903 11.6546C1.28662 12.8125 0.861634 14.0301 0.556702 15.2945C0.882386 15.2075 1.21893 15.1248 1.56616 15.0476C6.49957 13.9513 13.4701 13.9989 21.8944 18.2111C29.4701 21.9989 35.4996 21.9512 39.5662 21.0475C39.7055 21.0166 39.8428 20.9846 39.9778 20.9516C39.9926 20.6363 40 20.319 40 20C40 19.1975 39.9528 18.406 39.8609 17.6281ZM39.3248 25.1723C34.4783 26.0196 27.917 25.6944 20.1056 21.7888C12.53 18.001 6.50043 18.0487 2.4339 18.9524C1.53125 19.1529 0.719239 19.3972 0.00293 19.6551C0.000977 19.7698 0 19.8848 0 20C0 31.0457 8.95429 40 20 40C29.2571 40 37.0453 33.7109 39.3248 25.1723Z" fill="#9E9E9E"/>
</svg>
