<svg width="167" height="40" viewBox="0 0 167 40" fill="none" xmlns="http://www.w3.org/2000/svg">
<path d="M17.1543 6.75018V1.30945H0V38.6905H17.1543V33.2498C13.6402 33.2498 10.2701 31.8537 7.78529 29.3689C5.30048 26.8841 3.90453 23.5141 3.90453 20C3.90453 16.4859 5.30048 13.1157 7.78529 10.631C10.2701 8.14615 13.6402 6.75018 17.1543 6.75018Z" fill="#616161"/>
<path d="M17.1543 6.75018V33.2498C20.6684 33.2498 24.0386 31.8537 26.5234 29.3689C29.0082 26.8841 30.4041 23.5141 30.4041 20C30.4041 16.4859 29.0082 13.1157 26.5234 10.631C24.0386 8.14615 20.6684 6.75018 17.1543 6.75018Z" fill="#616161"/>
<path d="M40.031 10.0786H43.8715V28.5771H40.031V10.0786Z" fill="#616161"/>
<path d="M46.0222 22.2403C46.0222 20.9094 46.4174 19.6085 47.1576 18.5024C47.8978 17.3964 48.9497 16.5349 50.1801 16.0274C51.4104 15.5199 52.7637 15.3891 54.0685 15.6515C55.3732 15.9139 56.5707 16.5579 57.5091 17.5016C58.4474 18.4455 59.0846 19.6465 59.3396 20.9528C59.5945 22.2591 59.456 23.6116 58.9413 24.839C58.4267 26.0663 57.5594 27.1134 56.4491 27.8472C55.3388 28.5811 54.0356 28.9687 52.7047 28.9612C51.822 28.9681 50.9468 28.7987 50.1304 28.4628C49.314 28.127 48.5728 27.6316 47.9504 27.0057C47.328 26.3797 46.8369 25.6357 46.5057 24.8174C46.1747 23.9991 46.0103 23.123 46.0222 22.2403ZM55.6491 22.2403C55.634 21.6665 55.45 21.1099 55.1203 20.6402C54.7905 20.1704 54.3296 19.8082 53.795 19.599C53.2606 19.3899 52.6763 19.3429 52.1153 19.4641C51.5542 19.5852 51.0414 19.869 50.6408 20.2802C50.2402 20.6913 49.9697 21.2113 49.8632 21.7753C49.7567 22.3394 49.8188 22.9222 50.0418 23.4511C50.2648 23.9799 50.6388 24.4314 51.117 24.7488C51.5952 25.0663 52.1563 25.2356 52.7303 25.2359C53.1211 25.2436 53.5093 25.1705 53.8706 25.0212C54.2318 24.8721 54.5584 24.65 54.8299 24.3688C55.1014 24.0877 55.312 23.7534 55.4486 23.3873C55.5852 23.0211 55.6448 22.6306 55.6235 22.2403H55.6491Z" fill="#616161"/>
<path d="M74.5829 15.9034V27.9499C74.5829 32.2 71.2544 34.0051 67.8876 34.0051C66.6999 34.1025 65.5087 33.8666 64.4481 33.3238C63.3874 32.781 62.4992 31.9528 61.8835 30.9327L65.1224 29.0636C65.3848 29.5928 65.8023 30.0294 66.3192 30.3152C66.8362 30.6011 67.4278 30.7227 68.0156 30.6638C68.39 30.7099 68.77 30.6728 69.1283 30.555C69.4867 30.4371 69.8146 30.2416 70.0886 29.9823C70.3626 29.7229 70.5759 29.4063 70.7133 29.0549C70.8506 28.7036 70.9086 28.3262 70.8832 27.9499V26.7849C70.4363 27.3268 69.8691 27.7569 69.227 28.0414C68.5847 28.3258 67.8851 28.4567 67.1835 28.4235C65.4858 28.4235 63.8578 27.7491 62.6574 26.5487C61.457 25.3484 60.7826 23.7203 60.7826 22.0227C60.7826 20.325 61.457 18.697 62.6574 17.4966C63.8578 16.2962 65.4858 15.6218 67.1835 15.6218C67.8851 15.5886 68.5847 15.7195 69.227 16.0039C69.8691 16.2884 70.4363 16.7185 70.8832 17.2604V15.9802L74.5829 15.9034ZM70.8832 21.9842C70.9086 21.3718 70.7504 20.7657 70.4287 20.2439C70.107 19.7221 69.6367 19.3084 69.0779 19.0561C68.5192 18.8038 67.8979 18.7244 67.2937 18.8281C66.6896 18.9318 66.1301 19.2138 65.6876 19.6379C65.245 20.0621 64.9395 20.609 64.8102 21.2082C64.6809 21.8075 64.7337 22.4315 64.962 23.0005C65.1904 23.5694 65.5836 24.057 66.0912 24.4006C66.5989 24.7442 67.1978 24.9281 67.8108 24.9286C68.2108 24.9575 68.6124 24.902 68.9895 24.7661C69.3668 24.63 69.7114 24.4163 70.0009 24.1388C70.2904 23.8614 70.5186 23.5262 70.6705 23.1551C70.8225 22.784 70.8949 22.3851 70.8832 21.9842Z" fill="#616161"/>
<path d="M76.7464 22.2403C76.7464 20.9104 77.1409 19.6106 77.88 18.505C78.619 17.3994 79.6694 16.538 80.8982 16.0298C82.1271 15.5214 83.479 15.3891 84.7832 15.6494C86.0873 15.9098 87.2847 16.5512 88.2243 17.4924C89.1636 18.4337 89.8027 19.6324 90.0605 20.9369C90.3185 22.2416 90.1836 23.5933 89.6729 24.8211C89.1622 26.0491 88.2988 27.0978 87.1919 27.8348C86.085 28.5718 84.7843 28.9638 83.4545 28.9612C82.5701 28.9698 81.6928 28.8017 80.8743 28.4668C80.0557 28.1319 79.3122 27.637 78.6875 27.011C78.0626 26.385 77.5691 25.6406 77.2358 24.8214C76.9025 24.0022 76.7361 23.1246 76.7464 22.2403ZM86.3733 22.2403C86.3581 21.666 86.1738 21.1089 85.8435 20.6388C85.5132 20.1688 85.0515 19.8067 84.5162 19.5979C83.981 19.3891 83.3961 19.3429 82.8347 19.4651C82.2734 19.5873 81.7605 19.8725 81.3605 20.2848C80.9604 20.6972 80.6909 21.2185 80.586 21.7833C80.4809 22.3481 80.5448 22.9313 80.7697 23.4599C80.9946 23.9886 81.3706 24.4391 81.8505 24.7551C82.3303 25.0709 82.8927 25.2382 83.4673 25.2359C83.8581 25.2436 84.2463 25.1705 84.6075 25.0212C84.9688 24.8721 85.2953 24.65 85.5669 24.3688C85.8384 24.0877 86.049 23.7534 86.1856 23.3873C86.3222 23.0211 86.3817 22.6306 86.3605 22.2403H86.3733Z" fill="#616161"/>
<path d="M91.942 12.511C91.942 12.0604 92.0756 11.6197 92.326 11.245C92.5765 10.8703 92.9323 10.5782 93.3487 10.4057C93.7651 10.2333 94.2233 10.1881 94.6653 10.276C95.1072 10.364 95.5133 10.581 95.8321 10.8997C96.1507 11.2184 96.3677 11.6245 96.4556 12.0664C96.5436 12.5084 96.4984 12.9666 96.326 13.383C96.1535 13.7993 95.8614 14.1552 95.4867 14.4056C95.112 14.656 94.6715 14.7897 94.2207 14.7897C93.6184 14.783 93.0427 14.5408 92.6168 14.1149C92.1909 13.689 91.9487 13.1133 91.942 12.511ZM92.3133 15.9034H96.1538V28.5771H92.3133V15.9034Z" fill="#616161"/>
<path d="M112.591 22.2403C112.634 23.0832 112.51 23.9263 112.226 24.721C111.942 25.5157 111.504 26.2465 110.936 26.8711C110.369 27.4958 109.683 28.002 108.919 28.3607C108.155 28.7194 107.328 28.9234 106.485 28.9612C105.769 29.0088 105.052 28.8942 104.387 28.626C103.722 28.3577 103.126 27.9428 102.644 27.4122V33.6722H98.8037V15.9034H102.644V17.094C103.127 16.5649 103.723 16.1519 104.388 15.8859C105.054 15.6197 105.77 15.5076 106.485 15.5578C107.325 15.5955 108.149 15.7985 108.91 16.1547C109.671 16.511 110.355 17.0139 110.922 17.6344C111.489 18.2549 111.928 18.981 112.215 19.7713C112.501 20.5616 112.629 21.4005 112.591 22.2403ZM108.751 22.2403C108.736 21.6456 108.545 21.0688 108.204 20.5819C107.862 20.0951 107.384 19.7198 106.83 19.5033C106.276 19.2867 105.671 19.2385 105.09 19.3646C104.508 19.4907 103.977 19.7857 103.563 20.2124C103.149 20.639 102.869 21.1785 102.76 21.7633C102.651 22.3479 102.717 22.9518 102.95 23.4992C103.183 24.0465 103.572 24.513 104.069 24.8402C104.565 25.1674 105.147 25.3406 105.742 25.3383C106.15 25.3556 106.556 25.2866 106.935 25.1358C107.314 24.985 107.657 24.7558 107.941 24.4633C108.225 24.1708 108.444 23.8214 108.583 23.4384C108.723 23.0552 108.78 22.647 108.751 22.2403Z" fill="#616161"/>
<path d="M124.279 24.775C124.279 27.6938 121.719 28.9356 119.005 28.9356C117.898 29.0352 116.787 28.8005 115.814 28.262C114.842 27.7234 114.054 26.9056 113.551 25.9144L116.854 24.0453C116.985 24.5021 117.269 24.9001 117.658 25.1728C118.047 25.4455 118.518 25.5762 118.992 25.5431C119.901 25.5431 120.362 25.2615 120.362 24.7494C120.362 23.354 114.127 24.0965 114.127 19.7055C114.127 16.9404 116.457 15.5578 119.094 15.5578C120.097 15.5128 121.093 15.7403 121.976 16.2159C122.86 16.6915 123.598 17.3975 124.113 18.2589L120.81 20C120.664 19.6697 120.426 19.3888 120.123 19.1912C119.821 18.9935 119.468 18.8876 119.107 18.8862C118.442 18.8862 118.045 19.1423 118.045 19.5903C118.045 21.0497 124.279 20.0896 124.279 24.775Z" fill="#616161"/>
<path d="M138.195 15.9034V28.5771H134.354V27.3866C133.918 27.9136 133.363 28.3306 132.737 28.6042C132.11 28.8777 131.428 29 130.744 28.9612C128.184 28.9612 125.995 27.1305 125.995 23.7125V15.9034H129.835V23.1364C129.804 23.4388 129.84 23.7441 129.94 24.0314C130.04 24.3185 130.2 24.5807 130.41 24.7999C130.621 25.0189 130.877 25.1897 131.16 25.3004C131.443 25.411 131.746 25.4589 132.05 25.4407C133.432 25.4407 134.405 24.6214 134.405 22.8804V15.9034H138.195Z" fill="#616161"/>
<path d="M159.958 20.7937V28.5771H156.117V21.1265C156.117 19.8464 155.515 19.0527 154.299 19.0527C153.083 19.0527 152.315 19.936 152.315 21.4338V28.5771H148.474V21.1265C148.474 19.8464 147.873 19.0527 146.657 19.0527C145.44 19.0527 144.672 19.936 144.672 21.4338V28.5771H140.832V15.9034H144.672V17.0684C145.07 16.5538 145.589 16.1462 146.184 15.8824C146.778 15.6187 147.43 15.5071 148.078 15.5578C148.727 15.5239 149.374 15.6596 149.956 15.9513C150.537 16.2431 151.032 16.681 151.393 17.222C151.816 16.6567 152.374 16.2076 153.016 15.9166C153.658 15.6255 154.365 15.5021 155.067 15.5578C158.063 15.5578 159.958 17.6317 159.958 20.7937Z" fill="#616161"/>
<path d="M163.184 15.8266C164.739 15.8266 166 14.5656 166 13.0102C166 11.4548 164.739 10.1939 163.184 10.1939C161.628 10.1939 160.367 11.4548 160.367 13.0102C160.367 14.5656 161.628 15.8266 163.184 15.8266Z" fill="#616161"/>
</svg>
