<svg width="21" height="21" viewBox="0 0 21 21" fill="none" xmlns="http://www.w3.org/2000/svg">
<g clip-path="url(#clip0_414_735)">
<path d="M10.1484 20.9706C15.6618 20.9706 20.1484 16.4839 20.1484 10.9706C20.1484 5.45726 15.6618 0.970581 10.1484 0.970581C4.63506 0.970581 0.148438 5.45726 0.148438 10.9706C0.148438 16.4839 4.63511 20.9706 10.1484 20.9706ZM10.1484 2.30389C14.9284 2.30389 18.8151 6.19055 18.8151 10.9706C18.8151 15.7506 14.9285 19.6373 10.1484 19.6373C5.3684 19.6373 1.48175 15.7506 1.48175 10.9706C1.48175 6.19055 5.36846 2.30389 10.1484 2.30389Z" fill="#DCF763"/>
<path d="M13.0638 14.1572C13.1872 14.2572 13.3338 14.3039 13.4805 14.3039C13.6771 14.3039 13.8705 14.2173 14.0004 14.0539C14.2304 13.7673 14.1837 13.3473 13.8971 13.1172L10.8138 10.6506V5.63724C10.8138 5.27056 10.5138 4.97058 10.1471 4.97058C9.78045 4.97058 9.48047 5.27056 9.48047 5.63724V10.9706C9.48047 11.1739 9.57382 11.3639 9.73046 11.4906L13.0638 14.1572Z" fill="#DCF763"/>
</g>
<defs>
<clipPath id="clip0_414_735">
<rect width="20" height="20" fill="white" transform="translate(0.148438 0.970581)"/>
</clipPath>
</defs>
</svg>
