<svg width="32" height="33" viewBox="0 0 32 33" fill="none" xmlns="http://www.w3.org/2000/svg">
<path d="M25.75 2H6.25C3.35051 2 1 4.35051 1 7.25V25.75C1 28.6495 3.35051 31 6.25 31H25.75C28.6495 31 31 28.6495 31 25.75V7.25C31 4.35051 28.6495 2 25.75 2Z" fill="#49021F"/>
<path d="M12.0016 10.2511V23.3136C12.0016 23.4386 11.9453 23.5011 11.8341 23.5011H9.66909C9.55659 23.5011 9.50159 23.4386 9.50159 23.3136V10.2511C9.49822 10.2283 9.50023 10.2051 9.50745 10.1832C9.51468 10.1614 9.52692 10.1415 9.5432 10.1252C9.55948 10.109 9.57935 10.0967 9.60121 10.0895C9.62307 10.0823 9.64631 10.0803 9.66909 10.0836H11.8553C11.9528 10.0836 12.0016 10.1399 12.0016 10.2511Z" fill="#FF3366"/>
<path d="M18.4797 23.7509C17.0284 23.7509 15.9122 23.3396 15.0447 22.5184C14.1772 21.6971 13.7422 20.4834 13.7422 18.8759C13.7422 17.4151 14.2084 16.2151 15.1409 15.2759C15.6184 14.7824 16.1923 14.3924 16.8268 14.1301C17.4614 13.8677 18.1431 13.7387 18.8297 13.7509C19.1367 13.7454 19.4432 13.7782 19.7422 13.8484V9.61839C19.7399 9.60254 19.7414 9.58639 19.7464 9.57119C19.7514 9.55599 19.7599 9.54216 19.7711 9.53078C19.7824 9.5194 19.7961 9.51078 19.8113 9.5056C19.8264 9.50041 19.8426 9.4988 19.8584 9.50089H22.1447C22.2097 9.50089 22.2422 9.53964 22.2422 9.61839V21.4621C22.2422 21.9621 22.4584 22.3884 22.4922 22.7534C22.4991 22.7895 22.4931 22.8269 22.4753 22.8591C22.4575 22.8913 22.429 22.9163 22.3947 22.9296C21.2722 23.4771 19.8009 23.7509 18.4797 23.7509ZM19.7422 21.8146V15.7684C19.6609 15.6259 19.2309 15.5009 18.7909 15.5009C18.4266 15.4915 18.0648 15.5635 17.7318 15.7116C17.3987 15.8598 17.103 16.0803 16.8659 16.3571C16.2894 17.0324 15.9784 17.8944 15.9909 18.7821C15.9909 19.8771 16.3659 20.6271 16.8559 21.1484C17.0873 21.4139 17.3724 21.6272 17.6924 21.7742C18.0124 21.9212 18.36 21.9984 18.7122 22.0009C19.1797 22.0009 19.6359 21.9309 19.7422 21.8146Z" fill="#FF3366"/>
</svg>
