<svg width="30" height="30" viewBox="0 0 30 30" fill="none" xmlns="http://www.w3.org/2000/svg">
<path d="M5.44869 6.35743L6.32174 8.16211L8.30221 8.43164C8.69479 8.48438 8.83541 8.97071 8.56588 9.22852L7.11862 10.6172L7.47604 12.5859C7.54635 12.9727 7.13619 13.2656 6.79635 13.0781L5.03268 12.1289L3.26901 13.0781C2.92916 13.2598 2.50143 12.9785 2.59518 12.5566L2.94674 10.6113L1.49948 9.22266C1.21823 8.95313 1.37057 8.47266 1.76901 8.41993L3.74362 8.1504L4.61666 6.34571C4.78073 6 5.28463 6.00586 5.44869 6.35743ZM5.58932 8.79493L5.03268 7.63477L4.47018 8.79493C4.40573 8.92969 4.27096 9.03516 4.11276 9.0586L2.84127 9.22852L3.77291 10.1191C3.87838 10.2246 3.93698 10.377 3.90768 10.5352L3.67916 11.8008L4.80416 11.1973C4.93893 11.127 5.10885 11.1152 5.24948 11.1973L6.38034 11.8066L6.15768 10.5645C6.12252 10.4121 6.16354 10.2422 6.28659 10.1191L7.21823 9.22852L5.95846 9.0586C5.80612 9.04102 5.65963 8.94141 5.58932 8.79493ZM15.4214 2.10938L16.2944 3.91407L18.2807 4.1836C18.6733 4.23633 18.8139 4.72266 18.5444 4.98633L17.0971 6.375L17.4546 8.34375C17.5249 8.73047 17.1147 9.02344 16.7749 8.83594L14.9995 7.88672L13.2358 8.83594C12.896 9.01758 12.4682 8.73633 12.562 8.31446L12.9135 6.36914L11.4604 4.98047C11.1792 4.71094 11.3315 4.23047 11.7299 4.17774L13.7046 3.90821L14.5776 2.10938C14.7534 1.75196 15.2514 1.75782 15.4214 2.10938ZM15.562 4.54688L14.9995 3.38672L14.4428 4.54688C14.3784 4.68165 14.2436 4.78711 14.0854 4.81055L12.8081 4.98047L13.7397 5.8711C13.851 5.97657 13.9038 6.12891 13.8745 6.28711L13.646 7.55274L14.7768 6.94922C14.9116 6.87891 15.0756 6.86719 15.2221 6.94922L16.353 7.5586L16.1303 6.31641C16.0952 6.16407 16.1362 5.99414 16.2592 5.8711L17.1909 4.98047L15.9311 4.80469C15.7729 4.79297 15.6323 4.69336 15.562 4.54688ZM25.3881 6.35743L26.2612 8.16211L28.2417 8.43164C28.6342 8.48438 28.7807 8.97071 28.5053 9.22852L27.0581 10.6172L27.4155 12.5859C27.4858 12.9727 27.0756 13.2656 26.7358 13.0781L24.9721 12.1289L23.2085 13.0781C22.8686 13.2598 22.4409 12.9785 22.5288 12.5566L22.8803 10.6113L21.4331 9.22266C21.1518 8.95313 21.3042 8.47266 21.7026 8.41993L23.6772 8.1504L24.5503 6.34571C24.7202 6 25.2241 6.00586 25.3881 6.35743ZM25.5288 8.79493L24.9721 7.63477L24.4096 8.79493C24.3452 8.92969 24.2163 9.03516 24.0522 9.0586L22.7807 9.22852L23.7065 10.1191C23.812 10.2246 23.8706 10.377 23.8413 10.5352L23.6128 11.8008L24.7436 11.1973C24.8784 11.127 25.0483 11.1152 25.1889 11.1973L26.3256 11.8066L26.103 10.5645C26.0678 10.4121 26.1089 10.2422 26.2319 10.1191L27.1577 9.22852L25.8979 9.0586C25.7456 9.04102 25.5991 8.94141 25.5288 8.79493ZM12.8256 18.3223C12.6967 18.0996 12.7729 17.8125 12.9956 17.6836C13.2182 17.5547 13.5053 17.6309 13.6342 17.8535L14.2495 18.9199L16.435 16.7344C16.6167 16.5527 16.9155 16.5527 17.0971 16.7344C17.2788 16.916 17.2788 17.2148 17.0971 17.3965L14.478 20.0156C14.2612 20.2324 13.8979 20.1856 13.7456 19.9219L12.8256 18.3223ZM14.9995 13.3711C17.5483 13.3711 19.6167 15.4395 19.6167 17.9883C19.6167 20.5371 17.5483 22.6055 14.9995 22.6055C12.4506 22.6055 10.3823 20.5371 10.3823 17.9883C10.3823 15.4395 12.4506 13.3711 14.9995 13.3711ZM17.601 15.3867C16.1655 13.9512 13.8335 13.9512 12.3979 15.3867C10.9624 16.8223 10.9624 19.1543 12.3979 20.5898C13.8335 22.0254 16.1655 22.0254 17.601 20.5898C19.0366 19.1484 19.0366 16.8223 17.601 15.3867ZM14.9995 10.4707C19.1479 10.4707 22.5112 13.834 22.5112 17.9824C22.5112 19.5527 22.0307 21.0117 21.2046 22.2188L23.4487 26.1035C23.6655 26.4668 23.3667 26.877 22.9799 26.8184L20.6831 26.4551L19.4526 27.9668C19.2358 28.2481 18.8315 28.2012 18.6733 27.9199L17.103 25.2012C15.7319 25.5996 14.2612 25.5996 12.896 25.2012L11.3256 27.9199C11.1674 28.2012 10.7631 28.2481 10.5464 27.9668L9.31588 26.4551L7.01901 26.8184C6.62643 26.8828 6.35104 26.4551 6.53854 26.1211L8.7944 22.2188C6.75534 19.2363 7.13619 15.2227 9.69088 12.668C11.0444 11.3145 12.9253 10.4707 14.9995 10.4707ZM20.5835 23.0098C19.8686 23.8066 18.9897 24.4453 17.9936 24.8789L19.1421 26.8652L20.1264 25.6582C20.2378 25.5176 20.4077 25.4648 20.5717 25.4941L22.1538 25.7461L20.5835 23.0098ZM11.9995 24.8789C11.0092 24.4453 10.1303 23.8066 9.41549 23.0156L7.83932 25.7461L9.42135 25.4941C9.57955 25.4648 9.75533 25.5234 9.86666 25.6582L10.851 26.8652L11.9995 24.8789ZM19.6518 13.3359C17.0854 10.7695 12.9194 10.7695 10.353 13.3359C7.78658 15.9023 7.78658 20.0684 10.353 22.6348C12.9253 25.2012 17.0854 25.2012 19.6518 22.6348C22.2182 20.0684 22.2182 15.9023 19.6518 13.3359Z" fill="#161616"/>
</svg>
