<svg width="24" height="25" viewBox="0 0 24 25" fill="none" xmlns="http://www.w3.org/2000/svg">
<g clip-path="url(#clip0_393_27079)">
<path d="M23.2933 18.818V17.265C23.2933 17.0533 23.1521 16.9121 22.9404 16.9121H22.2345V4.98269H22.9404C23.1521 4.98269 23.2933 4.84151 23.2933 4.62975V3.1121C23.2933 2.90034 23.1521 2.75916 22.9404 2.75916H13.5168V1.73563C13.5168 1.52387 13.3757 1.38269 13.1639 1.38269H10.7992C10.5874 1.38269 10.4463 1.52387 10.4463 1.73563V2.75916H1.05802C0.846255 2.75916 0.705078 2.90034 0.705078 3.1121V4.66504C0.705078 4.87681 0.846255 5.01798 1.05802 5.01798H1.7639V16.9121H1.05802C0.846255 16.9121 0.705078 17.0533 0.705078 17.265V18.818C0.705078 19.0298 0.846255 19.1709 1.05802 19.1709H6.52861L4.37567 23.4768C4.30508 23.5827 4.34037 23.7239 4.37567 23.8298C4.44625 23.9356 4.55214 24.0062 4.69331 24.0062H6.70508C6.84625 24.0062 6.95214 23.9356 7.02273 23.7945L9.31684 19.1709H14.6463L16.9404 23.7945C17.011 23.9003 17.1168 24.0062 17.258 24.0062H19.2698C19.5521 24.0062 19.7286 23.6533 19.5521 23.4415L17.4345 19.2062H22.9404C23.1521 19.1709 23.2933 18.9945 23.2933 18.818ZM11.1874 2.08857H12.8463V2.75916H11.1874V2.08857ZM1.41096 4.27681V3.46504H22.5874V4.3121C20.3992 4.27681 3.5992 4.27681 1.41096 4.27681ZM21.5286 4.98269V16.9121H2.46978V4.98269H21.5286ZM6.49331 23.265H5.29331L7.34037 19.1709H8.57567L6.49331 23.265ZM18.7051 23.265H17.4698L15.4227 19.1709H16.658L18.7051 23.265ZM22.5874 18.465C17.4698 18.465 6.52861 18.465 1.41096 18.465V17.618H22.5874V18.465Z" fill="#DCF763"/>
<path d="M4.16349 11.3004H8.82231C9.03408 11.3004 9.17525 11.1592 9.17525 10.9474C9.17525 10.7357 9.03408 10.5945 8.82231 10.5945H4.16349C3.95172 10.5945 3.81055 10.7357 3.81055 10.9474C3.81055 11.1592 3.98702 11.3004 4.16349 11.3004Z" fill="#DCF763"/>
<path d="M11.8587 10.5945H10.3764C10.1646 10.5945 10.0234 10.7357 10.0234 10.9474C10.0234 11.1592 10.1646 11.3004 10.3764 11.3004H11.8587C12.0705 11.3004 12.2117 11.1592 12.2117 10.9474C12.2117 10.7357 12.0705 10.5945 11.8587 10.5945Z" fill="#DCF763"/>
<path d="M11.8583 8.47681H6.98771C6.77594 8.47681 6.63477 8.61798 6.63477 8.82975C6.63477 9.04151 6.77594 9.18269 6.98771 9.18269H11.8583C12.0701 9.18269 12.2112 9.04151 12.2112 8.82975C12.2112 8.61798 12.0701 8.47681 11.8583 8.47681Z" fill="#DCF763"/>
<path d="M4.16349 9.18269H5.43408C5.64584 9.18269 5.78702 9.04151 5.78702 8.82975C5.78702 8.61798 5.64584 8.47681 5.43408 8.47681H4.16349C3.95172 8.47681 3.81055 8.61798 3.81055 8.82975C3.81055 9.04151 3.98702 9.18269 4.16349 9.18269Z" fill="#DCF763"/>
<path d="M4.16349 13.4533H5.53996C5.75172 13.4533 5.8929 13.3121 5.8929 13.1004C5.8929 12.8886 5.75172 12.7474 5.53996 12.7474H4.16349C3.95172 12.7474 3.81055 12.8886 3.81055 13.1004C3.81055 13.3121 3.98702 13.4533 4.16349 13.4533Z" fill="#DCF763"/>
<path d="M11.8586 12.7474H6.91739C6.70563 12.7474 6.56445 12.8886 6.56445 13.1004C6.56445 13.3121 6.70563 13.4533 6.91739 13.4533H11.8586C12.0703 13.4533 12.2115 13.3121 12.2115 13.1004C12.2115 12.8886 12.0703 12.7474 11.8586 12.7474Z" fill="#DCF763"/>
<path d="M4.16349 15.5709H8.85761C9.06937 15.5709 9.21055 15.4297 9.21055 15.2179C9.21055 15.0062 9.06937 14.865 8.85761 14.865H4.16349C3.95172 14.865 3.81055 15.0062 3.81055 15.2179C3.81055 15.4297 3.98702 15.5709 4.16349 15.5709Z" fill="#DCF763"/>
<path d="M11.8573 14.865H10.2338C10.022 14.865 9.88086 15.0062 9.88086 15.2179C9.88086 15.4297 10.022 15.5709 10.2338 15.5709H11.8926C12.1044 15.5709 12.2456 15.4297 12.2456 15.2179C12.2456 15.0062 12.0691 14.865 11.8573 14.865Z" fill="#DCF763"/>
<path d="M17.5404 7.02973H20.0463C20.2581 7.02973 20.3993 6.88856 20.3993 6.67679C20.3993 6.46503 20.2581 6.32385 20.0463 6.32385H17.5404C17.3287 6.32385 17.1875 6.46503 17.1875 6.67679C17.1875 6.88856 17.3287 7.02973 17.5404 7.02973Z" fill="#DCF763"/>
<path d="M10.1635 7.02973H15.8811C16.0929 7.02973 16.2341 6.88856 16.2341 6.67679C16.2341 6.46503 16.0929 6.32385 15.8811 6.32385H10.1635C9.95172 6.32385 9.81055 6.46503 9.81055 6.67679C9.81055 6.88856 9.95172 7.02973 10.1635 7.02973Z" fill="#DCF763"/>
<path d="M4.16349 7.02973H8.71643C8.92819 7.02973 9.06937 6.88856 9.06937 6.67679C9.06937 6.46503 8.92819 6.32385 8.71643 6.32385H4.16349C3.95172 6.32385 3.81055 6.46503 3.81055 6.67679C3.81055 6.88856 3.98702 7.02973 4.16349 7.02973Z" fill="#DCF763"/>
<path d="M16.1281 8.68852L15.881 9.32381C15.8104 9.3591 15.7045 9.3944 15.634 9.42969L14.9987 9.14734C14.8575 9.07675 14.7163 9.11205 14.6104 9.21793L14.081 9.74734C13.9751 9.85322 13.9398 9.9944 14.0104 10.1356L14.2928 10.7709C14.2575 10.8415 14.2222 10.9473 14.1869 11.0179L13.5516 11.265C13.4104 11.3003 13.3398 11.4415 13.3398 11.5826V12.3591C13.3398 12.5003 13.4457 12.6415 13.5516 12.6768L14.1869 12.9238C14.2222 12.9944 14.2575 13.1003 14.2928 13.1709L14.0104 13.8062C13.9398 13.9473 13.9751 14.0885 14.081 14.1944L14.6104 14.7238C14.7163 14.8297 14.8575 14.865 14.9987 14.7944L15.634 14.512C15.7045 14.5473 15.8104 14.5826 15.881 14.6179L16.1281 15.2532C16.1634 15.3944 16.3045 15.465 16.4457 15.465H17.2222C17.3634 15.465 17.5046 15.3591 17.5398 15.2532L17.7869 14.6179C17.8575 14.5826 17.9634 14.5473 18.034 14.512L18.6693 14.7944C18.8104 14.865 18.9516 14.8297 19.0575 14.7238L19.5869 14.1944C19.6928 14.0885 19.7281 13.9473 19.6575 13.8062L19.3751 13.1709C19.4104 13.1003 19.4457 12.9944 19.481 12.9238L20.1163 12.6768C20.2575 12.6062 20.3281 12.5003 20.3281 12.3591V11.6179C20.3281 11.4768 20.2222 11.3356 20.1163 11.3003L19.481 11.0532C19.4457 10.9826 19.4104 10.8768 19.3751 10.8062L19.6575 10.1709C19.7281 10.0297 19.6928 9.88852 19.5869 9.78263L19.0575 9.25322C18.9516 9.14734 18.8104 9.11205 18.6693 9.18263L18.034 9.46499C17.9634 9.42969 17.8575 9.3944 17.7869 9.3591L17.5398 8.72381C17.5046 8.58263 17.3634 8.51205 17.2222 8.51205H16.4457C16.3045 8.47675 16.1987 8.54734 16.1281 8.68852ZM16.481 9.74734L16.6928 9.18263H16.9751L17.1869 9.74734C17.2222 9.85322 17.3281 9.92381 17.434 9.9591C17.5751 9.9944 17.7163 10.065 17.8575 10.1356C17.9634 10.1709 18.0693 10.2062 18.1751 10.1356L18.7398 9.88852L18.9516 10.1003L18.7046 10.665C18.6693 10.7709 18.6693 10.8768 18.7046 10.9826C18.7751 11.1238 18.8457 11.265 18.881 11.4062C18.9163 11.512 18.9869 11.5826 19.0928 11.6532L19.6575 11.865V12.1473L19.0928 12.3591C18.9869 12.3944 18.9163 12.5003 18.881 12.6062C18.8457 12.7473 18.7751 12.8885 18.7046 13.0297C18.6693 13.1356 18.634 13.2415 18.7046 13.3473L18.9516 13.912L18.7398 14.1238L18.1751 13.8768C18.0693 13.8415 17.9634 13.8415 17.8575 13.8768C17.7163 13.9473 17.5751 14.0179 17.434 14.0532C17.3281 14.0885 17.2222 14.1591 17.1869 14.265L16.9751 14.8297H16.6928L16.481 14.265C16.4457 14.1944 16.3398 14.0885 16.234 14.0885C16.0928 14.0532 15.9516 13.9826 15.8104 13.912C15.7045 13.8415 15.5987 13.8415 15.4928 13.912L14.9281 14.1591L14.7163 13.9473L14.9634 13.3826C14.9987 13.2768 14.9987 13.1709 14.9634 13.065C14.8928 12.9238 14.8222 12.7826 14.7869 12.6415C14.7516 12.5356 14.681 12.465 14.5751 12.3944L14.0104 12.1826V11.9003L14.5751 11.6885C14.681 11.6532 14.7516 11.5473 14.7869 11.4415C14.8222 11.3003 14.8928 11.1591 14.9634 11.0179C14.9987 10.912 15.034 10.8062 14.9634 10.7003L14.7163 10.1356L14.9281 9.92381L15.4928 10.1709C15.5987 10.2062 15.7045 10.2062 15.8104 10.1709C15.9516 10.1003 16.0928 10.0297 16.234 9.9944C16.3398 9.92381 16.4457 9.85322 16.481 9.74734Z" fill="#DCF763"/>
<path d="M15.5631 12.2885C15.6689 12.818 16.0925 13.2415 16.5866 13.3121C16.6572 13.3121 16.7631 13.3474 16.8336 13.3474C17.2219 13.3474 17.6101 13.1709 17.8572 12.8532C18.1042 12.5356 18.2101 12.1474 18.1395 11.7591C18.0336 11.2297 17.6101 10.8062 17.0807 10.7356C16.5866 10.6297 16.1278 10.8415 15.8101 11.1944C15.5631 11.4768 15.4925 11.9003 15.5631 12.2885ZM16.3748 11.618C16.4807 11.4768 16.6572 11.4062 16.8336 11.4062H16.9395C17.1866 11.4415 17.3631 11.6532 17.4336 11.9003C17.4689 12.0768 17.4336 12.2885 17.2925 12.4297C17.1513 12.6062 16.9395 12.6768 16.6925 12.6415C16.4454 12.6062 16.2689 12.3944 16.1983 12.1474C16.1983 11.9709 16.2689 11.7591 16.3748 11.618Z" fill="#DCF763"/>
</g>
<defs>
<clipPath id="clip0_393_27079">
<rect width="24" height="24" fill="white" transform="translate(0 0.676758)"/>
</clipPath>
</defs>
</svg>
