<svg width="24" height="25" viewBox="0 0 24 25" fill="none" xmlns="http://www.w3.org/2000/svg">
<path fill-rule="evenodd" clip-rule="evenodd" d="M2 4.60493C2 3.61365 2.80359 2.81006 3.79487 2.81006H8.92307C9.91437 2.81006 10.7179 3.61366 10.7179 4.60493V9.73313C10.7179 10.7244 9.91436 11.528 8.92307 11.528H3.79487C2.8036 11.528 2 10.7244 2 9.73313V4.60493ZM3.79487 4.34852C3.65326 4.34852 3.53846 4.46332 3.53846 4.60493V9.73313C3.53846 9.87475 3.65325 9.98954 3.79487 9.98954H8.92307C9.0647 9.98954 9.17948 9.87476 9.17948 9.73313V4.60493C9.17948 4.46331 9.06469 4.34852 8.92307 4.34852H3.79487Z" fill="#DCF763"/>
<path fill-rule="evenodd" clip-rule="evenodd" d="M2 15.8869C2 14.8956 2.8036 14.092 3.79487 14.092H8.92307C9.91436 14.092 10.7179 14.8956 10.7179 15.8869V21.0151C10.7179 22.0064 9.91436 22.81 8.92307 22.81H3.79487C2.8036 22.81 2 22.0064 2 21.0151V15.8869ZM3.79487 15.6305C3.65325 15.6305 3.53846 15.7453 3.53846 15.8869V21.0151C3.53846 21.1568 3.65325 21.2715 3.79487 21.2715H8.92307C9.0647 21.2715 9.17948 21.1568 9.17948 21.0151V15.8869C9.17948 15.7453 9.0647 15.6305 8.92307 15.6305H3.79487Z" fill="#DCF763"/>
<path fill-rule="evenodd" clip-rule="evenodd" d="M13.2812 4.60493C13.2812 3.61366 14.0848 2.81006 15.0761 2.81006H20.2043C21.1956 2.81006 21.9992 3.61366 21.9992 4.60493V9.73313C21.9992 10.7244 21.1956 11.528 20.2043 11.528H15.0761C14.0848 11.528 13.2812 10.7244 13.2812 9.73313V4.60493ZM15.0761 4.34852C14.9345 4.34852 14.8197 4.46331 14.8197 4.60493V9.73313C14.8197 9.87476 14.9345 9.98954 15.0761 9.98954H20.2043C20.346 9.98954 20.4607 9.87476 20.4607 9.73313V4.60493C20.4607 4.46331 20.346 4.34852 20.2043 4.34852H15.0761Z" fill="#DCF763"/>
<path fill-rule="evenodd" clip-rule="evenodd" d="M13.2812 15.8869C13.2812 14.8956 14.0848 14.092 15.0761 14.092H20.2043C21.1956 14.092 21.9992 14.8956 21.9992 15.8869V21.0151C21.9992 22.0064 21.1956 22.81 20.2043 22.81H15.0761C14.0848 22.81 13.2812 22.0064 13.2812 21.0151V15.8869ZM15.0761 15.6305C14.9345 15.6305 14.8197 15.7453 14.8197 15.8869V21.0151C14.8197 21.1568 14.9345 21.2715 15.0761 21.2715H20.2043C20.346 21.2715 20.4607 21.1568 20.4607 21.0151V15.8869C20.4607 15.7453 20.346 15.6305 20.2043 15.6305H15.0761Z" fill="#DCF763"/>
</svg>
