<svg width="32" height="32" viewBox="0 0 32 32" fill="none" xmlns="http://www.w3.org/2000/svg">
<path d="M25.75 1.5H6.25C3.35051 1.5 1 3.85051 1 6.75V25.25C1 28.1495 3.35051 30.5 6.25 30.5H25.75C28.6495 30.5 31 28.1495 31 25.25V6.75C31 3.85051 28.6495 1.5 25.75 1.5Z" fill="#470137"/>
<path d="M16.4215 9.70474L12.7315 16.0447L16.7077 22.7947C16.789 22.9322 16.754 22.9997 16.6052 22.9997H14.1252C14.0638 23.0062 14.0019 22.9941 13.9475 22.9649C13.8931 22.9357 13.8487 22.8907 13.8202 22.836L11.0215 17.7022H11.0002L8.27522 22.836C8.25016 22.8848 8.21223 22.9259 8.16553 22.9548C8.11882 22.9836 8.06512 22.9992 8.01022 22.9997H5.62522C5.48897 22.9997 5.46272 22.9322 5.54397 22.7947L9.45397 16.2297L5.72897 9.66349C5.64772 9.55474 5.67522 9.49974 5.81022 9.49974H8.29522C8.3485 9.49592 8.40176 9.50743 8.44872 9.5329C8.49567 9.55837 8.53436 9.59675 8.56022 9.64349L11.1852 14.716H11.2052L13.8165 9.64349C13.8422 9.59695 13.8807 9.55871 13.9274 9.53325C13.9741 9.50779 14.0271 9.49617 14.0802 9.49974H16.3402C16.4902 9.49974 16.5165 9.56849 16.4215 9.70474Z" fill="#FF61F6"/>
<path d="M22.4837 23.2499C21.0337 23.2499 19.9175 22.8387 19.0513 22.0174C18.185 21.1962 17.75 19.9824 17.75 18.3749C17.75 16.9141 18.2158 15.7141 19.1475 14.7749C19.6242 14.2815 20.1974 13.8915 20.8314 13.6291C21.4653 13.3667 22.1465 13.2377 22.8325 13.2499C23.1395 13.2444 23.4461 13.2772 23.745 13.3474V9.11741C23.7427 9.10156 23.7442 9.08541 23.7492 9.07021C23.7542 9.05501 23.7627 9.04118 23.774 9.0298C23.7852 9.01843 23.799 9.00981 23.8141 9.00462C23.8292 8.99943 23.8454 8.99782 23.8612 8.99991H26.1462C26.21 8.99991 26.2425 9.03866 26.2425 9.11741V20.9612C26.2425 21.4612 26.4588 21.8874 26.4925 22.2524C26.4994 22.2886 26.4934 22.326 26.4756 22.3582C26.4578 22.3904 26.4293 22.4153 26.395 22.4287C25.2738 22.9762 23.8037 23.2499 22.4837 23.2499ZM23.75 21.3137V15.2674C23.6687 15.1249 23.2387 14.9999 22.7987 14.9999C22.4346 14.9905 22.0729 15.0624 21.7401 15.2106C21.4073 15.3587 21.1117 15.5793 20.875 15.8562C20.2985 16.5314 19.9874 17.3934 20 18.2812C20 19.3762 20.375 20.1262 20.8638 20.6474C21.0948 20.9123 21.3793 21.1253 21.6986 21.2722C22.0179 21.4192 22.3648 21.4968 22.7162 21.4999C23.1825 21.4999 23.6388 21.4299 23.75 21.3137Z" fill="#FF61F6"/>
</svg>
