<svg width="32" height="32" viewBox="0 0 32 32" fill="none" xmlns="http://www.w3.org/2000/svg">
<g clip-path="url(#clip0_1526_140)">
<path d="M5.66504 0.570312H26.335C29.4636 0.570312 32 3.10666 32 6.23535V25.7624C32 28.8911 29.4636 31.4274 26.335 31.4274H5.66504C2.53635 31.4274 0 28.8912 0 25.7624V6.23535C0 3.10666 2.53635 0.570312 5.66504 0.570312Z" fill="#49021F"/>
<path d="M13.0475 8.74887V21.9989C13.0475 22.14 12.9841 22.2106 12.8572 22.2104L10.4776 22.2499C10.3644 22.2499 10.3086 22.1796 10.3086 22.0384V8.78837C10.3086 8.67567 10.3716 8.61913 10.4989 8.61913L12.8785 8.57963C12.9602 8.56802 13.036 8.62487 13.0476 8.70668C13.0495 8.72066 13.0495 8.73489 13.0475 8.74887Z" fill="#FF3366"/>
<path d="M22.8589 19.8138V21.9915C22.8624 22.0698 22.8215 22.1433 22.7532 22.1818C22.4414 22.3176 22.1101 22.4033 21.7716 22.4356C21.3486 22.4779 20.9398 22.499 20.5453 22.499C19.7449 22.5118 18.9491 22.3755 18.1985 22.0973C17.5373 21.8491 16.9383 21.4595 16.4435 20.9555C15.9612 20.4578 15.5837 19.8682 15.3336 19.2219C15.0693 18.5412 14.9366 17.8166 14.9424 17.0864C14.9231 16.0885 15.1792 15.1046 15.6823 14.2427C16.183 13.4113 16.9037 12.7344 17.765 12.2871C18.7355 11.7901 19.8147 11.5429 20.9048 11.5682C21.3219 11.5605 21.739 11.5853 22.1523 11.6422C22.35 11.6772 22.544 11.7303 22.7321 11.8007C22.8075 11.8529 22.8481 11.9422 22.8378 12.0333L22.8169 14.2626C22.8169 14.3894 22.7603 14.4391 22.6476 14.4106C22.4632 14.3252 22.2682 14.2647 22.0678 14.2309C21.7179 14.1776 21.3644 14.1529 21.0106 14.1568C20.476 14.1322 19.9424 14.2228 19.4459 14.4225C18.9931 14.6234 18.6103 14.9546 18.3466 15.3738C18.0621 15.8601 17.9227 16.4177 17.9447 16.9807C17.9106 17.595 18.0777 18.2037 18.4208 18.7145C18.724 19.1272 19.1435 19.44 19.6255 19.613C20.0961 19.7865 20.5935 19.8759 21.0951 19.8773C21.4341 19.8788 21.7729 19.8612 22.1099 19.8244C22.3086 19.8056 22.5037 19.7593 22.6897 19.687C22.8023 19.6589 22.8588 19.7012 22.8589 19.8138Z" fill="#FF3366"/>
</g>
<defs>
<clipPath id="clip0_1526_140">
<rect width="32" height="32" fill="white"/>
</clipPath>
</defs>
</svg>
