<svg width="24" height="25" viewBox="0 0 24 25" fill="none" xmlns="http://www.w3.org/2000/svg">
<g clip-path="url(#clip0_396_27126)">
<path d="M7.5 13.8242C6.60998 13.8242 5.73995 13.5603 4.99993 13.0658C4.25991 12.5714 3.68314 11.8686 3.34254 11.0463C3.00195 10.224 2.91283 9.31923 3.08647 8.44632C3.2601 7.5734 3.68868 6.77158 4.31802 6.14224C4.94736 5.5129 5.74918 5.08432 6.62209 4.91069C7.49501 4.73705 8.39981 4.82617 9.22208 5.16676C10.0443 5.50736 10.7471 6.08413 11.2416 6.82415C11.7361 7.56418 12 8.43421 12 9.32422C11.9987 10.5173 11.5241 11.6611 10.6805 12.5047C9.83689 13.3484 8.69307 13.8229 7.5 13.8242ZM7.5 6.82422C7.00555 6.82422 6.5222 6.97084 6.11107 7.24555C5.69995 7.52025 5.37952 7.9107 5.1903 8.36751C5.00108 8.82433 4.95157 9.327 5.04804 9.81195C5.1445 10.2969 5.3826 10.7424 5.73223 11.092C6.08186 11.4416 6.52732 11.6797 7.01227 11.7762C7.49723 11.8726 7.99989 11.8231 8.45671 11.6339C8.91352 11.4447 9.30397 11.1243 9.57867 10.7131C9.85338 10.302 10 9.81868 10 9.32422C10 8.66118 9.73661 8.0253 9.26777 7.55645C8.79893 7.08761 8.16304 6.82422 7.5 6.82422ZM15 23.8242V23.3242C15 21.3351 14.2098 19.4274 12.8033 18.0209C11.3968 16.6144 9.48912 15.8242 7.5 15.8242C5.51088 15.8242 3.60322 16.6144 2.1967 18.0209C0.790176 19.4274 0 21.3351 0 23.3242L0 23.8242C0 24.0894 0.105357 24.3438 0.292893 24.5313C0.48043 24.7189 0.734784 24.8242 1 24.8242C1.26522 24.8242 1.51957 24.7189 1.70711 24.5313C1.89464 24.3438 2 24.0894 2 23.8242V23.3242C2 21.8655 2.57946 20.4666 3.61091 19.4351C4.64236 18.4037 6.04131 17.8242 7.5 17.8242C8.95869 17.8242 10.3576 18.4037 11.3891 19.4351C12.4205 20.4666 13 21.8655 13 23.3242V23.8242C13 24.0894 13.1054 24.3438 13.2929 24.5313C13.4804 24.7189 13.7348 24.8242 14 24.8242C14.2652 24.8242 14.5196 24.7189 14.7071 24.5313C14.8946 24.3438 15 24.0894 15 23.8242ZM24 18.8242C24 17.4729 23.6088 16.1505 22.8737 15.0166C22.1386 13.8827 21.091 12.9858 19.8574 12.4342C18.6238 11.8826 17.2569 11.6998 15.9218 11.908C14.5866 12.1161 13.3402 12.7063 12.333 13.6072C12.2338 13.6944 12.1528 13.8004 12.0948 13.9191C12.0367 14.0378 12.0028 14.1668 11.9949 14.2986C11.987 14.4305 12.0053 14.5626 12.0487 14.6874C12.0922 14.8121 12.1599 14.927 12.2481 15.0254C12.3362 15.1239 12.4429 15.2038 12.5621 15.2608C12.6813 15.3177 12.8106 15.3505 12.9426 15.3571C13.0745 15.3638 13.2064 15.3443 13.3308 15.2997C13.4551 15.2551 13.5694 15.1862 13.667 15.0972C14.3865 14.4538 15.2767 14.0324 16.2304 13.8839C17.1841 13.7353 18.1604 13.866 19.0414 14.26C19.9225 14.6541 20.6706 15.2947 21.1956 16.1046C21.7206 16.9145 22 17.8591 22 18.8242C22 19.0894 22.1054 19.3438 22.2929 19.5313C22.4804 19.7189 22.7348 19.8242 23 19.8242C23.2652 19.8242 23.5196 19.7189 23.7071 19.5313C23.8946 19.3438 24 19.0894 24 18.8242ZM17.5 9.82422C16.61 9.82422 15.74 9.5603 14.9999 9.06583C14.2599 8.57137 13.6831 7.86856 13.3425 7.0463C13.0019 6.22403 12.9128 5.31923 13.0865 4.44631C13.2601 3.5734 13.6887 2.77158 14.318 2.14224C14.9474 1.5129 15.7492 1.08432 16.6221 0.910687C17.495 0.737054 18.3998 0.826169 19.2221 1.16676C20.0443 1.50736 20.7471 2.08413 21.2416 2.82415C21.7361 3.56418 22 4.43421 22 5.32422C21.9987 6.51729 21.5241 7.66111 20.6805 8.50474C19.8369 9.34837 18.6931 9.8229 17.5 9.82422ZM17.5 2.82422C17.0055 2.82422 16.5222 2.97084 16.1111 3.24555C15.7 3.52025 15.3795 3.9107 15.1903 4.36751C15.0011 4.82433 14.9516 5.32699 15.048 5.81195C15.1445 6.2969 15.3826 6.74236 15.7322 7.09199C16.0819 7.44162 16.5273 7.67972 17.0123 7.77619C17.4972 7.87265 17.9999 7.82314 18.4567 7.63392C18.9135 7.4447 19.304 7.12427 19.5787 6.71315C19.8534 6.30202 20 5.81867 20 5.32422C20 4.66118 19.7366 4.0253 19.2678 3.55645C18.7989 3.08761 18.163 2.82422 17.5 2.82422Z" fill="#DCF763"/>
</g>
<defs>
<clipPath id="clip0_396_27126">
<rect width="24" height="24" fill="white" transform="translate(0 0.824219)"/>
</clipPath>
</defs>
</svg>
