<svg width="58" height="59" viewBox="0 0 58 59" fill="none" xmlns="http://www.w3.org/2000/svg">
<path d="M11.3589 43.6028C8.94219 40.9445 7.49219 38.0445 7.49219 33.2111C7.49219 24.7528 13.5339 17.2611 21.9922 13.3945L24.1672 16.5361C16.1922 20.8861 14.5005 26.4445 14.0172 30.0695C15.2255 29.3445 16.9172 29.1028 18.6089 29.3445C22.9589 29.8278 26.3422 33.2111 26.3422 37.8028C26.3422 39.9778 25.3755 42.1528 23.9255 43.8445C22.2339 45.5361 20.3005 46.2611 17.8839 46.2611C15.2255 46.2611 12.8089 45.0528 11.3589 43.6028ZM35.5255 43.6028C33.1089 40.9445 31.6589 38.0445 31.6589 33.2111C31.6589 24.7528 37.7005 17.2611 46.1589 13.3945L48.3339 16.5361C40.3589 20.8861 38.6672 26.4445 38.1839 30.0695C39.3922 29.3445 41.0839 29.1028 42.7755 29.3445C47.1255 29.8278 50.5089 33.2111 50.5089 37.8028C50.5089 39.9778 49.5422 42.1528 48.0922 43.8445C46.6422 45.5361 44.4672 46.2611 42.0505 46.2611C39.3922 46.2611 36.9755 45.0528 35.5255 43.6028Z" fill="#1C1C1C"/>
</svg>
