<svg width="24" height="25" viewBox="0 0 24 25" fill="none" xmlns="http://www.w3.org/2000/svg">
<path fill-rule="evenodd" clip-rule="evenodd" d="M7.38476 2.41602C7.59718 2.41602 7.76937 2.58821 7.76937 2.80063V3.18525H16.2309V2.80063C16.2309 2.58821 16.4031 2.41602 16.6155 2.41602C16.8279 2.41602 17.0001 2.58821 17.0001 2.80063V3.18525H19.6924C20.7545 3.18525 21.6155 4.04624 21.6155 5.10832V17.7045C21.6155 17.8222 21.5617 17.9334 21.4692 18.0063L15.9885 22.3333C15.8728 22.4246 15.7151 22.4418 15.5824 22.3775C15.4498 22.3133 15.3655 22.1787 15.3655 22.0314V19.2429C15.3655 18.1808 16.2265 17.3198 17.2886 17.3198H20.8463V8.56985H17.6732C17.4608 8.56985 17.2886 8.39766 17.2886 8.18524C17.2886 7.97282 17.4608 7.80062 17.6732 7.80062H20.8463V5.10832C20.8463 4.47107 20.3297 3.95448 19.6924 3.95448H17.0001V5.30063C17.0001 5.51305 16.8279 5.68524 16.6155 5.68524C16.4031 5.68524 16.2309 5.51305 16.2309 5.30063V3.95448H7.76937V5.30063C7.76937 5.51305 7.59718 5.68524 7.38476 5.68524C7.17234 5.68524 7.00014 5.51305 7.00014 5.30063V3.95448H4.30784C3.67059 3.95448 3.154 4.47107 3.154 5.10832V7.80062H14.0194C14.2318 7.80062 14.404 7.97282 14.404 8.18524C14.404 8.39766 14.2318 8.56985 14.0194 8.56985H3.154V20.4929C3.154 21.1302 3.67059 21.6468 4.30784 21.6468H14.2117C14.4241 21.6468 14.5963 21.8189 14.5963 22.0314C14.5963 22.2439 14.4241 22.416 14.2117 22.416H4.30784C3.24576 22.416 2.38477 21.555 2.38477 20.4929V5.10832C2.38477 4.04624 3.24576 3.18525 4.30784 3.18525H7.00014V2.80063C7.00014 2.58821 7.17234 2.41602 7.38476 2.41602ZM20.123 18.0891H17.2886C16.6513 18.0891 16.1347 18.6057 16.1347 19.2429V21.2377L20.123 18.0891Z" fill="#DCF763"/>
<path d="M14.8848 8.18527C14.8848 7.97285 15.057 7.80066 15.2694 7.80066H16.3271C16.5395 7.80066 16.7117 7.97285 16.7117 8.18527C16.7117 8.3977 16.5395 8.56989 16.3271 8.56989H15.2694C15.057 8.56989 14.8848 8.3977 14.8848 8.18527Z" fill="#DCF763"/>
<path fill-rule="evenodd" clip-rule="evenodd" d="M6.42142 10.3007C5.78417 10.3007 5.26758 10.8173 5.26758 11.4545V12.2237C5.26758 12.861 5.78417 13.3776 6.42142 13.3776H7.19065C7.8279 13.3776 8.3445 12.861 8.3445 12.2237V11.4545C8.3445 10.8173 7.8279 10.3007 7.19065 10.3007H6.42142ZM6.03681 11.4545C6.03681 11.2421 6.209 11.0699 6.42142 11.0699H7.19065C7.40308 11.0699 7.57527 11.2421 7.57527 11.4545V12.2237C7.57527 12.4362 7.40308 12.6083 7.19065 12.6083H6.42142C6.209 12.6083 6.03681 12.4362 6.03681 12.2237V11.4545Z" fill="#DCF763"/>
<path fill-rule="evenodd" clip-rule="evenodd" d="M5.26758 16.6468C5.26758 16.0095 5.78417 15.4929 6.42142 15.4929H7.19065C7.8279 15.4929 8.3445 16.0095 8.3445 16.6468V17.416C8.3445 18.0532 7.8279 18.5698 7.19065 18.5698H6.42142C5.78417 18.5698 5.26758 18.0532 5.26758 17.416V16.6468ZM6.42142 16.2621C6.209 16.2621 6.03681 16.4343 6.03681 16.6468V17.416C6.03681 17.6284 6.209 17.8006 6.42142 17.8006H7.19065C7.40308 17.8006 7.57527 17.6284 7.57527 17.416V16.6468C7.57527 16.4343 7.40308 16.2621 7.19065 16.2621H6.42142Z" fill="#DCF763"/>
<path fill-rule="evenodd" clip-rule="evenodd" d="M11.6128 10.3007C10.9756 10.3007 10.459 10.8173 10.459 11.4545V12.2237C10.459 12.861 10.9756 13.3776 11.6128 13.3776H12.3821C13.0193 13.3776 13.5359 12.861 13.5359 12.2237V11.4545C13.5359 10.8173 13.0193 10.3007 12.3821 10.3007H11.6128ZM11.2282 11.4545C11.2282 11.2421 11.4004 11.0699 11.6128 11.0699H12.3821C12.5945 11.0699 12.7667 11.2421 12.7667 11.4545V12.2237C12.7667 12.4362 12.5945 12.6083 12.3821 12.6083H11.6128C11.4004 12.6083 11.2282 12.4362 11.2282 12.2237V11.4545Z" fill="#DCF763"/>
<path fill-rule="evenodd" clip-rule="evenodd" d="M10.459 16.6468C10.459 16.0095 10.9756 15.4929 11.6128 15.4929H12.3821C13.0193 15.4929 13.5359 16.0095 13.5359 16.6468V17.416C13.5359 18.0532 13.0193 18.5698 12.3821 18.5698H11.6128C10.9756 18.5698 10.459 18.0532 10.459 17.416V16.6468ZM11.6128 16.2621C11.4004 16.2621 11.2282 16.4343 11.2282 16.6468V17.416C11.2282 17.6284 11.4004 17.8006 11.6128 17.8006H12.3821C12.5945 17.8006 12.7667 17.6284 12.7667 17.416V16.6468C12.7667 16.4343 12.5945 16.2621 12.3821 16.2621H11.6128Z" fill="#DCF763"/>
<path fill-rule="evenodd" clip-rule="evenodd" d="M16.8062 10.3007C16.1689 10.3007 15.6523 10.8173 15.6523 11.4545V12.2237C15.6523 12.861 16.1689 13.3776 16.8062 13.3776H17.5754C18.2127 13.3776 18.7293 12.861 18.7293 12.2237V11.4545C18.7293 10.8173 18.2127 10.3007 17.5754 10.3007H16.8062ZM16.4216 11.4545C16.4216 11.2421 16.5938 11.0699 16.8062 11.0699H17.5754C17.7878 11.0699 17.96 11.2421 17.96 11.4545V12.2237C17.96 12.4362 17.7878 12.6083 17.5754 12.6083H16.8062C16.5938 12.6083 16.4216 12.4362 16.4216 12.2237V11.4545Z" fill="#DCF763"/>
</svg>
