<svg width="30" height="30" viewBox="0 0 30 30" fill="none" xmlns="http://www.w3.org/2000/svg">
<g clip-path="url(#clip0_405_77)">
<path d="M29.5312 6.40734V6.09375C29.5312 2.99203 27.008 0.46875 23.9062 0.46875C20.8045 0.46875 18.2812 2.99203 18.2812 6.09375V6.40734C18.2812 7.52203 18.608 8.60109 19.2262 9.52734L21.518 12.9652C20.0836 13.3702 19.2188 14.1211 19.2188 15V21.053C18.7467 20.7431 18.1116 20.498 17.3438 20.3405V17.6517C17.3438 17.0255 17.0995 16.4367 16.657 15.9942L13.5938 12.9309V10.2464C16.0261 9.77719 17.8125 7.64766 17.8125 5.13047V2.10938C17.8125 1.20469 17.0766 0.46875 16.1719 0.46875C15.2672 0.46875 14.5312 1.20469 14.5312 2.10938V4.48594C14.5312 5.53453 13.8473 6.42609 12.8812 6.72328C13.3261 6.16313 13.5938 5.45672 13.5938 4.6875C13.5938 2.87812 12.1214 1.40625 10.3125 1.40625C8.50359 1.40625 7.03125 2.87812 7.03125 4.6875C7.03125 5.63156 7.43438 6.48094 8.07422 7.08C5.92453 7.32891 3.96797 8.56922 2.8425 10.4447L0.692813 14.0278C0.546094 14.2716 0.46875 14.5509 0.46875 14.8364C0.46875 15.7022 1.17328 16.4062 2.03906 16.4062H2.22375C2.74969 16.4062 3.23813 16.1447 3.52969 15.7073L6.43266 11.3527C6.58031 11.1305 6.79078 10.9641 7.03125 10.8698V15.8719L5.22656 22.1883C5.22516 22.193 5.22469 22.1977 5.22375 22.2019C3.43828 22.5525 2.34375 23.3695 2.34375 24.375V27.1875C2.34375 28.5239 4.35891 29.5312 7.03125 29.5312C8.93812 29.5312 10.5056 29.0166 11.25 28.2375C11.9944 29.017 13.5619 29.5312 15.4688 29.5312C17.3756 29.5312 18.9431 29.0166 19.6875 28.2375C20.4319 29.017 21.9994 29.5312 23.9062 29.5312C26.5786 29.5312 28.5938 28.5239 28.5938 27.1875V15C28.5938 14.1202 27.7289 13.3702 26.2945 12.9656L28.5863 9.52781C29.2045 8.60109 29.5312 7.52203 29.5312 6.40734ZM17.3231 21.2967C18.5573 21.5831 19.2188 22.1039 19.2188 22.5C19.2188 23.0737 17.7581 23.9062 15.4688 23.9062C13.1794 23.9062 11.7188 23.0737 11.7188 22.5C11.7188 22.1039 12.3802 21.5831 13.6144 21.2967C13.717 22.2342 14.5041 22.9688 15.4688 22.9688C16.4334 22.9688 17.2205 22.2342 17.3231 21.2967ZM10.7812 22.9308C10.3552 22.6505 9.79547 22.4231 9.12609 22.2652L11.1089 15.9867L13.5938 18.4191V20.3405C11.8486 20.6981 10.7812 21.5077 10.7812 22.5V22.9308ZM10.7681 12.0066L10.3125 12.4622L9.85687 12.0066L10.1264 7.96688H10.2698C10.2844 7.96688 10.298 7.96875 10.3125 7.96875C10.328 7.96875 10.3425 7.96688 10.3575 7.96641H10.3594H10.3608C10.4072 7.96594 10.4522 7.96219 10.4981 7.95937L10.7681 12.0066ZM7.96875 4.6875C7.96875 3.39516 9.02016 2.34375 10.3125 2.34375C11.6048 2.34375 12.6562 3.39516 12.6562 4.6875C12.6562 5.97984 11.6048 7.03125 10.3125 7.03125C9.02016 7.03125 7.96875 5.97984 7.96875 4.6875ZM6.09375 22.6894C6.09375 22.6069 6.105 22.5253 6.12797 22.4461L7.95094 16.0659L7.96875 9.84375H7.5C6.75609 9.84375 6.06516 10.2136 5.65266 10.8323L2.74969 15.187C2.63156 15.3633 2.43516 15.4688 2.22328 15.4688H2.03906C1.68984 15.4688 1.40625 15.1852 1.40625 14.8364C1.40625 14.7216 1.43719 14.6091 1.49625 14.5111L3.64641 10.9275C4.74141 9.10219 6.74391 7.96875 8.87203 7.96875L9.18656 7.96828L8.89313 12.3684L10.3125 13.7878L11.7319 12.3684L11.4309 7.85906L12.5138 7.75078C14.1984 7.5825 15.4688 6.17859 15.4688 4.48594V2.10938C15.4688 1.72172 15.7842 1.40625 16.1719 1.40625C16.5595 1.40625 16.875 1.72172 16.875 2.10938V5.13047C16.875 7.31109 15.2409 9.13688 13.0734 9.37828L12.6562 9.42422V13.3191L15.9942 16.657C16.26 16.9228 16.4062 17.2758 16.4062 17.6517V21.0938C16.4062 21.6108 15.9858 22.0312 15.4688 22.0312C14.9517 22.0312 14.5312 21.6108 14.5312 21.0938V18.4191C14.5312 18.1687 14.4286 17.9245 14.2491 17.7487L11.4413 15H10.4377L7.82016 23.2889C7.70391 23.6583 7.365 23.9062 6.97781 23.9062C6.49031 23.9062 6.09375 23.5097 6.09375 23.0222V22.6894ZM5.17125 23.1727C5.24953 24.1059 6.02484 24.8438 6.97781 24.8438C7.77609 24.8438 8.47359 24.3323 8.71406 23.5706L8.84203 23.1647C10.1006 23.4506 10.7812 23.9794 10.7812 24.375C10.7812 24.9487 9.32063 25.7812 7.03125 25.7812C4.74188 25.7812 3.28125 24.9487 3.28125 24.375C3.28125 23.9794 3.94078 23.4595 5.17125 23.1727ZM7.03125 28.5938C4.74188 28.5938 3.28125 27.7612 3.28125 27.1875V25.8112C4.12219 26.3695 5.46141 26.7188 7.03125 26.7188C8.60109 26.7188 9.94031 26.3695 10.7812 25.8112V27.1875C10.7812 27.7612 9.32063 28.5938 7.03125 28.5938ZM15.4688 28.5938C13.1794 28.5938 11.7188 27.7612 11.7188 27.1875V24.375V23.9362C12.5597 24.4945 13.8989 24.8438 15.4688 24.8438C17.0386 24.8438 18.3778 24.4945 19.2188 23.9362V27.1875C19.2188 27.7612 17.7581 28.5938 15.4688 28.5938ZM23.9062 28.5938C21.6169 28.5938 20.1562 27.7612 20.1562 27.1875V22.5V16.4362C20.9972 16.9945 22.3364 17.3438 23.9062 17.3438C25.4761 17.3438 26.8153 16.9945 27.6562 16.4362V27.1875C27.6562 27.7612 26.1956 28.5938 23.9062 28.5938ZM27.6562 15C27.6562 15.5737 26.1956 16.4062 23.9062 16.4062C21.6169 16.4062 20.1562 15.5737 20.1562 15C20.1562 14.6142 20.8303 14.0845 22.072 13.7962L22.7878 14.8697C23.0372 15.2447 23.4558 15.4688 23.9062 15.4688C24.3567 15.4688 24.7753 15.2447 25.0252 14.8702L25.7409 13.7967C26.9827 14.0845 27.6562 14.6133 27.6562 15ZM24.2452 14.3498C24.0942 14.5767 23.7188 14.5767 23.5678 14.3498L20.0063 9.0075C19.4911 8.23547 19.2188 7.33641 19.2188 6.40734V6.09375C19.2188 3.50906 21.3216 1.40625 23.9062 1.40625C26.4909 1.40625 28.5938 3.50906 28.5938 6.09375V6.40734C28.5938 7.33594 28.3214 8.235 27.8062 9.0075L24.2452 14.3498Z" fill="#161616"/>
<path d="M23.9062 2.34375C21.8386 2.34375 20.1562 4.02609 20.1562 6.09375C20.1562 8.16141 21.8386 9.84375 23.9062 9.84375C25.9739 9.84375 27.6562 8.16141 27.6562 6.09375C27.6562 4.02609 25.9739 2.34375 23.9062 2.34375ZM23.9062 8.90625C22.3552 8.90625 21.0938 7.64484 21.0938 6.09375C21.0938 4.54266 22.3552 3.28125 23.9062 3.28125C25.4573 3.28125 26.7188 4.54266 26.7188 6.09375C26.7188 7.64484 25.4573 8.90625 23.9062 8.90625Z" fill="#161616"/>
<path d="M21.0938 18.2812H22.0312V19.2188H21.0938V18.2812Z" fill="#161616"/>
<path d="M21.0938 20.1562H22.0312V26.7188H21.0938V20.1562Z" fill="#161616"/>
</g>
<defs>
<clipPath id="clip0_405_77">
<rect width="30" height="30" fill="white"/>
</clipPath>
</defs>
</svg>
