<svg width="32" height="32" viewBox="0 0 32 32" fill="none" xmlns="http://www.w3.org/2000/svg">
<path d="M25.75 1.5H6.25C3.35051 1.5 1 3.85051 1 6.75V25.25C1 28.1495 3.35051 30.5 6.25 30.5H25.75C28.6495 30.5 31 28.1495 31 25.25V6.75C31 3.85051 28.6495 1.5 25.75 1.5Z" fill="#330000"/>
<path d="M16.0986 19.5H11.6248L10.4698 22.835C10.4565 22.945 10.3869 23 10.2611 23H8.1611C8.0211 23 7.97235 22.9313 8.01485 22.7938L12.0673 10.7575C12.1818 10.391 12.2383 10.0089 12.2348 9.625C12.2326 9.60805 12.2343 9.59081 12.2397 9.57461C12.2452 9.55842 12.2544 9.5437 12.2665 9.53161C12.2785 9.51952 12.2933 9.51037 12.3095 9.50489C12.3257 9.49941 12.3429 9.49774 12.3598 9.5H15.2998C15.3848 9.5 15.4336 9.535 15.4473 9.6025L19.9823 22.815C20.0248 22.94 19.9898 23 19.8773 23H17.5261C17.4826 23.0026 17.4393 22.9921 17.4019 22.9698C17.3644 22.9475 17.3345 22.9145 17.3161 22.875L16.0986 19.5ZM12.1248 17.25H15.6098C15.5261 17.0663 13.9586 12.0088 13.8461 11.5825H13.8261L12.1248 17.25Z" fill="#FF9A00"/>
<path d="M22.4888 12C22.2916 12.0084 22.0949 11.9773 21.91 11.9083C21.7251 11.8394 21.556 11.7342 21.4125 11.5988C21.2721 11.456 21.1629 11.2856 21.0919 11.0984C21.0209 10.9112 20.9896 10.7112 21 10.5113C20.9907 10.3087 21.0236 10.1065 21.0965 9.91738C21.1694 9.72824 21.2809 9.55632 21.4238 9.4125C21.5684 9.27481 21.7391 9.16739 21.9259 9.09656C22.1126 9.02572 22.3116 8.99289 22.5113 9C22.7112 8.98959 22.9112 9.02088 23.0984 9.09189C23.2856 9.16291 23.456 9.27209 23.5988 9.4125C23.7354 9.55971 23.8413 9.73273 23.9102 9.92141C23.9791 10.1101 24.0096 10.3106 24 10.5113C24.0104 10.7112 23.9791 10.9112 23.9081 11.0984C23.8371 11.2856 23.7279 11.456 23.5875 11.5988C23.4403 11.7354 23.2673 11.8413 23.0786 11.9102C22.8899 11.9791 22.6894 12.0096 22.4888 12Z" fill="#FF9A00"/>
<path d="M21.2496 22.8126V13.1676C21.2463 13.1448 21.2483 13.1216 21.2555 13.0997C21.2627 13.0779 21.275 13.058 21.2912 13.0417C21.3075 13.0255 21.3274 13.0132 21.3493 13.006C21.3711 12.9988 21.3944 12.9968 21.4171 13.0001H23.5821C23.6049 12.997 23.628 12.9992 23.6497 13.0065C23.6715 13.0139 23.6912 13.0261 23.7074 13.0423C23.7237 13.0585 23.7359 13.0783 23.7432 13.1C23.7505 13.1218 23.7527 13.1449 23.7496 13.1676V22.8326C23.753 22.8554 23.751 22.8786 23.7438 22.9005C23.7365 22.9224 23.7243 22.9422 23.708 22.9585C23.6917 22.9748 23.6719 22.987 23.65 22.9943C23.6282 23.0015 23.6049 23.0035 23.5821 23.0001H21.4371C21.4117 23.0037 21.3858 23.0012 21.3614 22.9931C21.3371 22.9849 21.3149 22.9712 21.2968 22.953C21.2786 22.9348 21.2649 22.9127 21.2567 22.8883C21.2485 22.864 21.2461 22.8381 21.2496 22.8126Z" fill="#FF9A00"/>
</svg>
