<svg width="30" height="31" viewBox="0 0 30 31" fill="none" xmlns="http://www.w3.org/2000/svg">
<path d="M17.3359 4.65381C17.0556 4.65381 16.8281 4.88133 16.8281 5.16162C16.8281 5.44191 17.0556 5.66943 17.3359 5.66943C17.6162 5.66943 17.8438 5.44191 17.8438 5.16162C17.8438 4.88133 17.6162 4.65381 17.3359 4.65381Z" fill="#D7D7D7"/>
<path d="M21.3984 4.65381H19.3672C19.0867 4.65381 18.8594 4.88113 18.8594 5.16162C18.8594 5.44211 19.0867 5.66943 19.3672 5.66943H21.3984C21.6789 5.66943 21.9062 5.44211 21.9062 5.16162C21.9062 4.88113 21.6789 4.65381 21.3984 4.65381Z" fill="#D7D7D7"/>
<path d="M25.4609 4.65381H23.4297C23.1492 4.65381 22.9219 4.88113 22.9219 5.16162C22.9219 5.44211 23.1492 5.66943 23.4297 5.66943H25.4609C25.7414 5.66943 25.9688 5.44211 25.9688 5.16162C25.9688 4.88113 25.7414 4.65381 25.4609 4.65381Z" fill="#D7D7D7"/>
<path d="M26.4766 2.62256H3.52344C2.68336 2.62256 2 3.30592 2 4.146V27.0991C2 27.9392 2.68336 28.6226 3.52344 28.6226H26.4766C27.3166 28.6226 28 27.9392 28 27.0991V4.146C28 3.30592 27.3166 2.62256 26.4766 2.62256ZM26.9844 27.0991C26.9844 27.3792 26.7567 27.6069 26.4766 27.6069H3.52344C3.24335 27.6069 3.01562 27.3792 3.01562 27.0991V7.70068H26.9844V27.0991ZM26.9844 6.68506H3.01562V4.146C3.01562 3.86591 3.24335 3.63818 3.52344 3.63818H26.4766C26.7567 3.63818 26.9844 3.86591 26.9844 4.146V6.68506Z" fill="#D7D7D7"/>
<path d="M5.85938 14.0991H24.1406C24.4211 14.0991 24.6484 13.8718 24.6484 13.5913V10.5444C24.6484 10.2639 24.4211 10.0366 24.1406 10.0366H5.85938C5.57889 10.0366 5.35156 10.2639 5.35156 10.5444V13.5913C5.35156 13.8718 5.57889 14.0991 5.85938 14.0991ZM6.36719 11.0522H23.6328V13.0835H6.36719V11.0522Z" fill="#D7D7D7"/>
<path d="M5.85938 25.4233H11.9531C12.2336 25.4233 12.4609 25.196 12.4609 24.9155V16.7905C12.4609 16.51 12.2336 16.2827 11.9531 16.2827H5.85938C5.57889 16.2827 5.35156 16.51 5.35156 16.7905V24.9155C5.35156 25.196 5.57889 25.4233 5.85938 25.4233ZM6.36719 17.2983H11.4453V24.4077H6.36719V17.2983Z" fill="#D7D7D7"/>
<path d="M24.1406 16.2827H15C14.995 16.2827 14.9903 16.2833 14.9853 16.2835C14.7066 16.2914 14.4922 16.5213 14.4922 16.7905V24.9155C14.4922 24.9185 14.4926 24.9215 14.4926 24.9245C14.4975 25.2047 14.7276 25.4233 15 25.4233H24.1406C24.4144 25.4233 24.6431 25.2039 24.648 24.9245C24.648 24.9215 24.6484 24.9185 24.6484 24.9155V16.7905C24.6484 16.5132 24.4223 16.2827 24.1406 16.2827ZM22.805 17.2983L19.5703 20.1736L16.3356 17.2983H22.805ZM15.5078 17.9214L18.806 20.853L15.5078 23.7847V17.9214ZM16.3356 24.4077L19.5703 21.5324L22.805 24.4077H16.3356ZM23.6328 23.7847L20.3346 20.853L23.6328 17.9214V23.7847Z" fill="#D7D7D7"/>
</svg>
