<svg width="30" height="30" viewBox="0 0 30 30" fill="none" xmlns="http://www.w3.org/2000/svg">
<path d="M13.7498 20H4.38477C3.88748 20 3.41057 19.8025 3.05894 19.4508C2.70731 19.0992 2.50977 18.6223 2.50977 18.125V6.875C2.50977 6.37772 2.70731 5.90081 3.05894 5.54917C3.41057 5.19754 3.88748 5 4.38477 5H21.2598C21.757 5 22.234 5.19754 22.5856 5.54917C22.9372 5.90081 23.1348 6.37772 23.1348 6.875V10.6012C23.1348 10.767 23.2006 10.926 23.3178 11.0432C23.435 11.1604 23.594 11.2262 23.7598 11.2262C23.9255 11.2262 24.0845 11.1604 24.2017 11.0432C24.3189 10.926 24.3848 10.767 24.3848 10.6012V6.875C24.3838 6.0465 24.0542 5.25222 23.4684 4.66639C22.8825 4.08055 22.0883 3.75099 21.2598 3.75H4.38477C3.55627 3.75099 2.76199 4.08055 2.17615 4.66639C1.59032 5.25222 1.26076 6.0465 1.25977 6.875V18.125C1.26076 18.9535 1.59032 19.7478 2.17615 20.3336C2.76199 20.9194 3.55627 21.249 4.38477 21.25H13.7498C13.9155 21.25 14.0745 21.1842 14.1917 21.0669C14.3089 20.9497 14.3748 20.7908 14.3748 20.625C14.3748 20.4592 14.3089 20.3003 14.1917 20.1831C14.0745 20.0658 13.9155 20 13.7498 20Z" fill="#161616"/>
<path d="M26.7003 14.3412C25.7307 13.512 24.5495 12.9689 23.2888 12.7728C22.0282 12.5766 20.7378 12.7352 19.5621 13.2306C19.1002 13.421 18.6622 13.6649 18.2571 13.9575L16.5465 12.25L21.0765 7.71996C21.1904 7.60208 21.2534 7.4442 21.2519 7.28033C21.2505 7.11646 21.1848 6.9597 21.0689 6.84382C20.953 6.72794 20.7963 6.66221 20.6324 6.66078C20.4685 6.65936 20.3106 6.72236 20.1928 6.83621L12.8221 14.2062L5.45151 6.83558C5.39385 6.77589 5.32489 6.72827 5.24864 6.69552C5.17238 6.66276 5.09037 6.64552 5.00738 6.6448C4.9244 6.64408 4.8421 6.65989 4.76529 6.69132C4.68848 6.72274 4.61869 6.76915 4.56001 6.82783C4.50133 6.88652 4.45492 6.9563 4.42349 7.03311C4.39207 7.10992 4.37626 7.19222 4.37698 7.27521C4.3777 7.35819 4.39494 7.44021 4.42769 7.51646C4.46045 7.59271 4.50806 7.66168 4.56776 7.71933L9.09713 12.25L4.56776 16.7793C4.50806 16.837 4.46045 16.9059 4.42769 16.9822C4.39494 17.0585 4.3777 17.1405 4.37698 17.2235C4.37626 17.3064 4.39207 17.3887 4.42349 17.4656C4.45492 17.5424 4.50133 17.6121 4.56001 17.6708C4.61869 17.7295 4.68848 17.7759 4.76529 17.8073C4.8421 17.8388 4.9244 17.8546 5.00738 17.8539C5.09037 17.8531 5.17238 17.8359 5.24864 17.8031C5.32489 17.7704 5.39385 17.7228 5.45151 17.6631L9.98088 13.1331L12.3803 15.5318C12.4975 15.649 12.6564 15.7148 12.8221 15.7148C12.9879 15.7148 13.1468 15.649 13.264 15.5318L15.6628 13.1331L17.3121 14.7837C16.4844 15.6983 15.9195 16.8196 15.677 18.029C15.4345 19.2385 15.5235 20.4909 15.9346 21.6539C16.3458 22.8169 17.0637 23.847 18.0125 24.6353C18.9612 25.4236 20.1054 25.9407 21.324 26.1318C21.6349 26.1712 21.9481 26.19 22.2615 26.1881C23.0174 26.193 23.7699 26.0852 24.494 25.8681C24.6522 25.8184 24.7842 25.7078 24.8609 25.5608C24.9376 25.4137 24.9528 25.2422 24.9031 25.084C24.8533 24.9258 24.7428 24.7938 24.5958 24.7171C24.4487 24.6404 24.2772 24.6252 24.119 24.675C23.2738 24.9178 22.3893 24.9932 21.5153 24.8968C20.2995 24.7348 19.1744 24.166 18.3232 23.2829C17.472 22.3999 16.9449 21.2546 16.8278 20.0337C16.6704 18.8721 16.8982 17.6909 17.4763 16.6711C18.0544 15.6513 18.9509 14.8491 20.0284 14.3875C20.9879 13.9796 22.042 13.8468 23.0727 14.0039C24.1034 14.1609 25.0701 14.6017 25.8646 15.2768C26.5743 15.9125 27.0842 16.7405 27.3324 17.6604C27.5806 18.5802 27.5564 19.5523 27.2628 20.4587C26.9696 21.5212 26.3378 22.0962 25.5753 21.9912C25.3192 21.9703 25.0786 21.8606 24.8948 21.6811C24.7111 21.5016 24.5958 21.2635 24.569 21.0081C24.5689 20.9721 24.566 20.9361 24.5603 20.9006C24.5646 20.8704 24.5667 20.8399 24.5665 20.8093V16.9475C24.5664 16.8013 24.5151 16.6598 24.4214 16.5475C24.3278 16.4353 24.1978 16.3594 24.054 16.3331C23.9646 16.3156 21.8259 15.9431 20.4096 17.1237C20.009 17.4829 19.6952 17.9285 19.4921 18.4268C19.289 18.9251 19.2018 19.463 19.2371 20C19.2157 20.395 19.2863 20.7896 19.4433 21.1527C19.6004 21.5159 19.8396 21.8375 20.1421 22.0925C20.6743 22.4979 21.3289 22.7096 21.9978 22.6925C22.6068 22.6965 23.2066 22.5432 23.739 22.2475C23.9381 22.515 24.1891 22.7396 24.477 22.9079C24.7649 23.0761 25.0838 23.1846 25.4146 23.2268C26.4771 23.37 27.9146 22.8187 28.474 20.7893C28.8248 19.6573 28.8441 18.4486 28.5298 17.306C28.2155 16.1633 27.5806 15.1345 26.7003 14.3412ZM23.3253 20.9918C23.087 21.1919 22.8054 21.3336 22.5028 21.4058C22.2003 21.4779 21.885 21.4785 21.5821 21.4075C21.2508 21.3648 20.9498 21.193 20.7446 20.9293C20.5395 20.6656 20.447 20.3316 20.4871 20C20.4575 19.6467 20.5074 19.2913 20.6331 18.9598C20.7588 18.6283 20.957 18.3292 21.2134 18.0843C21.7758 17.6797 22.4588 17.4774 23.1509 17.5106C23.2134 17.5106 23.2684 17.5106 23.3228 17.5106V20.8125C23.3342 20.8727 23.3352 20.9344 23.3259 20.995L23.3253 20.9918Z" fill="#161616"/>
</svg>
