<svg width="31" height="31" viewBox="0 0 31 31" fill="none" xmlns="http://www.w3.org/2000/svg">
<path d="M18.3125 12.3413H12.6875C12.3145 12.3413 11.9569 12.4895 11.6931 12.7532C11.4294 13.0169 11.2812 13.3746 11.2812 13.7476V15.1538H8.46875C7.22555 15.1538 6.03326 15.6477 5.15419 16.5267C4.27511 17.4058 3.78125 18.5981 3.78125 19.8413C3.78125 22.2226 5.59531 24.5288 8.74531 24.5288L8.37031 24.8991C8.30421 24.9647 8.25912 25.0485 8.24081 25.1397C8.22249 25.231 8.23178 25.3257 8.26748 25.4117C8.30319 25.4977 8.36369 25.5711 8.44128 25.6226C8.51886 25.674 8.61002 25.7012 8.70312 25.7007C8.96562 25.7007 8.95625 25.6397 10.2078 24.3929C10.2729 24.327 10.3169 24.2432 10.3344 24.1523C10.352 24.0614 10.3421 23.9673 10.3063 23.8819C10.2594 23.7601 10.3062 23.8257 9.03594 22.5554C8.99223 22.5117 8.94035 22.477 8.88324 22.4533C8.82614 22.4297 8.76493 22.4175 8.70312 22.4175C8.64132 22.4175 8.58011 22.4297 8.52301 22.4533C8.4659 22.477 8.41402 22.5117 8.37031 22.5554C8.32661 22.5991 8.29194 22.651 8.26828 22.7081C8.24463 22.7652 8.23246 22.8264 8.23246 22.8882C8.23246 22.95 8.24463 23.0112 8.26828 23.0683C8.29194 23.1254 8.32661 23.1773 8.37031 23.221L8.74531 23.5913C6.16719 23.5913 4.71875 21.7632 4.71875 19.8413C4.71875 18.8467 5.11384 17.8929 5.8171 17.1897C6.52036 16.4864 7.47419 16.0913 8.46875 16.0913H11.2812V17.4976C11.2812 17.8705 11.4294 18.2282 11.6931 18.4919C11.9569 18.7557 12.3145 18.9038 12.6875 18.9038H18.3125C18.6855 18.9038 19.0431 18.7557 19.3069 18.4919C19.5706 18.2282 19.7188 17.8705 19.7188 17.4976V13.7476C19.7188 13.3746 19.5706 13.0169 19.3069 12.7532C19.0431 12.4895 18.6855 12.3413 18.3125 12.3413ZM18.7812 17.4976C18.7812 17.6219 18.7319 17.7411 18.644 17.829C18.556 17.9169 18.4368 17.9663 18.3125 17.9663H12.6875C12.5632 17.9663 12.444 17.9169 12.356 17.829C12.2681 17.7411 12.2188 17.6219 12.2188 17.4976V13.7476C12.2188 13.6232 12.2681 13.504 12.356 13.4161C12.444 13.3282 12.5632 13.2788 12.6875 13.2788H18.3125C18.4368 13.2788 18.556 13.3282 18.644 13.4161C18.7319 13.504 18.7812 13.6232 18.7812 13.7476V17.4976Z" fill="#D7D7D7"/>
<path d="M18.3125 20.7788H12.6875C12.3145 20.7788 11.9569 20.927 11.6931 21.1907C11.4294 21.4544 11.2813 21.8121 11.2812 22.1851V25.9351C11.2813 26.308 11.4294 26.6657 11.6931 26.9294C11.9569 27.1932 12.3145 27.3413 12.6875 27.3413H18.3125C18.6855 27.3413 19.0431 27.1932 19.3069 26.9294C19.5706 26.6657 19.7188 26.308 19.7188 25.9351V22.1851C19.7188 21.8121 19.5706 21.4544 19.3069 21.1907C19.0431 20.927 18.6855 20.7788 18.3125 20.7788ZM18.7812 25.9351C18.7812 26.0594 18.7319 26.1786 18.644 26.2665C18.556 26.3544 18.4368 26.4038 18.3125 26.4038H12.6875C12.5632 26.4038 12.444 26.3544 12.356 26.2665C12.2681 26.1786 12.2188 26.0594 12.2188 25.9351V22.1851C12.2188 22.0607 12.2681 21.9415 12.356 21.8536C12.444 21.7657 12.5632 21.7163 12.6875 21.7163H18.3125C18.4368 21.7163 18.556 21.7657 18.644 21.8536C18.7319 21.9415 18.7812 22.0607 18.7812 22.1851V25.9351Z" fill="#D7D7D7"/>
<path d="M17.375 5.77881H15.5C15.3757 5.77881 15.2565 5.82819 15.1685 5.9161C15.0806 6.00401 15.0312 6.12324 15.0312 6.24756C15.0312 6.37188 15.0806 6.49111 15.1685 6.57901C15.2565 6.66692 15.3757 6.71631 15.5 6.71631H17.375C17.4993 6.71631 17.6185 6.66692 17.7065 6.57901C17.7944 6.49111 17.8438 6.37188 17.8438 6.24756C17.8438 6.12324 17.7944 6.00401 17.7065 5.9161C17.6185 5.82819 17.4993 5.77881 17.375 5.77881Z" fill="#D7D7D7"/>
<path d="M13.625 6.71631C13.7493 6.71631 13.8685 6.66692 13.9565 6.57901C14.0444 6.49111 14.0938 6.37188 14.0938 6.24756C14.0938 6.12324 14.0444 6.00401 13.9565 5.9161C13.8685 5.82819 13.7493 5.77881 13.625 5.77881C13.5007 5.77881 13.3815 5.82819 13.2935 5.9161C13.2056 6.00401 13.1562 6.12324 13.1562 6.24756C13.1562 6.37188 13.2056 6.49111 13.2935 6.57901C13.3815 6.66692 13.5007 6.71631 13.625 6.71631Z" fill="#D7D7D7"/>
<path d="M17.375 14.2163H15.5C15.3757 14.2163 15.2565 14.2657 15.1685 14.3536C15.0806 14.4415 15.0312 14.5607 15.0312 14.6851C15.0312 14.8094 15.0806 14.9286 15.1685 15.0165C15.2565 15.1044 15.3757 15.1538 15.5 15.1538H17.375C17.4993 15.1538 17.6185 15.1044 17.7065 15.0165C17.7944 14.9286 17.8438 14.8094 17.8438 14.6851C17.8438 14.5607 17.7944 14.4415 17.7065 14.3536C17.6185 14.2657 17.4993 14.2163 17.375 14.2163Z" fill="#D7D7D7"/>
<path d="M13.625 15.1538C13.7493 15.1538 13.8685 15.1044 13.9565 15.0165C14.0444 14.9286 14.0938 14.8094 14.0938 14.6851C14.0938 14.5607 14.0444 14.4415 13.9565 14.3536C13.8685 14.2657 13.7493 14.2163 13.625 14.2163C13.5007 14.2163 13.3815 14.2657 13.2935 14.3536C13.2056 14.4415 13.1562 14.5607 13.1562 14.6851C13.1562 14.8094 13.2056 14.9286 13.2935 15.0165C13.3815 15.1044 13.5007 15.1538 13.625 15.1538Z" fill="#D7D7D7"/>
<path d="M16.8078 22.6537L15.0312 24.4537L14.1922 23.5912C14.1484 23.5475 14.0966 23.5128 14.0395 23.4892C13.9824 23.4655 13.9211 23.4534 13.8593 23.4534C13.7975 23.4534 13.7363 23.4655 13.6792 23.4892C13.6221 23.5128 13.5702 23.5475 13.5265 23.5912C13.4828 23.6349 13.4482 23.6868 13.4245 23.7439C13.4008 23.801 13.3887 23.8622 13.3887 23.924C13.3887 23.9858 13.4008 24.047 13.4245 24.1042C13.4482 24.1613 13.4828 24.2131 13.5265 24.2568C14.7922 25.5225 14.7734 25.5647 15.0312 25.5647C15.289 25.5647 15.2187 25.5647 17.4734 23.3193C17.5171 23.2756 17.5518 23.2238 17.5754 23.1667C17.5991 23.1095 17.6113 23.0483 17.6113 22.9865C17.6113 22.9247 17.5991 22.8635 17.5754 22.8064C17.5518 22.7493 17.5171 22.6974 17.4734 22.6537C17.4297 22.61 17.3778 22.5753 17.3207 22.5517C17.2636 22.528 17.2024 22.5159 17.1406 22.5159C17.0788 22.5159 17.0176 22.528 16.9605 22.5517C16.9034 22.5753 16.8515 22.61 16.8078 22.6537Z" fill="#D7D7D7"/>
<path d="M27.2188 11.4038C27.2188 10.1606 26.7249 8.96832 25.8458 8.08925C24.9667 7.21017 23.7745 6.71631 22.5312 6.71631H19.7188V5.31006C19.7188 4.9371 19.5706 4.57941 19.3069 4.31569C19.0431 4.05197 18.6855 3.90381 18.3125 3.90381H12.6875C12.3145 3.90381 11.9569 4.05197 11.6931 4.31569C11.4294 4.57941 11.2813 4.9371 11.2812 5.31006V9.06006C11.2813 9.43302 11.4294 9.7907 11.6931 10.0544C11.9569 10.3182 12.3145 10.4663 12.6875 10.4663H18.3125C18.6855 10.4663 19.0431 10.3182 19.3069 10.0544C19.5706 9.7907 19.7188 9.43302 19.7188 9.06006V7.65381H22.5312C23.5258 7.65381 24.4796 8.0489 25.1829 8.75216C25.8862 9.45542 26.2812 10.4092 26.2812 11.4038C26.2812 13.2788 24.875 15.1538 22.2547 15.1538L22.6297 14.7835C22.6734 14.7398 22.7081 14.6879 22.7317 14.6308C22.7554 14.5737 22.7675 14.5125 22.7675 14.4507C22.7675 14.3889 22.7554 14.3277 22.7317 14.2706C22.7081 14.2135 22.6734 14.1616 22.6297 14.1179C22.586 14.0742 22.5341 14.0395 22.477 14.0158C22.4199 13.9922 22.3587 13.98 22.2969 13.98C22.2351 13.98 22.1739 13.9922 22.1168 14.0158C22.0597 14.0395 22.0078 14.0742 21.9641 14.1179C20.6938 15.3882 20.7406 15.3226 20.6938 15.4444C20.6579 15.5298 20.648 15.6239 20.6656 15.7148C20.6831 15.8057 20.7271 15.8895 20.7922 15.9554C22.0625 17.221 22.0625 17.2632 22.2969 17.2632C22.39 17.2637 22.4811 17.2365 22.5587 17.1851C22.6363 17.1336 22.6968 17.0602 22.7325 16.9742C22.7682 16.8882 22.7775 16.7935 22.7592 16.7022C22.7409 16.611 22.6958 16.5272 22.6297 16.4616L22.2547 16.0913C25.4141 16.0913 27.2188 13.7804 27.2188 11.4038ZM18.7812 9.06006C18.7812 9.18438 18.7319 9.30361 18.644 9.39152C18.556 9.47942 18.4368 9.52881 18.3125 9.52881H12.6875C12.5632 9.52881 12.444 9.47942 12.356 9.39152C12.2681 9.30361 12.2188 9.18438 12.2188 9.06006V5.31006C12.2188 5.18574 12.2681 5.06651 12.356 4.9786C12.444 4.89069 12.5632 4.84131 12.6875 4.84131H18.3125C18.4368 4.84131 18.556 4.89069 18.644 4.9786C18.7319 5.06651 18.7812 5.18574 18.7812 5.31006V9.06006Z" fill="#D7D7D7"/>
<path d="M4.25 7.65377H8.74531L8.37031 8.02409C8.30421 8.08965 8.25912 8.17342 8.24081 8.2647C8.22249 8.35599 8.23178 8.45067 8.26748 8.53666C8.30319 8.62264 8.36369 8.69605 8.44128 8.74752C8.51886 8.79899 8.61002 8.82619 8.70312 8.82565C8.96562 8.82565 8.95625 8.76471 10.2078 7.51784C10.2729 7.45192 10.3169 7.36821 10.3344 7.27728C10.352 7.18635 10.3421 7.09226 10.3063 7.0069C10.2594 6.88502 10.3062 6.95065 9.03594 5.68034C8.99223 5.63663 8.94035 5.60196 8.88324 5.57831C8.82614 5.55465 8.76493 5.54248 8.70312 5.54248C8.5783 5.54248 8.45858 5.59207 8.37031 5.68034C8.32661 5.72404 8.29194 5.77593 8.26828 5.83303C8.24463 5.89014 8.23246 5.95134 8.23246 6.01315C8.23246 6.13798 8.28205 6.25769 8.37031 6.34596L8.74531 6.71627H4.25C4.12568 6.71627 4.00645 6.76566 3.91854 6.85357C3.83064 6.94147 3.78125 7.0607 3.78125 7.18502C3.78125 7.30934 3.83064 7.42857 3.91854 7.51648C4.00645 7.60439 4.12568 7.65377 4.25 7.65377Z" fill="#D7D7D7"/>
<path d="M17.375 7.65381H13.625C13.5007 7.65381 13.3815 7.70319 13.2935 7.7911C13.2056 7.87901 13.1562 7.99824 13.1562 8.12256C13.1562 8.24688 13.2056 8.36611 13.2935 8.45402C13.3815 8.54192 13.5007 8.59131 13.625 8.59131H17.375C17.4993 8.59131 17.6185 8.54192 17.7065 8.45402C17.7944 8.36611 17.8438 8.24688 17.8438 8.12256C17.8438 7.99824 17.7944 7.87901 17.7065 7.7911C17.6185 7.70319 17.4993 7.65381 17.375 7.65381Z" fill="#D7D7D7"/>
<path d="M17.375 16.0913H13.625C13.5007 16.0913 13.3815 16.1407 13.2935 16.2286C13.2056 16.3165 13.1562 16.4357 13.1562 16.5601C13.1562 16.6844 13.2056 16.8036 13.2935 16.8915C13.3815 16.9794 13.5007 17.0288 13.625 17.0288H17.375C17.4993 17.0288 17.6185 16.9794 17.7065 16.8915C17.7944 16.8036 17.8438 16.6844 17.8438 16.5601C17.8438 16.4357 17.7944 16.3165 17.7065 16.2286C17.6185 16.1407 17.4993 16.0913 17.375 16.0913Z" fill="#D7D7D7"/>
</svg>
