<svg width="21" height="21" viewBox="0 0 21 21" fill="none" xmlns="http://www.w3.org/2000/svg">
<g clip-path="url(#clip0_414_724)">
<path d="M20.1204 12.1031C20.1203 12.103 20.1203 12.103 20.1203 12.1029L16.3442 2.62147C16.2641 2.42002 16.0357 2.32167 15.8342 2.40181C15.8341 2.40186 15.834 2.40191 15.8338 2.402L0.514738 8.50191C0.452265 8.52891 0.398085 8.57199 0.357696 8.62676C0.230296 8.69297 0.149812 8.824 0.148438 8.96754V19.1753C0.148438 19.3921 0.324227 19.5679 0.541043 19.5679H17.0305C17.2473 19.5679 17.4231 19.3921 17.4231 19.1753V13.6003L19.9012 12.6133C20.1026 12.5329 20.2007 12.3045 20.1204 12.1031ZM16.6379 18.7827H0.933648V9.36015H16.6379V18.7827ZM6.69906 8.5769L13.2728 5.95744C13.8595 6.57412 14.6725 6.92462 15.5236 6.92796L16.1793 8.5769H6.69906ZM17.4231 12.757V8.96754C17.4231 8.75073 17.2473 8.57494 17.0305 8.57494H17.0242L16.1923 6.48549C16.183 6.46807 16.1723 6.45148 16.1601 6.43602C16.118 6.24694 15.9429 6.11792 15.7498 6.13372C14.9578 6.20591 14.183 5.87229 13.6914 5.24722C13.569 5.09621 13.354 5.05867 13.1876 5.15927C13.169 5.16148 13.1505 5.16492 13.1323 5.16948L5.10665 8.36529C5.00953 8.40337 4.93184 8.4789 4.89111 8.57494H2.45382L15.76 3.27673L19.2459 12.0299L17.4231 12.757Z" fill="#DCF763"/>
<path d="M1.99907 16.1321C2.76131 16.3574 3.35778 16.9531 3.58402 17.7151C3.63363 17.8814 3.7866 17.9954 3.96013 17.9954C3.9805 17.9941 4.00072 17.9911 4.02059 17.9864C4.03821 17.9914 4.05622 17.9951 4.07438 17.9974H13.4969C13.5131 17.9953 13.5291 17.992 13.5448 17.9876C13.741 18.0353 13.9386 17.915 13.9864 17.7188C13.9865 17.7181 13.9867 17.7174 13.9869 17.7167C14.2125 16.9539 14.8091 16.3574 15.5718 16.1317C15.7568 16.0752 15.8717 15.8908 15.8412 15.6998C15.8464 15.6808 15.8502 15.6614 15.8525 15.6417V12.5009C15.8502 12.4812 15.8463 12.4618 15.8408 12.4428C15.8715 12.2517 15.7565 12.0673 15.5714 12.0109C14.8087 11.7853 14.2123 11.1885 13.9873 10.4256C13.9304 10.2393 13.7443 10.1241 13.5523 10.1563C13.5341 10.1512 13.5156 10.1475 13.4969 10.1453H4.07438C4.0546 10.1476 4.03502 10.1515 4.01588 10.157C3.82493 10.1266 3.6407 10.2415 3.58402 10.4264C3.35822 11.189 2.76171 11.7853 1.99907 12.0109C1.8141 12.0675 1.69917 12.2518 1.72974 12.4428C1.72464 12.4619 1.72096 12.4813 1.71875 12.5009V15.6417C1.72101 15.6602 1.72469 15.6784 1.72974 15.6963C1.69755 15.8885 1.81273 16.0749 1.99907 16.1321ZM2.50396 12.6603C3.29231 12.3437 3.91714 11.7188 4.23378 10.9305H13.3371C13.6539 11.7188 14.2789 12.3437 15.0673 12.6603V15.4823C14.2792 15.7993 13.6545 16.4241 13.3375 17.2122H4.23378C3.9168 16.4241 3.29207 15.7993 2.50396 15.4823V12.6603Z" fill="#DCF763"/>
<path d="M8.78532 16.4271C10.0863 16.4271 11.141 15.3724 11.141 14.0715C11.141 12.7705 10.0863 11.7158 8.78532 11.7158C7.48432 11.7158 6.42969 12.7705 6.42969 14.0715C6.43096 15.3719 7.48486 16.4258 8.78532 16.4271ZM8.78532 12.501C9.65263 12.501 10.3557 13.2041 10.3557 14.0715C10.3557 14.9388 9.65263 15.6419 8.78532 15.6419C7.918 15.6419 7.2149 14.9388 7.2149 14.0715C7.2149 13.2041 7.918 12.501 8.78532 12.501Z" fill="#DCF763"/>
<path d="M4.46781 14.6602C4.79304 14.6602 5.05672 14.3966 5.05672 14.0713C5.05672 13.7461 4.79304 13.4824 4.46781 13.4824C4.14259 13.4824 3.87891 13.7461 3.87891 14.0713C3.87891 14.3966 4.14259 14.6602 4.46781 14.6602ZM4.46781 13.875C4.57622 13.875 4.66412 13.9629 4.66412 14.0713C4.66412 14.1797 4.57622 14.2676 4.46781 14.2676C4.35941 14.2676 4.27151 14.1797 4.27151 14.0713C4.27151 13.9629 4.35941 13.875 4.46781 13.875Z" fill="#DCF763"/>
<path d="M13.1045 14.6602C13.4298 14.6602 13.6934 14.3966 13.6934 14.0713C13.6934 13.7461 13.4298 13.4824 13.1045 13.4824C12.7793 13.4824 12.5156 13.7461 12.5156 14.0713C12.5156 14.3966 12.7793 14.6602 13.1045 14.6602ZM13.1045 13.875C13.2129 13.875 13.3008 13.9629 13.3008 14.0713C13.3008 14.1797 13.2129 14.2676 13.1045 14.2676C12.9961 14.2676 12.9082 14.1797 12.9082 14.0713C12.9082 13.9629 12.9961 13.875 13.1045 13.875Z" fill="#DCF763"/>
</g>
<defs>
<clipPath id="clip0_414_724">
<rect width="20" height="20" fill="white" transform="translate(0.148438 0.970581)"/>
</clipPath>
</defs>
</svg>
