<svg width="21" height="21" viewBox="0 0 21 21" fill="none" xmlns="http://www.w3.org/2000/svg">
<path d="M12.8315 11.0276L9.28998 14.5692L7.46533 12.7445C7.22119 12.5004 6.82568 12.5004 6.58154 12.7445C6.3374 12.9886 6.3374 13.3842 6.58154 13.6283L8.84808 15.8948C8.97015 16.0169 9.13007 16.0779 9.28998 16.0779C9.44989 16.0779 9.6098 16.0169 9.73187 15.8948L13.7153 11.9114C13.9595 11.6672 13.9595 11.2717 13.7153 11.0276C13.4712 10.7834 13.0757 10.7834 12.8315 11.0276Z" fill="#DCF763"/>
<path d="M15.7734 3.44556H14.8359V2.84558C14.8359 2.50043 14.5561 2.22058 14.2109 2.22058C13.8658 2.22058 13.5859 2.50043 13.5859 2.84558V3.44556H6.71094V2.84558C6.71094 2.50043 6.43109 2.22058 6.08594 2.22058C5.74078 2.22058 5.46094 2.50043 5.46094 2.84558V3.44556H4.52344C2.80042 3.44556 1.39844 4.84753 1.39844 6.57056V16.5956C1.39844 18.3186 2.80042 19.7206 4.52344 19.7206H15.7734C17.4965 19.7206 18.8984 18.3186 18.8984 16.5956V6.57056C18.8984 4.84753 17.4965 3.44556 15.7734 3.44556ZM2.64844 6.57056C2.64844 5.53662 3.4895 4.69556 4.52344 4.69556H5.46094V5.29523C5.46094 5.64038 5.74078 5.92023 6.08594 5.92023C6.43109 5.92023 6.71094 5.64038 6.71094 5.29523V4.69556H13.5859V5.29523C13.5859 5.64038 13.8658 5.92023 14.2109 5.92023C14.5561 5.92023 14.8359 5.64038 14.8359 5.29523V4.69556H15.7734C16.8074 4.69556 17.6484 5.53662 17.6484 6.57056V7.20166H2.64844V6.57056ZM15.7734 18.4706H4.52344C3.4895 18.4706 2.64844 17.6295 2.64844 16.5956V8.45166H17.6484V16.5956C17.6484 17.6295 16.8074 18.4706 15.7734 18.4706Z" fill="#DCF763"/>
</svg>
