<svg width="32" height="32" viewBox="0 0 32 32" fill="none" xmlns="http://www.w3.org/2000/svg">
<path d="M25.75 1.5H6.25C3.35051 1.5 1 3.85051 1 6.75V25.25C1 28.1495 3.35051 30.5 6.25 30.5H25.75C28.6495 30.5 31 28.1495 31 25.25V6.75C31 3.85051 28.6495 1.5 25.75 1.5Z" fill="#001E36"/>
<path d="M17.8746 13H19.9996C20.0508 12.9983 20.1011 13.0137 20.1426 13.0438C20.184 13.0739 20.2142 13.117 20.2284 13.1662C20.3876 13.5067 20.4797 13.8747 20.4996 14.25C21.3021 13.2125 22.2896 12.75 23.6046 12.75C23.6245 12.7465 23.6449 12.7478 23.6641 12.7538C23.6833 12.7598 23.7007 12.7704 23.715 12.7847C23.7292 12.7989 23.7398 12.8164 23.7458 12.8356C23.7519 12.8548 23.7532 12.8752 23.7496 12.895V15.1025C23.7496 15.2137 23.6946 15.2612 23.5834 15.2475C22.3796 15.1787 21.4246 15.3362 20.7334 16.0275C20.6638 16.0858 20.6071 16.1578 20.5669 16.2392C20.5266 16.3205 20.5038 16.4093 20.4996 16.5V22.855C20.4996 22.9512 20.4446 23 20.3334 23H18.1859C18.0609 23 17.9996 22.945 17.9996 22.8337V15.75C17.9996 14.0725 17.8746 13.8337 17.7496 13.145C17.7359 13.0487 17.7771 13 17.8746 13Z" fill="#31A8FF"/>
<path d="M16.1899 22.9998H8.43991C8.31491 22.9998 8.24866 22.9285 8.24866 22.7873V9.6698C8.24525 9.64657 8.24735 9.62287 8.25477 9.60061C8.26219 9.57834 8.27474 9.55813 8.29139 9.54159C8.30805 9.52506 8.32836 9.51266 8.35068 9.5054C8.373 9.49814 8.39671 9.49622 8.41991 9.4998H10.6249C10.7099 9.4998 10.7499 9.5498 10.7499 9.64855V20.9998H16.5937C16.7187 20.9998 16.7699 21.0573 16.7424 21.1698L16.4024 22.8298C16.3947 22.8796 16.3686 22.9247 16.3292 22.9562C16.2899 22.9876 16.2402 23.0032 16.1899 22.9998Z" fill="#31A8FF"/>
</svg>
