<svg width="30" height="30" viewBox="0 0 30 30" fill="none" xmlns="http://www.w3.org/2000/svg">
<g clip-path="url(#clip0_414_145)">
<path d="M15 0C6.74062 0 0 6.74121 0 15C0 23.2594 6.74121 30 15 30C23.2594 30 30 23.2588 30 15C30 6.74062 23.2588 0 15 0ZM25.1742 6.53379C27.0469 8.78027 28.19 11.6543 28.2393 14.7891C25.892 14.24 23.2852 14.2031 20.6303 14.6871C19.9395 14.8131 19.2486 14.973 18.5619 15.1652C18.3334 14.5436 18.0908 13.9271 17.833 13.3166C17.5699 12.6938 17.2922 12.0814 17.0016 11.4779C20.165 10.2697 23.5928 8.4709 25.1742 6.53379ZM15 1.75781C18.4465 1.75781 21.5889 3.08145 23.9473 5.24648C23.0273 6.50098 20.4059 8.32734 16.2 9.90234C14.7316 7.16836 12.9709 4.65586 10.9365 2.39648C12.2174 1.98223 13.5832 1.75781 15 1.75781ZM9.19629 3.09961C11.2711 5.32207 13.0559 7.8041 14.526 10.4854C10.1502 11.9016 5.71992 12.4793 2.07715 12.1061C2.96426 8.14219 5.6332 4.84395 9.19629 3.09961ZM1.75781 15C1.75781 14.6109 1.77598 14.226 1.80879 13.8457C2.6127 13.9307 3.45117 13.9734 4.31777 13.9734C7.73555 13.9734 11.5752 13.316 15.3457 12.0674C15.9211 13.2451 16.4385 14.4568 16.8949 15.6984C15.4248 16.227 13.9939 16.899 12.6504 17.6988C9.35625 19.66 6.94629 22.183 5.94668 24.6545C3.37031 22.2369 1.75781 18.8033 1.75781 15ZM15 28.2422C12.1705 28.2422 9.54551 27.3498 7.39102 25.8316C8.05898 23.5746 10.3184 21.133 13.5498 19.2094C14.6883 18.5309 16.0195 17.8916 17.4686 17.3719C18.4957 20.6004 19.125 24.0082 19.3248 27.5162C17.9689 27.9861 16.5141 28.2422 15 28.2422ZM21.0393 26.7832C20.7955 23.366 20.1592 20.0391 19.1379 16.8434C21.9855 16.0605 25.1484 15.798 28.1479 16.5762C27.617 21.0299 24.8678 24.8127 21.0393 26.7832Z" fill="#D7D7D7"/>
</g>
<defs>
<clipPath id="clip0_414_145">
<rect width="30" height="30" fill="white"/>
</clipPath>
</defs>
</svg>
