<svg width="30" height="30" viewBox="0 0 30 30" fill="none" xmlns="http://www.w3.org/2000/svg">
<path d="M26.8043 5.66368H25.177V1.5955C25.177 0.968226 24.668 0.45459 24.0361 0.45459H5.96341C5.33613 0.45459 4.82704 0.963681 4.82704 1.5955V5.66368H3.19522C2.14068 5.66368 1.28613 6.52277 1.28613 7.57277V23.0091C1.28613 24.0637 2.14522 24.9182 3.19522 24.9182H11.6043L9.86341 26.6137H9.23613C8.30431 26.6137 7.54522 27.3728 7.54522 28.3V28.7773H5.79977C5.59068 28.7773 5.41795 28.95 5.41795 29.1591C5.41795 29.3682 5.59068 29.541 5.79977 29.541H24.1861C24.3952 29.541 24.568 29.3682 24.568 29.1591C24.568 28.95 24.3952 28.7773 24.1861 28.7773H22.4407V28.3C22.4407 27.3682 21.6816 26.6137 20.7543 26.6137H20.127L18.3861 24.9182H26.7952C27.8498 24.9182 28.7043 24.0591 28.7043 23.0091V7.57277C28.7134 6.51823 27.8543 5.66368 26.8043 5.66368ZM21.6816 28.3046V28.7819H8.31795V28.3046C8.31795 27.7955 8.73159 27.3773 9.24522 27.3773H20.7589C21.268 27.3773 21.6816 27.7955 21.6816 28.3046ZM20.918 12.8137L26.3634 14.65C26.3634 14.65 26.3589 14.65 26.3543 14.65L23.668 14.8682C23.2861 14.9 22.9907 15.1955 22.9589 15.5773L22.718 18.2637L20.918 12.8137ZM21.1589 12.091C20.8816 12 20.577 12.0682 20.368 12.2773C20.1589 12.4864 20.0861 12.791 20.1816 13.0682L21.4452 16.8637H5.96341C5.75431 16.8637 5.58613 16.6955 5.58613 16.4864V3.9955H24.4089V13.1728L21.1589 12.091ZM5.96341 1.21823H24.0316C24.2407 1.21823 24.4089 1.38641 24.4089 1.5955V3.23641H5.59068V1.5955C5.59068 1.38641 5.75886 1.21823 5.96341 1.21823ZM3.19522 6.42732H4.8225V16.491C4.8225 17.1182 5.33159 17.6319 5.95886 17.6319H21.6952L21.9907 18.5137C22.0998 18.8364 22.3907 19.0455 22.7225 19.0455C22.7543 19.0455 22.7861 19.0455 22.818 19.041C23.1861 18.9955 23.468 18.7046 23.4952 18.3364L23.727 15.641L26.4134 15.4228C26.7861 15.391 27.077 15.1137 27.118 14.7455C27.1634 14.3773 26.9452 14.0364 26.5952 13.9182L25.1725 13.441V6.42732H26.7998C27.4316 6.42732 27.9498 6.94095 27.9498 7.57732V19.5819H2.04977V7.57277C2.04977 6.94095 2.56341 6.42732 3.19522 6.42732ZM19.0361 26.6137H10.9634L12.6998 24.9182H17.2998L19.0361 26.6137ZM26.8043 24.1591H3.19522C2.56341 24.1591 2.04522 23.6455 2.04522 23.0091V20.341H27.9452V23.0091C27.9498 23.641 27.4361 24.1591 26.8043 24.1591Z" fill="black"/>
<path d="M14.9994 21.032C14.3267 21.032 13.7812 21.5774 13.7812 22.2456C13.7812 22.9183 14.3267 23.4638 14.9994 23.4638C15.6722 23.4638 16.2176 22.9183 16.2176 22.2456C16.2176 21.5774 15.6722 21.032 14.9994 21.032ZM14.9994 22.7047C14.7494 22.7047 14.5449 22.5002 14.5449 22.2502C14.5449 22.0002 14.7494 21.8002 14.9994 21.8002C15.2494 21.8002 15.454 22.0047 15.454 22.2502C15.454 22.5002 15.2494 22.7047 14.9994 22.7047Z" fill="black"/>
<path d="M13.9725 10.0181V8.51356C13.9725 8.02265 13.5725 7.6272 13.0862 7.6272H9.05888C8.56797 7.6272 8.16797 8.0272 8.16797 8.51356V12.5408C8.16797 13.0317 8.56797 13.4272 9.05888 13.4272H11.1043C11.4043 14.6181 12.4816 15.4999 13.7634 15.4999C15.2771 15.4999 16.5134 14.2681 16.5134 12.7499C16.5134 11.309 15.3907 10.1227 13.9725 10.0181ZM8.93615 12.5408V8.51356C8.93615 8.44538 8.9907 8.38629 9.06342 8.38629H13.0907C13.1589 8.38629 13.218 8.44083 13.218 8.51356V10.0636C11.9952 10.3136 11.068 11.3817 11.0271 12.6681H9.06342C8.9907 12.6636 8.93615 12.609 8.93615 12.5408ZM13.768 14.7408C12.6725 14.7408 11.7816 13.8499 11.7816 12.7545C11.7816 11.659 12.6725 10.7681 13.768 10.7681C14.8634 10.7681 15.7543 11.659 15.7543 12.7545C15.7498 13.8499 14.8589 14.7408 13.768 14.7408Z" fill="black"/>
<path d="M18.2774 6.72742C18.141 6.52742 17.9137 6.40469 17.6683 6.40015H17.6637C17.4228 6.40015 17.1956 6.51833 17.0546 6.71378L15.3319 9.15469C15.1728 9.38196 15.1501 9.67742 15.2774 9.92287C15.4046 10.1683 15.6546 10.3229 15.9319 10.3274L19.3319 10.3592H19.341C19.6137 10.3592 19.8683 10.2092 19.9956 9.96833C20.1274 9.72287 20.1092 9.42742 19.9547 9.20015L18.2774 6.72742ZM15.9546 9.5956L17.6456 7.15469L19.3183 9.5956H15.9546Z" fill="black"/>
<path d="M7.03611 2.6091H7.44521C7.6543 2.6091 7.82702 2.43637 7.82702 2.22728C7.82702 2.01819 7.6543 1.84546 7.44521 1.84546H7.03611C6.82702 1.84546 6.6543 2.01819 6.6543 2.22728C6.6543 2.43637 6.82702 2.6091 7.03611 2.6091Z" fill="black"/>
<path d="M8.56834 2.6091H8.97743C9.18652 2.6091 9.35925 2.43637 9.35925 2.22728C9.35925 2.01819 9.18652 1.84546 8.97743 1.84546H8.56834C8.35925 1.84546 8.18652 2.01819 8.18652 2.22728C8.18652 2.43637 8.35925 2.6091 8.56834 2.6091Z" fill="black"/>
<path d="M10.0996 2.6091H10.5087C10.7178 2.6091 10.8905 2.43637 10.8905 2.22728C10.8905 2.01819 10.7178 1.84546 10.5087 1.84546H10.0996C9.8905 1.84546 9.71777 2.01819 9.71777 2.22728C9.71777 2.43637 9.8905 2.6091 10.0996 2.6091Z" fill="black"/>
<path d="M11.6318 2.6091H12.0409C12.25 2.6091 12.4227 2.43637 12.4227 2.22728C12.4227 2.01819 12.25 1.84546 12.0409 1.84546H11.6318C11.4227 1.84546 11.25 2.01819 11.25 2.22728C11.25 2.43637 11.4227 2.6091 11.6318 2.6091Z" fill="black"/>
</svg>
