<svg width="32" height="32" viewBox="0 0 32 32" fill="none" xmlns="http://www.w3.org/2000/svg">
<g clip-path="url(#clip0_1526_133)">
<path d="M5.66669 0.398438H26.3334C29.4667 0.398438 32 2.93175 32 6.06512V25.9318C32 29.0651 29.4667 31.5985 26.3333 31.5985H5.66669C2.53331 31.5984 0 29.0651 0 25.9318V6.06512C0 2.93175 2.53331 0.398438 5.66669 0.398438Z" fill="#001834"/>
<path d="M7.19922 22.2787V8.55872C7.19922 8.46541 7.23922 8.41203 7.33253 8.41203C7.55922 8.41203 7.77253 8.41203 8.07922 8.39872C8.39922 8.38541 8.73253 8.38541 9.09253 8.37203C9.45253 8.35866 9.83922 8.35872 10.2525 8.34534C10.6658 8.33203 11.0658 8.33203 11.4658 8.33203C12.5592 8.33203 13.4658 8.46534 14.2125 8.74534C14.8792 8.97203 15.4925 9.34534 15.9992 9.83866C16.4259 10.2653 16.7592 10.7853 16.9725 11.3587C17.1725 11.9187 17.2792 12.492 17.2792 13.092C17.2792 14.2387 17.0125 15.1853 16.4792 15.932C15.9459 16.6787 15.1992 17.2387 14.3325 17.5587C13.4258 17.892 12.4258 18.012 11.3325 18.012C11.0125 18.012 10.7992 18.012 10.6658 17.9987C10.5325 17.9853 10.3458 17.9853 10.0925 17.9853V22.2653C10.1058 22.3587 10.0392 22.4387 9.94584 22.452C9.93253 22.452 9.91916 22.452 9.89253 22.452H7.35922C7.25253 22.452 7.19922 22.3987 7.19922 22.2787ZM10.1059 10.9854V15.4654C10.2926 15.4787 10.4659 15.4921 10.6259 15.4921H11.3326C12.2533 15.4921 13.3166 15.2757 13.9592 14.5455C14.5123 13.917 14.5138 12.6706 14.0659 11.9855C13.5342 11.1722 12.4708 10.9365 11.5592 10.9588C11.2125 10.9588 10.9059 10.9588 10.6525 10.9721C10.3859 10.9587 10.1992 10.972 10.1059 10.9854Z" fill="#00A9FF"/>
<path d="M25.5981 14.6539C25.1981 14.4406 24.7714 14.2939 24.3181 14.2006C23.8248 14.0939 23.3314 14.0273 22.8248 14.0273C22.5581 14.014 22.2781 14.054 22.0248 14.1206C21.8515 14.1606 21.7048 14.2539 21.6115 14.3873C21.5448 14.494 21.5048 14.6273 21.5048 14.7473C21.5048 14.8673 21.5581 14.9873 21.6381 15.094C21.7581 15.2407 21.9181 15.3607 22.0914 15.454C22.3981 15.614 22.7181 15.7607 23.0381 15.894C23.7581 16.134 24.4514 16.4673 25.0914 16.8673C25.5314 17.1473 25.8914 17.5206 26.1448 17.974C26.3581 18.4007 26.4648 18.8673 26.4514 19.3473C26.4648 19.974 26.2781 20.6006 25.9314 21.1206C25.5581 21.6539 25.0381 22.0673 24.4381 22.3073C23.7848 22.5873 22.9848 22.734 22.0248 22.734C21.4115 22.734 20.8115 22.6807 20.2115 22.5607C19.7448 22.4807 19.2782 22.334 18.8515 22.134C18.7582 22.0807 18.6915 21.9873 18.7048 21.8807V19.5607C18.7048 19.5207 18.7181 19.4674 18.7581 19.4407C18.7981 19.414 18.8381 19.4274 18.8781 19.454C19.3981 19.7607 19.9448 19.974 20.5314 20.1073C21.0381 20.2406 21.5714 20.3073 22.1048 20.3073C22.6114 20.3073 22.9714 20.2406 23.2114 20.1206C23.4248 20.0273 23.5714 19.8006 23.5714 19.5606C23.5714 19.3739 23.4648 19.2006 23.2514 19.0273C23.0381 18.854 22.5981 18.654 21.9448 18.4006C21.2648 18.1606 20.6381 17.8406 20.0514 17.4406C19.6381 17.1473 19.2914 16.7606 19.0381 16.3073C18.8248 15.8806 18.7181 15.414 18.7314 14.9473C18.7314 14.374 18.8914 13.8273 19.1848 13.334C19.5181 12.8007 20.0114 12.374 20.5848 12.1073C21.2114 11.7873 21.9981 11.6406 22.9448 11.6406C23.4914 11.6406 24.0514 11.6806 24.5981 11.7606C24.9981 11.8139 25.3848 11.9206 25.7448 12.0673C25.7981 12.0806 25.8514 12.134 25.8781 12.1873C25.8914 12.2406 25.9048 12.294 25.9048 12.3473V14.5206C25.9048 14.5739 25.8781 14.6273 25.8381 14.6539C25.7181 14.6806 25.6514 14.6806 25.5981 14.6539Z" fill="#00A9FF"/>
</g>
<defs>
<clipPath id="clip0_1526_133">
<rect width="32" height="32" fill="white"/>
</clipPath>
</defs>
</svg>
