<svg width="61" height="40" viewBox="0 0 61 40" fill="none" xmlns="http://www.w3.org/2000/svg">
<path d="M54.8861 5.85701C48.3484 -0.680682 38.1978 -1.85371 30.3776 2.88533C27.2808 1.02412 23.7148 0.00749513 20.008 0.00749513C14.659 0.00749513 9.62276 2.08767 5.85342 5.85701C-1.95114 13.6616 -1.95114 26.3459 5.85342 34.1505C9.7166 38.0137 14.8467 40 20.0236 40C23.5896 40 27.1869 39.0459 30.3776 37.1065C33.5526 39.0303 37.1499 40 40.7472 40C45.8772 40 50.9916 38.0449 54.9017 34.1505C58.6711 30.3812 60.7512 25.3606 60.7512 19.9959C60.7512 14.6626 58.6711 9.64198 54.8861 5.85701ZM8.0118 31.9921C1.39591 25.3919 1.39591 14.6313 8.0118 8.01538C11.2024 4.82474 15.4723 3.05737 20.008 3.05737C24.5437 3.05737 28.7979 4.82474 32.0042 8.01538L48.7707 24.7819C48.3797 25.4388 47.9105 26.0488 47.3474 26.5962C46.8 27.1436 46.19 27.6284 45.5331 28.0195L28.7666 11.2529C26.4362 8.92252 23.3237 7.62437 20.008 7.62437C16.6922 7.62437 13.5798 8.90688 11.2494 11.2529C8.91894 13.5834 7.62079 16.6958 7.62079 20.0116C7.62079 23.3273 8.9033 26.4398 11.2494 28.7702C13.6111 31.1319 16.8017 32.3831 20.0236 32.3831C21.4 32.3831 22.792 32.1485 24.1214 31.6793L26.5926 34.1505C26.9367 34.4946 27.2964 34.823 27.6561 35.1358C21.1967 38.4047 13.2357 37.2316 8.0118 31.9921ZM49.9281 21.6382L39.1049 10.8307C42.061 10.3145 45.1734 11.2373 47.3474 13.4113C49.1148 15.1787 50.0845 17.5091 50.0845 20.0116C50.0688 20.559 50.0219 21.1064 49.9281 21.6382ZM42.3894 29.1925C41.8576 29.2863 41.2946 29.3332 40.7472 29.3332C38.2447 29.3332 35.8986 28.3635 34.1469 26.5962L18.3501 10.8307C18.8819 10.7368 19.4449 10.6899 19.9923 10.6899C22.4948 10.6899 24.8409 11.6596 26.5926 13.427L42.3894 29.1925ZM10.8114 18.3693L21.6346 29.1925C18.6785 29.7086 15.5661 28.7858 13.3921 26.6118C11.6247 24.8445 10.655 22.514 10.655 20.0116C10.6707 19.4485 10.7176 18.9011 10.8114 18.3693ZM52.7433 31.9921C46.1275 38.608 35.3669 38.608 28.7666 31.9921L11.9845 15.2256C12.3755 14.5687 12.8447 13.9587 13.4077 13.4113C13.9551 12.8639 14.5651 12.3791 15.222 12.0037L32.0042 28.7858C34.3346 31.1163 37.447 32.4144 40.7628 32.4144C44.0786 32.4144 47.191 31.1319 49.5214 28.7858C51.8518 26.4554 53.15 23.343 53.15 20.0272C53.15 16.7114 51.8675 13.599 49.5214 11.2686C46.1431 7.89026 41.0912 6.77979 36.6337 8.34383L34.1625 5.87264C33.8185 5.52856 33.4587 5.20011 33.099 4.8873C39.5585 1.61846 47.5195 2.80713 52.7433 8.03102C55.934 11.2217 57.7014 15.4915 57.7014 20.0272C57.7014 24.5473 55.934 28.8015 52.7433 31.9921Z" fill="#161616"/>
<path opacity="0.7" d="M17.4739 14.2563C18.2559 13.9122 19.1161 13.7245 20.0076 13.7245C20.4925 13.7245 20.9617 13.7871 21.4309 13.8809L18.3654 10.8154C17.2549 11.0188 16.1914 11.4098 15.2217 11.9885L17.4739 14.2563Z" fill="#161616"/>
<path opacity="0.7" d="M13.877 21.4348C13.7676 20.9656 13.7206 20.4964 13.7206 19.9959C13.7206 19.12 13.9083 18.2598 14.2368 17.4778L11.9846 15.2256C11.4059 16.1953 11.0148 17.2588 10.8115 18.3693L13.877 21.4348Z" fill="#161616"/>
<path opacity="0.7" d="M46.8627 18.5723C46.9721 19.0415 47.0191 19.5107 47.0191 20.0112C47.0191 20.887 46.8314 21.7473 46.5029 22.5293L48.7708 24.7971C49.3495 23.8274 49.7405 22.7639 49.9438 21.6534L46.8627 18.5723Z" fill="#161616"/>
<path opacity="0.7" d="M43.2803 25.7676C42.4982 26.1117 41.638 26.2994 40.7465 26.2994C40.2617 26.2994 39.7925 26.2368 39.3232 26.1429L42.3888 29.2085C43.4992 29.0051 44.5628 28.6141 45.5325 28.0354L43.2803 25.7676Z" fill="#161616"/>
</svg>
